<?xml version="1.0" standalone="no"?>
<!DOCTYPE svg PUBLIC "-//W3C//DTD SVG 20010904//EN"
 "http://www.w3.org/TR/2001/REC-SVG-20010904/DTD/svg10.dtd">
<svg version="1.0" xmlns="http://www.w3.org/2000/svg"
 width="512.000000pt" height="512.000000pt" viewBox="0 0 512.000000 512.000000"
 preserveAspectRatio="xMidYMid meet">
<metadata>
Created by potrace 1.14, written by Peter Selinger 2001-2017
</metadata>
<g transform="translate(0.000000,512.000000) scale(0.100000,-0.100000)"
fill="#000000" stroke="none">
<path d="M2527 3724 c-1 -1 -69 -4 -152 -8 -82 -3 -168 -9 -190 -12 -278 -38
-284 -39 -455 -80 -509 -122 -898 -325 -1203 -629 -43 -42 -90 -93 -105 -114
-15 -20 -30 -38 -33 -41 -3 -3 -29 -39 -56 -80 -116 -173 -185 -356 -182 -480
4 -154 62 -283 178 -400 109 -110 235 -189 417 -263 50 -20 250 -83 289 -91 6
-2 35 -8 65 -14 30 -6 69 -14 85 -17 17 -2 55 -9 85 -15 54 -10 94 -14 220
-26 36 -3 76 -7 90 -9 24 -4 111 -11 225 -20 356 -27 1347 -27 1590 -1 17 2
62 6 100 10 148 14 271 34 391 61 34 8 73 16 85 19 50 10 198 56 285 89 279
107 526 280 644 452 77 111 90 246 40 396 -80 240 -254 484 -470 659 -30 25
-57 47 -60 51 -18 21 -236 158 -340 212 -125 66 -344 160 -410 177 -19 5 -73
20 -119 34 -107 33 -298 76 -392 90 -25 4 -57 9 -70 11 -91 15 -196 25 -316
31 -218 9 -234 10 -236 8z m319 -156 c4 -4 15 -40 24 -80 24 -99 22 -324 -4
-383 -33 -76 -73 -102 -135 -85 -123 33 -301 247 -392 471 -16 39 -29 73 -29
74 0 14 522 16 536 3z m-666 -52 c19 -64 93 -217 145 -298 110 -170 221 -276
332 -318 264 -99 422 147 359 560 -9 59 -10 87 -2 92 5 4 13 5 16 3 3 -2 26
-6 50 -10 45 -6 255 -48 301 -60 21 -5 29 -22 62 -123 54 -170 148 -350 237
-456 122 -146 169 -183 275 -220 181 -61 318 52 348 286 l11 87 40 -32 c120
-95 254 -241 331 -361 74 -116 138 -269 148 -356 24 -199 -278 -460 -698 -603
-117 -40 -297 -86 -397 -101 -21 -3 -55 -9 -75 -12 -21 -3 -49 -7 -62 -9 -14
-3 -54 -7 -90 -11 -36 -3 -79 -8 -96 -9 -16 -2 -93 -6 -170 -10 -77 -3 -171
-8 -210 -10 -99 -6 -678 -6 -810 0 -243 10 -343 15 -400 20 -33 2 -89 7 -125
10 -36 3 -94 8 -130 10 -36 3 -78 8 -95 10 -16 2 -59 7 -95 10 -133 13 -474
94 -565 134 -11 5 -54 24 -95 42 -153 67 -290 174 -361 280 -38 57 -71 158
-72 217 -1 119 99 336 230 499 94 118 286 289 404 361 42 25 49 27 49 9 0 -22
105 -189 165 -261 112 -136 215 -203 324 -213 134 -12 225 65 270 226 16 57
19 95 16 203 -3 138 -4 143 -36 272 -24 101 -24 103 9 108 15 3 83 17 152 31
144 29 222 42 266 43 29 1 33 -2 44 -40z m-607 -163 c50 -214 50 -395 -2 -491
-46 -87 -154 -66 -275 54 -98 98 -227 302 -203 322 32 27 370 170 432 184 29
7 31 5 48 -69z m2114 38 c131 -47 275 -113 396 -183 l90 -51 -5 -111 c-6 -123
-25 -184 -66 -216 -117 -92 -362 148 -496 486 -34 87 -42 114 -31 114 2 0 53
-17 112 -39z"/>
</g>
</svg>
