<?xml version="1.0" encoding="UTF-8" standalone="no"?>
<!DOCTYPE svg PUBLIC "-//W3C//DTD SVG 20010904//EN"
              "http://www.w3.org/TR/2001/REC-SVG-20010904/DTD/svg10.dtd">

<svg xmlns="http://www.w3.org/2000/svg"
     width="9.52633mm" height="9.26171mm"
     viewBox="0 0 36 35">
  <path id="Selection"
        fill="red" stroke="black" stroke-width="1"
        d="M 24.00,6.00
           C 24.00,6.00 25.00,24.00 25.00,24.00
             25.00,24.00 20.00,24.00 20.00,24.00
             20.00,24.00 19.00,19.00 19.00,19.00
             19.00,19.00 18.00,22.00 18.00,22.00
             18.00,22.00 16.00,22.00 16.00,22.00
             16.00,22.00 13.00,18.00 13.00,18.00
             13.00,18.00 12.00,24.00 12.00,24.00
             12.00,24.00 13.00,14.00 13.00,14.00
             13.00,14.00 18.00,21.00 18.00,21.00
             18.00,21.00 21.00,15.00 21.00,15.00
             21.00,15.00 21.00,23.00 21.00,23.00
             21.00,23.00 24.00,23.00 24.00,23.00
             24.00,23.00 24.00,6.00 24.00,6.00 Z
           M 9.00,9.00
           C 13.99,9.41 14.21,9.90 17.00,14.00
             17.00,14.00 20.00,10.00 20.00,10.00
             20.00,10.00 18.00,15.00 18.00,15.00
             18.00,15.00 16.00,15.00 16.00,15.00
             13.81,11.78 13.75,11.23 10.00,10.00
             10.00,10.00 9.00,28.00 9.00,28.00
             9.00,28.00 9.00,9.00 9.00,9.00 Z" />
</svg>
