<svg version="1.1" id="Layer_1" xmlns="http://www.w3.org/2000/svg" xmlns:xlink="http://www.w3.org/1999/xlink" x="0px" y="0px"
	 width="100%" viewBox="0 0 225 225" enable-background="new 0 0 225 225" xml:space="preserve">
<path fill="#F7F7F7" opacity="1.000000" stroke="none" 
	d="
M125.000000,226.000000 
	C83.333336,226.000000 42.166672,226.000000 1.000005,226.000000 
	C1.000004,151.000000 1.000004,76.000015 1.000002,1.000016 
	C75.999992,1.000010 150.999985,1.000010 225.999969,1.000005 
	C225.999985,75.999985 225.999985,150.999969 226.000000,225.999969 
	C192.500000,226.000000 159.000000,226.000000 125.000000,226.000000 
M188.861771,89.381210 
	C188.813309,88.522194 188.764847,87.663170 188.749329,86.679825 
	C188.749329,86.679825 188.716766,86.555412 188.884369,85.702271 
	C188.889053,82.131882 188.893753,78.561493 189.045471,74.305359 
	C189.986359,56.761406 190.927246,39.217449 191.876709,21.513494 
	C140.213364,21.513494 89.304733,21.513494 38.041958,21.513494 
	C37.320965,38.822853 36.609016,55.915024 35.580486,73.620956 
	C35.647438,74.069061 35.714386,74.517166 35.450680,75.779350 
	C35.405361,80.832092 35.360043,85.884834 35.129513,91.791603 
	C35.199844,93.529030 35.270176,95.266464 35.186203,97.548172 
	C35.254539,98.102303 35.322876,98.656441 35.218479,99.868706 
	C35.335052,100.528534 35.451626,101.188370 35.373905,102.375908 
	C35.522446,103.272446 35.670982,104.168983 35.638588,105.944305 
	C35.789883,108.630096 35.941181,111.315895 35.958237,114.920090 
	C36.736557,131.943527 37.514877,148.966949 38.115814,166.731201 
	C38.175301,167.486237 38.234787,168.241287 38.120544,169.735138 
	C38.175446,170.487900 38.230347,171.240677 38.107552,172.783340 
	C38.162716,173.856415 38.217880,174.929474 38.086456,176.785095 
	C38.111763,177.853958 38.137066,178.922836 37.963409,180.897110 
	C37.834572,184.867569 37.705738,188.838013 37.040997,193.473297 
	C37.040997,197.411346 37.040997,201.349396 37.040997,205.503784 
	C87.002480,205.503784 136.602325,205.503784 187.286194,205.503784 
	C185.528000,204.217987 184.613968,203.549530 183.722931,202.897903 
	C184.854874,200.671478 185.899323,198.617126 187.279541,196.324371 
	C187.713150,195.567535 188.146744,194.810699 189.082077,193.306274 
	C189.182465,193.023453 189.282867,192.740616 189.743149,192.281128 
	C189.851639,191.902985 189.960129,191.524841 190.655136,190.678452 
	C190.769455,189.452408 190.883774,188.226364 191.201874,186.506882 
	C191.142120,186.339264 191.082367,186.171631 191.248718,185.228745 
	C191.220871,184.166275 191.193039,183.103806 191.438416,181.584732 
	C191.386337,181.415176 191.334274,181.245621 191.651337,180.432434 
	C191.649628,178.946335 191.647903,177.460236 191.809189,175.157516 
	C191.758728,173.775528 191.708252,172.393524 191.855713,170.346161 
	C191.795975,169.891464 191.736221,169.436783 191.854477,168.065491 
	C190.908005,149.438568 189.961533,130.811630 189.193115,111.638924 
	C189.097214,110.425278 189.001312,109.211639 189.053818,107.210999 
	C188.991501,106.148987 188.929184,105.086975 189.028778,103.356911 
	C188.972412,102.905113 188.916061,102.453323 189.000763,101.111282 
	C188.895996,98.407646 188.791229,95.704002 188.864700,92.261574 
	C188.803360,91.509415 188.742020,90.757248 188.861771,89.381210 
z"/>
<path fill="#070707" opacity="1.000000" stroke="none" 
	d="
M38.293198,165.990387 
	C37.514877,148.966949 36.736557,131.943527 36.381302,114.410942 
	C39.741688,110.172737 43.676758,109.856804 48.127918,109.912086 
	C65.522331,110.128143 82.922234,110.108086 100.317070,109.909874 
	C103.819626,109.869957 107.308968,108.669060 110.863846,108.354156 
	C111.568413,109.338150 112.213547,109.971436 112.858673,110.604721 
	C112.950523,109.857170 113.073509,109.111794 113.125648,108.361481 
	C113.180092,107.578003 113.166321,106.789772 113.510323,106.008240 
	C119.593307,109.413048 125.745018,110.318375 132.439056,110.119499 
	C145.917603,109.719070 159.420975,109.797707 172.904633,110.100174 
	C178.287659,110.220932 183.645660,111.456558 189.015045,112.184692 
	C189.961533,130.811630 190.908005,149.438568 191.438202,168.428192 
	C190.675720,167.531860 190.329529,166.272827 189.987534,164.638519 
	C189.845779,163.329269 189.699829,162.395294 189.696060,162.371246 
	C184.591644,162.940750 179.854065,163.791809 175.095795,163.929718 
	C166.517365,164.178345 157.924591,163.907288 149.342834,164.089874 
	C147.881943,164.120956 146.446167,165.332169 144.799042,166.273193 
	C142.734863,167.362137 140.870422,168.176071 139.002960,168.655457 
	C138.994186,167.874756 138.988419,167.428604 138.874680,166.769363 
	C138.571243,166.289780 138.316299,166.105576 138.000946,166.001831 
	C138.000000,166.000000 137.996887,166.000671 137.992462,165.725525 
	C137.979858,165.267090 137.971695,165.083817 138.103668,164.526520 
	C139.485733,164.000153 140.727661,163.847824 141.315704,163.775696 
	C140.936447,160.740829 140.575424,157.851974 140.214417,154.963120 
	C140.639435,154.829849 141.064453,154.696564 141.489471,154.563293 
	C139.937149,153.292664 138.384842,152.022049 136.063812,150.122223 
	C136.063812,155.843750 136.063812,160.411835 135.733826,164.986816 
	C134.492340,164.521027 133.591110,164.027008 132.666687,163.581039 
	C131.523956,163.029724 130.361969,162.518280 129.147964,161.598419 
	C129.067383,159.728302 129.015274,158.247437 129.104935,156.775208 
	C129.110397,156.685593 130.240372,156.664444 130.881531,156.978317 
	C131.229919,158.089569 131.543884,158.833969 131.857864,159.578354 
	C132.272034,159.340530 132.686188,159.102722 133.100357,158.864899 
	C132.434860,157.909622 131.769363,156.954330 131.093628,155.593719 
	C130.007141,154.327072 128.930893,153.465759 127.854630,152.604446 
	C127.460960,152.823196 127.067299,153.041931 126.673630,153.260681 
	C127.111282,157.022461 127.548935,160.784256 127.971909,164.875244 
	C126.883720,165.862396 125.882339,166.821381 124.718040,167.100296 
	C123.334801,167.431641 121.811478,167.178238 119.698776,167.178238 
	C119.656303,167.028671 119.308311,165.803314 119.310883,164.487411 
	C119.982887,163.924698 120.304329,163.452545 120.625771,162.980377 
	C117.199974,162.366699 117.701447,160.379868 118.903427,158.116531 
	C119.077095,157.789520 119.142921,157.379562 119.165520,157.002396 
	C119.268837,155.278183 119.338959,153.551971 119.440834,151.409515 
	C119.232986,151.409515 117.746437,151.409515 116.144905,151.409515 
	C116.043930,153.388504 115.952248,155.185455 115.451904,156.989761 
	C109.176476,157.796204 113.112892,162.379105 111.724838,164.900330 
	C111.064323,164.550125 110.634804,164.295639 110.183060,163.726974 
	C109.771706,162.072800 109.382576,160.732819 108.993439,159.392838 
	C108.671463,159.495193 108.349495,159.597565 108.027519,159.699921 
	C108.027519,161.130707 108.027519,162.561478 107.642807,164.000488 
	C106.317612,164.212616 104.956833,164.089767 104.503723,164.672592 
	C101.133041,169.008163 96.560730,168.397003 92.030838,167.676239 
	C92.092438,166.364151 92.124733,165.373993 92.157028,164.383850 
	C91.771324,164.586548 91.385620,164.789246 90.782928,165.104431 
	C90.294708,165.417923 90.106674,165.678848 89.704651,166.109528 
	C84.084312,165.320877 88.713982,162.438065 88.178391,159.992737 
	C86.159782,160.530685 83.328468,160.415710 82.320816,161.715027 
	C79.162315,165.787750 75.019707,164.882919 70.974831,165.002090 
	C60.080700,165.322998 49.187042,165.659866 38.293198,165.990387 
M118.074059,111.560410 
	C118.375107,111.879158 118.676155,112.197906 118.977211,112.516647 
	C119.155289,112.310394 119.333366,112.104141 119.511436,111.897888 
	C119.007523,111.598694 118.503609,111.299500 117.927429,110.438316 
	C117.626060,110.119148 117.324692,109.799980 117.023323,109.480820 
	C116.844574,109.687744 116.665817,109.894669 116.487061,110.101585 
	C116.991470,110.400955 117.495888,110.700325 118.074059,111.560410 
M113.187141,136.400116 
	C112.533623,135.862930 111.880112,135.325745 111.226593,134.788559 
	C114.391838,131.099472 110.243042,132.401291 109.097443,131.750763 
	C108.664001,125.838051 108.664001,125.838051 105.996567,125.395844 
	C105.996567,127.695717 105.996567,129.978104 105.996567,132.133286 
	C104.660851,132.271179 103.406464,132.400681 103.099594,132.432358 
	C103.341805,134.612320 103.033432,137.153091 103.776901,137.511414 
	C105.840324,138.505875 107.086128,139.325760 106.885773,141.911270 
	C106.782455,143.244522 107.696167,144.656570 108.150337,146.033020 
	C108.596664,145.889481 109.042984,145.745956 109.489311,145.602417 
	C109.489311,143.344849 109.489311,141.087265 109.489311,139.058517 
	C111.115707,138.355820 112.529007,137.745193 114.308937,137.862915 
	C118.329468,137.761398 116.573769,140.831100 117.061340,142.736755 
	C117.364822,143.922897 118.077042,145.004471 118.605820,146.132965 
	C119.217476,142.868210 118.577599,140.063736 119.386551,137.770294 
	C120.306839,135.161209 120.016556,133.257248 119.291351,130.680115 
	C117.927322,125.832802 118.351929,125.713318 116.442787,125.524475 
	C114.911674,128.978012 119.529190,133.774811 113.187141,136.400116 
M89.909065,136.787781 
	C89.909065,139.866516 89.909065,142.945251 89.909065,147.158737 
	C94.944107,144.053986 91.343079,140.159180 92.680984,137.555939 
	C98.437202,134.477600 100.648453,130.528458 99.018692,125.441429 
	C98.276268,126.903900 97.733589,127.972893 97.047928,129.323547 
	C96.402931,127.543312 95.915581,126.198219 95.029617,123.752907 
	C94.008163,127.017029 93.451645,128.795410 92.895134,130.573792 
	C92.662476,130.492554 92.429825,130.411316 92.197166,130.330063 
	C92.029526,128.586288 91.861877,126.842514 91.694237,125.098747 
	C87.594727,128.291260 90.197708,132.273895 89.909065,136.787781 
M147.518936,146.022903 
	C148.329895,145.445435 149.326065,145.009323 149.903122,144.253311 
	C150.566696,143.383942 150.859482,142.231537 151.282379,141.272263 
	C152.307556,143.333038 153.051971,144.829468 153.796387,146.325897 
	C154.230240,146.088821 154.664093,145.851761 155.097946,145.614685 
	C155.097946,144.177368 155.097946,142.740051 155.097946,140.552017 
	C156.629684,142.881607 157.756851,144.595901 158.884018,146.310196 
	C159.526672,145.866287 160.169327,145.422394 160.811981,144.978485 
	C158.181427,140.890900 155.550888,136.803329 153.180939,133.120682 
	C151.770538,135.498383 150.429840,137.519424 149.340500,139.667908 
	C148.406693,141.509659 147.760559,143.497238 147.518936,146.022903 
M73.034103,130.012283 
	C73.001991,125.679214 73.001991,125.679214 70.241753,125.420021 
	C68.598328,129.249039 73.580582,134.510941 66.246964,137.511520 
	C68.716568,138.173340 69.855698,138.478607 70.486641,138.647690 
	C71.088676,141.503403 71.600723,143.932266 72.112770,146.361130 
	C72.460793,146.228485 72.808823,146.095825 73.156853,145.963181 
	C73.954369,141.557327 74.751877,137.151489 75.641212,132.238373 
	C76.106621,132.324173 75.281029,132.287796 74.554382,132.000854 
	C73.986900,131.776779 73.542267,131.241577 73.034103,130.012283 
M134.041824,127.960403 
	C133.619614,127.272339 133.197403,126.584267 132.775208,125.896194 
	C132.485901,126.072876 132.196594,126.249565 131.907288,126.426254 
	C134.255371,131.839951 136.603455,137.253662 138.974152,142.719513 
	C139.008408,142.013046 139.112518,141.241714 139.071304,140.478241 
	C138.891922,137.156158 138.338928,134.104797 142.323471,131.915161 
	C145.171982,130.349823 144.779083,126.803802 142.420059,125.200668 
	C140.767044,130.969849 138.449661,131.973251 134.041824,127.960403 
M129.306885,145.334091 
	C129.021332,139.325714 128.817963,133.311081 128.361221,127.315750 
	C128.293076,126.421181 127.034348,125.617310 125.987038,124.366005 
	C125.987038,131.409470 126.011772,137.171066 125.973145,142.932236 
	C125.960228,144.859116 125.755035,146.812714 129.306885,145.334091 
M82.497353,141.019241 
	C82.497353,137.347855 82.497353,133.676468 82.497353,130.017273 
	C83.686180,130.332291 84.757202,130.616089 85.828224,130.899902 
	C86.078613,130.459061 86.329002,130.018219 86.579384,129.577377 
	C84.483665,127.891716 82.387939,126.206062 80.232452,124.472336 
	C80.232452,131.567764 80.150497,137.669479 80.321182,143.764130 
	C80.346649,144.673798 81.558945,145.550217 82.222191,146.442017 
	C82.622757,146.178543 83.023315,145.915070 83.423874,145.651596 
	C83.283386,144.371048 83.142899,143.090500 82.497353,141.019241 
M107.578568,111.515350 
	C107.578568,111.515350 107.477058,111.573761 107.578568,111.515350 
z"/>
<path fill="#040404" opacity="1.000000" stroke="none" 
	d="
M35.897072,73.007195 
	C36.609016,55.915024 37.320965,38.822853 38.041958,21.513494 
	C89.304733,21.513494 140.213364,21.513494 191.876709,21.513494 
	C190.927246,39.217449 189.986359,56.761406 188.661438,74.607018 
	C187.852020,74.271698 187.426620,73.634720 187.001221,72.598068 
	C187.000610,71.132477 187.000000,70.066544 187.145065,68.667755 
	C188.311127,66.022293 188.073303,64.823296 185.066956,65.409386 
	C182.970947,65.818001 180.795822,65.966835 178.655014,65.975433 
	C166.160706,66.025566 153.665817,65.960831 141.171875,66.045280 
	C139.441849,66.056984 137.715958,66.679634 135.615082,67.016670 
	C134.495880,67.015610 133.749756,67.017334 132.953461,66.697006 
	C130.712158,65.001770 130.327698,65.354378 129.991287,69.335899 
	C129.649445,70.413422 129.331436,71.178894 128.681580,71.906174 
	C127.915054,71.965096 127.480385,72.062218 126.994431,71.703377 
	C126.870857,70.950188 126.798576,70.652962 126.557968,69.984604 
	C126.140663,68.278915 125.891678,66.944374 125.642700,65.609833 
	C124.780716,65.919540 123.215179,66.139893 123.162788,66.552414 
	C122.433434,72.295242 116.633759,70.555687 113.625969,73.044273 
	C115.643356,69.924538 117.660744,66.804794 119.678131,63.685059 
	C119.060852,63.268383 118.443565,62.851707 117.826279,62.435036 
	C116.853828,63.637772 115.881378,64.840508 114.171539,66.955254 
	C114.171539,62.736679 114.171539,59.575676 114.171539,56.414669 
	C113.748581,56.351990 113.325623,56.289310 112.902664,56.226631 
	C112.038826,59.701756 111.174988,63.176880 110.286034,66.753021 
	C109.406227,66.462006 108.665848,66.217102 107.532745,65.960052 
	C106.092522,65.966576 105.045013,65.985245 103.830978,65.770943 
	C103.137215,65.500137 102.609985,65.462311 102.082756,65.424477 
	C102.080391,65.579079 102.078033,65.733673 102.075668,65.888275 
	C102.718567,65.924065 103.361473,65.959862 103.864258,66.287354 
	C101.848175,69.384132 96.679436,67.390366 95.808258,72.130592 
	C95.133888,72.591019 94.623169,72.819168 93.737495,73.039383 
	C92.243660,72.681084 91.124779,72.330727 90.005219,71.611954 
	C90.005035,70.505486 90.005531,69.767426 90.156464,68.874611 
	C89.873894,68.481087 89.440887,68.242317 88.624336,67.835693 
	C72.881813,67.489075 57.522793,67.217987 42.163876,67.223534 
	C39.640472,67.224442 37.282932,68.582314 38.003490,72.255920 
	C38.002018,72.672775 38.000874,72.839508 37.752892,73.007004 
	C37.506054,73.007767 37.012493,73.018417 36.733665,73.013229 
	C36.268917,73.007751 36.082996,73.007477 35.897072,73.007195 
M95.105988,69.259995 
	C95.185883,69.308395 95.265778,69.356789 95.345673,69.405182 
	C95.228905,69.271309 95.112137,69.137436 95.306877,68.518700 
	C95.765625,68.090767 96.224373,67.662834 96.683128,67.234909 
	C96.548065,66.989754 96.413002,66.744606 96.277939,66.499458 
	C95.340714,67.017181 94.403481,67.534904 93.466248,68.052628 
	C93.978683,68.366875 94.491119,68.681129 95.105988,69.259995 
z"/>
<path fill="#1A1A1A" opacity="1.000000" stroke="none" 
	d="
M37.576904,192.808472 
	C37.705738,188.838013 37.834572,184.867569 38.405983,180.365295 
	C39.232925,178.555252 39.617302,177.277008 40.265690,175.718201 
	C44.123222,174.958603 47.715824,174.070953 51.310398,174.062897 
	C94.308159,173.966461 137.306229,174.013336 180.304138,173.958298 
	C182.203171,173.955841 184.101395,173.334717 186.317535,172.976776 
	C187.419113,172.637146 188.203171,172.322540 189.021988,172.333771 
	C189.919891,173.764450 190.783035,174.869293 191.646179,175.974136 
	C191.647903,177.460236 191.649628,178.946335 191.277771,180.824158 
	C190.808823,181.307068 190.713425,181.398254 190.618011,181.489441 
	C190.800415,181.673386 190.982803,181.857361 191.165192,182.041336 
	C191.193039,183.103806 191.220871,184.166275 190.891739,185.640182 
	C190.271729,186.199905 190.008682,186.348206 189.745651,186.496490 
	C190.163132,186.664444 190.580597,186.832382 190.998077,187.000320 
	C190.883774,188.226364 190.769455,189.452408 190.148621,190.657898 
	C189.248505,190.736618 188.854935,190.835892 188.461349,190.935165 
	C188.768661,191.442703 189.075958,191.950241 189.383255,192.457794 
	C189.282867,192.740616 189.182465,193.023453 188.609833,193.204346 
	C185.425476,192.068604 182.717133,190.145157 180.000717,190.133713 
	C135.582321,189.946655 91.162903,190.014191 46.743744,189.979858 
	C42.573204,189.976624 40.002640,191.473663 39.733894,195.773926 
	C38.838459,194.636688 38.207680,193.722580 37.576904,192.808472 
z"/>
<path fill="#0C0C0C" opacity="1.000000" stroke="none" 
	d="
M37.308952,193.140884 
	C38.207680,193.722580 38.838459,194.636688 40.116821,195.942535 
	C42.724380,196.556351 44.684200,196.970657 46.644352,196.972260 
	C91.259033,197.008850 135.873749,197.006378 180.488449,196.981644 
	C182.640305,196.980453 184.792007,196.708603 186.943771,196.562775 
	C185.899323,198.617126 184.854874,200.671478 183.722931,202.897903 
	C184.613968,203.549530 185.528000,204.217987 187.286194,205.503784 
	C136.602325,205.503784 87.002480,205.503784 37.040997,205.503784 
	C37.040997,201.349396 37.040997,197.411346 37.308952,193.140884 
z"/>
<path fill="#141414" opacity="1.000000" stroke="none" 
	d="
M187.111664,196.443573 
	C184.792007,196.708603 182.640305,196.980453 180.488449,196.981644 
	C135.873749,197.006378 91.259033,197.008850 46.644352,196.972260 
	C44.684200,196.970657 42.724380,196.556351 40.381481,196.165680 
	C40.002640,191.473663 42.573204,189.976624 46.743744,189.979858 
	C91.162903,190.014191 135.582321,189.946655 180.000717,190.133713 
	C182.717133,190.145157 185.425476,192.068604 188.358948,193.578156 
	C188.146744,194.810699 187.713150,195.567535 187.111664,196.443573 
z"/>
<path fill="#101010" opacity="1.000000" stroke="none" 
	d="
M188.987228,172.007919 
	C188.203171,172.322540 187.419113,172.637146 186.245712,172.610931 
	C183.074280,172.179855 180.292221,172.012054 177.510101,172.010956 
	C131.101822,171.992767 84.693535,171.995422 38.285248,171.993439 
	C38.230347,171.240677 38.175446,170.487900 38.617420,169.361908 
	C42.896572,168.659103 46.675114,168.108902 50.461880,168.044891 
	C58.944820,167.901489 67.431847,168.000198 75.917213,167.999893 
	C81.278648,167.999710 86.640091,167.998779 92.001526,167.998184 
	C96.560730,168.397003 101.133041,169.008163 104.503723,164.672592 
	C104.956833,164.089767 106.317612,164.212616 108.005478,164.153931 
	C109.237007,164.213165 109.721146,164.127167 110.205276,164.041168 
	C110.634804,164.295639 111.064323,164.550125 112.004929,164.949554 
	C112.701492,165.132294 112.886963,165.170074 112.999794,165.528168 
	C112.990051,166.835632 113.052940,167.822769 113.115829,168.809921 
	C113.954636,168.368729 114.985909,168.101532 115.582626,167.441467 
	C116.299431,166.648575 116.646164,165.521133 117.454491,164.438080 
	C118.157341,164.417725 118.558838,164.497849 118.960327,164.577957 
	C119.308311,165.803314 119.656303,167.028671 119.698776,167.178238 
	C121.811478,167.178238 123.334801,167.431641 124.718040,167.100296 
	C125.882339,166.821381 126.883720,165.862396 128.327972,164.714905 
	C128.868591,163.480103 129.038437,162.734848 129.208298,161.989609 
	C130.361969,162.518280 131.523956,163.029724 132.666687,163.581039 
	C133.591110,164.027008 134.492340,164.521027 136.051376,165.018036 
	C137.120453,164.995071 137.541992,164.947815 137.963547,164.900558 
	C137.971695,165.083817 137.979858,165.267090 137.740692,165.926392 
	C137.997559,167.264938 138.501755,168.127457 139.005966,168.989990 
	C140.870422,168.176071 142.734863,167.362137 145.267853,166.274353 
	C160.618698,165.671600 175.301010,165.342697 189.983337,165.013794 
	C190.329529,166.272827 190.675720,167.531860 191.349182,168.886490 
	C191.736221,169.436783 191.795975,169.891464 191.450989,170.688568 
	C190.359909,171.356628 189.673569,171.682266 188.987228,172.007919 
z"/>
<path fill="#141414" opacity="1.000000" stroke="none" 
	d="
M133.003632,67.019051 
	C133.749756,67.017334 134.495880,67.015610 135.616089,67.345322 
	C135.990051,68.115326 135.989914,68.553902 135.994888,68.996246 
	C136.000000,69.000000 135.992889,68.990135 135.654541,69.026733 
	C131.846710,71.067909 131.731140,71.413506 134.054382,73.350266 
	C135.074356,74.129440 136.037186,74.566032 137.095947,75.396400 
	C137.536087,76.127136 137.878220,76.756516 138.224808,76.758980 
	C153.347946,76.866364 168.471848,76.964226 183.594025,76.849533 
	C184.401978,76.843414 185.195938,74.990395 186.107941,73.779892 
	C186.420395,73.291794 186.680969,73.103493 187.001221,72.997734 
	C187.426620,73.634720 187.852020,74.271698 188.587921,74.949890 
	C188.893753,78.561493 188.889053,82.131882 188.460144,85.876495 
	C186.439331,81.348450 182.828751,84.077248 180.120407,84.056236 
	C164.807220,83.937424 149.492462,83.966980 134.178757,84.043999 
	C132.450653,84.052696 130.725662,84.676216 128.731186,85.204735 
	C127.566917,85.906555 126.670685,86.418282 125.804382,86.693359 
	C125.834320,86.456718 125.765900,85.984596 125.870346,85.625145 
	C126.006668,84.518120 126.038544,83.770554 126.316223,82.954590 
	C126.386032,82.586815 126.210045,82.287430 125.996796,81.576057 
	C125.783218,78.571632 125.611237,76.055367 128.799088,74.859581 
	C129.181259,74.716217 128.956741,72.955460 129.013428,71.944374 
	C129.331436,71.178894 129.649445,70.413422 130.309586,69.302452 
	C131.435684,68.310989 132.219650,67.665016 133.003632,67.019051 
z"/>
<path fill="#171717" opacity="1.000000" stroke="none" 
	d="
M35.340508,97.003891 
	C35.270176,95.266464 35.199844,93.529030 35.402180,91.173737 
	C36.117760,90.038315 36.560669,89.520752 37.043194,89.363495 
	C37.757378,91.848465 37.936527,93.623322 41.414619,93.522652 
	C51.149445,93.240891 60.916489,93.603668 70.654572,94.059280 
	C77.780464,94.392693 84.878090,95.308479 91.996536,95.858162 
	C92.658928,95.909325 93.380692,95.191589 94.401917,94.923889 
	C95.799637,95.172676 96.870338,95.328430 98.081001,95.504547 
	C97.983971,97.722412 97.890244,99.864716 97.340744,102.005417 
	C79.808716,102.002319 62.731907,101.938515 45.656948,102.087234 
	C43.765884,102.103699 41.885395,103.333412 39.669628,103.996277 
	C38.898911,103.979599 38.458565,103.967094 37.987999,103.653152 
	C37.623997,102.868294 37.290222,102.384880 37.026970,101.574768 
	C37.937714,100.476852 38.777931,99.705627 40.003578,98.580620 
	C38.706562,98.333847 37.862221,98.173195 36.884857,97.789040 
	C36.281395,97.378319 35.810951,97.191109 35.340508,97.003891 
z"/>
<path fill="#0B0B0B" opacity="1.000000" stroke="none" 
	d="
M38.018219,103.954590 
	C38.458565,103.967094 38.898911,103.979599 39.717148,104.366760 
	C41.231384,105.392700 42.345821,106.540916 43.508617,106.592163 
	C45.954941,106.700012 48.425735,106.043968 50.888065,106.032196 
	C64.530472,105.966919 78.173553,106.036354 91.815804,105.956619 
	C93.545753,105.946503 95.272186,105.333138 97.376518,105.000343 
	C99.835396,105.001160 101.918007,105.000885 104.243851,105.002762 
	C104.487099,105.004913 104.973488,105.016121 105.207283,105.155838 
	C107.712982,104.083336 105.960533,98.937218 110.690750,100.463463 
	C110.796234,103.266479 110.800316,105.634956 110.804398,108.003441 
	C107.308968,108.669060 103.819626,109.869957 100.317070,109.909874 
	C82.922234,110.108086 65.522331,110.128143 48.127918,109.912086 
	C43.676758,109.856804 39.741688,110.172737 36.448425,113.951736 
	C35.941181,111.315895 35.789883,108.630096 36.014904,105.390152 
	C36.933552,104.542191 37.475883,104.248390 38.018219,103.954590 
z"/>
<path fill="#121212" opacity="1.000000" stroke="none" 
	d="
M37.003578,89.003181 
	C36.560669,89.520752 36.117760,90.038315 35.494785,90.746727 
	C35.360043,85.884834 35.405361,80.832092 36.019196,75.528564 
	C36.738914,75.345016 36.889507,75.469719 37.041401,75.471313 
	C53.563240,75.645737 70.085182,75.852638 86.607094,75.849594 
	C87.406288,75.849442 88.205139,73.998131 89.117081,72.789917 
	C89.431534,72.299095 89.690170,72.102226 90.005898,71.980370 
	C91.124779,72.330727 92.243660,72.681084 93.696320,73.407410 
	C97.097267,75.823349 100.164436,77.863342 102.869682,80.054779 
	C101.518982,80.522186 100.530197,80.838150 99.416199,81.276901 
	C99.030388,81.509453 98.824333,81.444969 98.208405,81.121338 
	C95.642250,80.690895 93.542107,80.057434 91.438515,80.045769 
	C76.051903,79.960480 60.664440,79.967842 45.277733,80.043999 
	C43.517139,80.052711 41.759541,80.666428 39.624954,81.084610 
	C38.500755,83.780792 37.752167,86.391991 37.003578,89.003181 
z"/>
<path fill="#0B0B0B" opacity="1.000000" stroke="none" 
	d="
M189.104095,111.911804 
	C183.645660,111.456558 178.287659,110.220932 172.904633,110.100174 
	C159.420975,109.797707 145.917603,109.719070 132.439056,110.119499 
	C125.745018,110.318375 119.593307,109.413048 113.440750,105.579285 
	C113.043228,103.142464 113.043228,101.139221 113.043228,98.927818 
	C115.282852,100.901329 116.894035,102.321068 118.821465,103.881859 
	C119.757072,104.680862 120.376427,105.338829 120.860886,106.050674 
	C120.818405,106.071106 120.910828,106.037666 121.471703,106.002930 
	C140.853287,106.001183 159.766586,105.960159 178.679337,106.044838 
	C181.454468,106.057259 184.226913,106.667160 187.159821,107.237122 
	C187.847809,107.648430 188.376617,107.823212 188.905426,107.997993 
	C189.001312,109.211639 189.097214,110.425278 189.104095,111.911804 
z"/>
<path fill="#141414" opacity="1.000000" stroke="none" 
	d="
M38.196400,172.388397 
	C84.693535,171.995422 131.101822,171.992767 177.510101,172.010956 
	C180.292221,172.012054 183.074280,172.179855 185.928192,172.635925 
	C184.101395,173.334717 182.203171,173.955841 180.304138,173.958298 
	C137.306229,174.013336 94.308159,173.966461 51.310398,174.062897 
	C47.715824,174.070953 44.123222,174.958603 39.977562,175.719788 
	C39.041294,176.002167 38.657169,176.002365 38.273045,176.002548 
	C38.217880,174.929474 38.162716,173.856415 38.196400,172.388397 
z"/>
<path fill="#141414" opacity="1.000000" stroke="none" 
	d="
M188.686478,93.000366 
	C188.791229,95.704002 188.895996,98.407646 188.603745,101.618027 
	C187.222870,102.581078 186.208115,103.484100 185.260345,103.418549 
	C180.410355,103.083061 175.573990,102.042938 170.739548,102.081825 
	C153.400314,102.221283 136.063766,102.696243 118.712135,102.938553 
	C118.698059,102.832741 118.853012,102.685898 118.826447,102.374374 
	C118.591049,101.715927 118.382225,101.369011 118.115555,100.647797 
	C118.029915,99.518089 118.002098,98.762672 118.361359,98.054237 
	C123.832367,97.735390 128.916306,97.369576 134.333588,97.002541 
	C135.111404,96.997475 135.555862,96.993622 136.297119,97.284103 
	C150.284180,97.719269 163.974396,97.865219 177.664749,97.996826 
	C180.585678,98.024902 183.507126,98.000916 186.710846,98.000916 
	C186.830399,95.896706 186.912750,94.446976 186.997559,92.998474 
	C187.000000,92.999695 187.002838,93.000916 187.283447,93.000412 
	C187.938202,93.000053 188.312347,93.000214 188.686478,93.000366 
z"/>
<path fill="#121212" opacity="1.000000" stroke="none" 
	d="
M118.726212,103.044365 
	C136.063766,102.696243 153.400314,102.221283 170.739548,102.081825 
	C175.573990,102.042938 180.410355,103.083061 185.260345,103.418549 
	C186.208115,103.484100 187.222870,102.581078 188.533203,102.063156 
	C188.916061,102.453323 188.972412,102.905113 188.676651,103.843689 
	C187.883224,105.220512 187.441925,106.110565 187.000610,107.000610 
	C184.226913,106.667160 181.454468,106.057259 178.679337,106.044838 
	C159.766586,105.960159 140.853287,106.001183 121.470078,106.000824 
	C121.000000,106.000000 120.995789,105.996788 120.995789,105.996788 
	C120.376427,105.338829 119.757072,104.680862 118.803886,103.684639 
	C118.470062,103.346375 118.726212,103.044365 118.726212,103.044365 
z"/>
<path fill="#1A1A1A" opacity="1.000000" stroke="none" 
	d="
M128.999222,85.014633 
	C130.725662,84.676216 132.450653,84.052696 134.178757,84.043999 
	C149.492462,83.966980 164.807220,83.937424 180.120407,84.056236 
	C182.828751,84.077248 186.439331,81.348450 188.376343,86.303070 
	C188.716766,86.555412 188.749329,86.679825 188.383942,86.884346 
	C187.678238,87.726349 187.337906,88.363831 186.582977,88.945099 
	C184.555405,88.592926 182.943726,88.048645 181.329254,88.040192 
	C168.072556,87.970764 154.814941,87.953232 141.558868,88.066414 
	C140.042526,88.079353 138.451340,88.825104 137.037476,89.520897 
	C133.098099,91.459496 129.526398,89.511215 128.999222,85.014633 
z"/>
<path fill="#0C0C0C" opacity="1.000000" stroke="none" 
	d="
M92.030838,167.676239 
	C86.640091,167.998779 81.278648,167.999710 75.917213,167.999893 
	C67.431847,168.000198 58.944820,167.901489 50.461880,168.044891 
	C46.675114,168.108902 42.896572,168.659103 38.704285,168.992493 
	C38.234787,168.241287 38.175301,167.486237 38.204506,166.360809 
	C49.187042,165.659866 60.080700,165.322998 70.974831,165.002090 
	C75.019707,164.882919 79.162315,165.787750 82.320816,161.715027 
	C83.328468,160.415710 86.159782,160.530685 88.178391,159.992737 
	C88.713982,162.438065 84.084312,165.320877 89.921928,165.997620 
	C90.707649,165.574554 90.895493,165.313232 90.999908,164.991943 
	C91.385620,164.789246 91.771324,164.586548 92.157028,164.383850 
	C92.124733,165.373993 92.092438,166.364151 92.030838,167.676239 
z"/>
<path fill="#0F0F0F" opacity="1.000000" stroke="none" 
	d="
M89.004150,73.008850 
	C88.205139,73.998131 87.406288,75.849442 86.607094,75.849594 
	C70.085182,75.852638 53.563240,75.645737 37.041401,75.471313 
	C36.889507,75.469719 36.738914,75.345016 36.184525,75.121529 
	C35.714386,74.517166 35.647438,74.069061 35.738781,73.314072 
	C36.082996,73.007477 36.268917,73.007751 36.823456,73.171898 
	C37.461296,73.225922 37.730511,73.116081 37.999725,73.006248 
	C38.000874,72.839508 38.002018,72.672775 38.378239,72.253433 
	C39.503040,72.001396 40.252773,72.001953 41.212021,72.259583 
	C42.279552,72.677864 43.137562,72.839088 44.464508,72.999405 
	C59.623680,73.001945 74.313919,73.005394 89.004150,73.008850 
z"/>
<path fill="#070707" opacity="1.000000" stroke="none" 
	d="
M189.021988,172.333771 
	C189.673569,171.682266 190.359909,171.356628 191.352020,171.021255 
	C191.708252,172.393524 191.758728,173.775528 191.727692,175.565826 
	C190.783035,174.869293 189.919891,173.764450 189.021988,172.333771 
z"/>
<path fill="#1D1D1D" opacity="1.000000" stroke="none" 
	d="
M37.017876,98.012550 
	C37.862221,98.173195 38.706562,98.333847 40.003578,98.580620 
	C38.777931,99.705627 37.937714,100.476852 36.679501,101.578362 
	C36.030403,101.888504 35.799301,101.868355 35.568199,101.848198 
	C35.451626,101.188370 35.335052,100.528534 35.623974,99.408569 
	C36.358940,98.636475 36.688408,98.324516 37.017876,98.012550 
z"/>
<path fill="#121212" opacity="1.000000" stroke="none" 
	d="
M35.471054,102.112053 
	C35.799301,101.868355 36.030403,101.888504 36.608974,101.905052 
	C37.290222,102.384880 37.623997,102.868294 37.987995,103.653152 
	C37.475883,104.248390 36.933552,104.542191 36.105370,104.950760 
	C35.670982,104.168983 35.522446,103.272446 35.471054,102.112053 
z"/>
<path fill="#101010" opacity="1.000000" stroke="none" 
	d="
M38.179749,176.393829 
	C38.657169,176.002365 39.041294,176.002167 39.713547,176.000366 
	C39.617302,177.277008 39.232925,178.555252 38.505463,179.912598 
	C38.137066,178.922836 38.111763,177.853958 38.179749,176.393829 
z"/>
<path fill="#070707" opacity="1.000000" stroke="none" 
	d="
M187.159821,107.237129 
	C187.441925,106.110565 187.883224,105.220512 188.595703,104.177711 
	C188.929184,105.086975 188.991501,106.148987 188.979614,107.604492 
	C188.376617,107.823212 187.847809,107.648430 187.159821,107.237129 
z"/>
<path fill="#121212" opacity="1.000000" stroke="none" 
	d="
M188.775589,92.630966 
	C188.312347,93.000214 187.938202,93.000053 187.282745,92.625549 
	C187.005051,91.501610 187.008682,90.752022 187.290390,90.002808 
	C187.939194,90.003815 188.309937,90.004456 188.680679,90.005089 
	C188.742020,90.757248 188.803360,91.509415 188.775589,92.630966 
z"/>
<path fill="#141414" opacity="1.000000" stroke="none" 
	d="
M188.771225,89.693146 
	C188.309937,90.004456 187.939194,90.003815 187.285980,89.752518 
	C187.001526,89.335014 186.999542,89.168159 186.997559,89.001312 
	C187.337906,88.363831 187.678238,87.726349 188.367493,86.946510 
	C188.764847,87.663170 188.813309,88.522194 188.771225,89.693146 
z"/>
<path fill="#121212" opacity="1.000000" stroke="none" 
	d="
M36.884857,97.789040 
	C36.688408,98.324516 36.358940,98.636475 35.710342,99.079506 
	C35.322876,98.656441 35.254539,98.102303 35.263355,97.276031 
	C35.810951,97.191109 36.281395,97.378319 36.884857,97.789040 
z"/>
<path fill="#141414" opacity="1.000000" stroke="none" 
	d="
M189.563202,192.369461 
	C189.075958,191.950241 188.768661,191.442703 188.461349,190.935165 
	C188.854935,190.835892 189.248505,190.736618 189.855362,190.892029 
	C189.960129,191.524841 189.851639,191.902985 189.563202,192.369461 
z"/>
<path fill="#353535" opacity="1.000000" stroke="none" 
	d="
M191.099976,186.753601 
	C190.580597,186.832382 190.163132,186.664444 189.745651,186.496490 
	C190.008682,186.348206 190.271729,186.199905 190.778687,186.027817 
	C191.082367,186.171631 191.142120,186.339264 191.099976,186.753601 
z"/>
<path fill="#070707" opacity="1.000000" stroke="none" 
	d="
M191.301804,181.813034 
	C190.982803,181.857361 190.800415,181.673386 190.618011,181.489441 
	C190.713425,181.398254 190.808823,181.307068 191.093216,181.145966 
	C191.334274,181.245621 191.386337,181.415176 191.301804,181.813034 
z"/>
<path fill="#EBEBEB" opacity="1.000000" stroke="none" 
	d="
M118.712135,102.938553 
	C118.726212,103.044365 118.470062,103.346375 118.487640,103.543594 
	C116.894035,102.321068 115.282852,100.901329 113.043228,98.927818 
	C113.043228,101.139221 113.043228,103.142464 113.112793,105.574661 
	C113.166321,106.789772 113.180092,107.578003 113.125648,108.361481 
	C113.073509,109.111794 112.950523,109.857170 112.858673,110.604721 
	C112.213547,109.971436 111.568413,109.338150 110.863846,108.354156 
	C110.800316,105.634956 110.796234,103.266479 110.759232,100.141251 
	C109.912483,98.446167 109.098671,97.507828 108.308990,96.527512 
	C108.333107,96.485527 108.319984,96.389587 108.714844,96.442612 
	C109.333923,96.048805 109.558128,95.601974 110.078873,94.936501 
	C110.373001,93.523178 110.370583,92.328506 110.475960,90.807686 
	C109.435059,84.930107 107.218475,89.072418 105.035484,89.961823 
	C102.798637,91.169197 100.058533,91.733856 101.114883,95.348656 
	C101.097572,96.120682 101.145493,96.563362 101.114281,97.374878 
	C100.755234,99.160065 100.475311,100.576424 100.126411,102.101471 
	C99.936714,102.513229 99.815987,102.816307 99.301666,103.065140 
	C98.537567,102.676270 98.167046,102.341644 97.796524,102.007027 
	C97.890244,99.864716 97.983971,97.722412 98.081001,95.504547 
	C96.870338,95.328430 95.799637,95.172676 94.413376,94.563614 
	C96.660065,91.610306 99.291748,89.138611 97.881393,84.649818 
	C98.188675,83.273827 98.430748,82.240021 98.672813,81.206223 
	C98.824333,81.444969 99.030388,81.509453 99.655685,81.604332 
	C100.438713,84.067589 100.857010,86.326202 101.319626,88.824081 
	C104.096855,87.050034 106.797386,85.324982 109.454552,83.627625 
	C107.291458,82.333069 105.261536,81.118195 103.231606,79.903328 
	C100.164436,77.863342 97.097267,75.823349 94.071274,73.415344 
	C94.623169,72.819168 95.133888,72.591019 96.157547,72.176102 
	C99.145210,73.655350 101.543358,75.459030 104.141083,76.903893 
	C104.925385,77.340134 106.263359,76.780930 107.347710,76.677704 
	C107.296486,76.245026 107.245255,75.812347 107.194023,75.379662 
	C105.514610,74.407242 103.835190,73.434814 102.081299,72.419266 
	C102.555626,71.573532 103.031776,70.724541 103.417320,70.037102 
	C105.929070,71.433685 108.279961,72.740814 111.812958,74.705223 
	C110.427185,71.567551 109.636963,69.778343 109.284256,67.989578 
	C110.103149,67.647934 110.484535,67.305847 110.865921,66.963760 
	C110.536880,66.738998 110.207840,66.514244 109.878799,66.289490 
	C109.575417,66.897049 109.272041,67.504608 108.724388,68.404549 
	C108.295227,67.788681 108.110344,66.880440 107.925461,65.972198 
	C108.665848,66.217102 109.406227,66.462006 110.286034,66.753021 
	C111.174988,63.176880 112.038826,59.701756 112.902664,56.226631 
	C113.325623,56.289310 113.748581,56.351990 114.171539,56.414669 
	C114.171539,59.575676 114.171539,62.736679 114.171539,66.955254 
	C115.881378,64.840508 116.853828,63.637772 117.826279,62.435036 
	C118.443565,62.851707 119.060852,63.268383 119.678131,63.685059 
	C117.660744,66.804794 115.643356,69.924538 113.625969,73.044273 
	C116.633759,70.555687 122.433434,72.295242 123.162788,66.552414 
	C123.215179,66.139893 124.780716,65.919540 125.642700,65.609833 
	C125.891678,66.944374 126.140663,68.278915 126.352112,70.223724 
	C126.265724,71.413826 126.216850,71.993668 126.167984,72.573502 
	C126.460564,72.435448 126.753143,72.297394 127.045723,72.159340 
	C127.480385,72.062218 127.915054,71.965096 128.681580,71.906174 
	C128.956741,72.955460 129.181259,74.716217 128.799088,74.859581 
	C125.611237,76.055367 125.783218,78.571632 125.819214,81.665810 
	C125.809402,82.452690 125.939911,82.737839 126.070419,83.022980 
	C126.038544,83.770554 126.006668,84.518120 125.455994,85.614716 
	C124.384758,85.948502 123.832329,85.933258 123.175140,85.557716 
	C123.174194,83.732048 123.278000,82.266678 123.548813,80.477097 
	C123.548103,79.583649 123.380402,79.014404 123.212708,78.445175 
	C122.807770,78.632339 122.402832,78.819504 121.678780,79.121277 
	C119.550125,80.561684 117.740585,81.887505 115.349686,83.639267 
	C120.863892,87.320213 125.789436,90.608192 130.442780,94.040070 
	C129.222031,94.528831 127.991417,95.437157 127.371010,95.126572 
	C123.520119,93.198746 119.806183,90.997353 115.974319,88.593048 
	C115.269958,87.880569 114.638069,87.461792 113.710518,86.966766 
	C113.368027,87.264801 113.321198,87.639091 113.232719,88.371857 
	C113.413612,89.599274 113.636154,90.468231 113.876808,91.687531 
	C111.193840,96.802773 116.329979,96.211899 117.974281,98.007263 
	C118.002098,98.762672 118.029915,99.518089 118.076431,100.970901 
	C118.347771,102.007500 118.600388,102.346695 118.853012,102.685898 
	C118.853012,102.685898 118.698059,102.832741 118.712135,102.938553 
M123.691109,73.544090 
	C123.558975,72.878227 123.426849,72.212364 123.294716,71.546501 
	C122.522209,72.055038 121.749695,72.563583 120.319321,73.264259 
	C118.015762,75.484619 113.399643,75.529678 114.306526,80.988510 
	C117.282806,78.625900 120.259087,76.263283 123.691109,73.544090 
z"/>
<path fill="#D9D9D9" opacity="1.000000" stroke="none" 
	d="
M89.884918,136.327393 
	C90.197708,132.273895 87.594727,128.291260 91.694237,125.098747 
	C91.861877,126.842514 92.029526,128.586288 92.197166,130.330063 
	C92.429825,130.411316 92.662476,130.492554 92.895134,130.573792 
	C93.451645,128.795410 94.008163,127.017029 95.029617,123.752907 
	C95.915581,126.198219 96.402931,127.543312 97.047928,129.323547 
	C97.733589,127.972893 98.276268,126.903900 99.018692,125.441429 
	C100.648453,130.528458 98.437202,134.477600 92.680984,137.555939 
	C91.343079,140.159180 94.944107,144.053986 89.909065,147.158737 
	C89.909065,142.945251 89.909065,139.866516 89.884918,136.327393 
z"/>
<path fill="#D9D9D9" opacity="1.000000" stroke="none" 
	d="
M113.942307,137.134567 
	C112.529007,137.745193 111.115707,138.355820 109.489311,139.058517 
	C109.489311,141.087265 109.489311,143.344849 109.489311,145.602417 
	C109.042984,145.745956 108.596664,145.889481 108.150337,146.033020 
	C107.696167,144.656570 106.782455,143.244522 106.885773,141.911270 
	C107.086128,139.325760 105.840324,138.505875 103.776901,137.511414 
	C103.033432,137.153091 103.341805,134.612320 103.099594,132.432358 
	C103.406464,132.400681 104.660851,132.271179 105.996567,132.133286 
	C105.996567,129.978104 105.996567,127.695717 105.996567,125.395844 
	C108.664001,125.838051 108.664001,125.838051 109.097443,131.750763 
	C110.243042,132.401291 114.391838,131.099472 111.226593,134.788559 
	C111.880112,135.325745 112.533623,135.862930 113.621323,136.575882 
	C114.055504,136.751648 113.942307,137.134567 113.942307,137.134567 
z"/>
<path fill="#0B0B0B" opacity="1.000000" stroke="none" 
	d="
M189.987534,164.638519 
	C175.301010,165.342697 160.618698,165.671600 145.467575,165.999329 
	C146.446167,165.332169 147.881943,164.120956 149.342834,164.089874 
	C157.924591,163.907288 166.517365,164.178345 175.095795,163.929718 
	C179.854065,163.791809 184.591644,162.940750 189.696060,162.371246 
	C189.699829,162.395294 189.845779,163.329269 189.987534,164.638519 
z"/>
<path fill="#CFCFCF" opacity="1.000000" stroke="none" 
	d="
M147.253082,145.721619 
	C147.760559,143.497238 148.406693,141.509659 149.340500,139.667908 
	C150.429840,137.519424 151.770538,135.498383 153.180939,133.120682 
	C155.550888,136.803329 158.181427,140.890900 160.811981,144.978485 
	C160.169327,145.422394 159.526672,145.866287 158.884018,146.310196 
	C157.756851,144.595901 156.629684,142.881607 155.097946,140.552017 
	C155.097946,142.740051 155.097946,144.177368 155.097946,145.614685 
	C154.664093,145.851761 154.230240,146.088821 153.796387,146.325897 
	C153.051971,144.829468 152.307556,143.333038 151.282379,141.272263 
	C150.859482,142.231537 150.566696,143.383942 149.903122,144.253311 
	C149.326065,145.009323 148.329895,145.445435 147.253082,145.721619 
z"/>
<path fill="#D9D9D9" opacity="1.000000" stroke="none" 
	d="
M73.038574,130.428467 
	C73.542267,131.241577 73.986900,131.776779 74.554382,132.000854 
	C75.281029,132.287796 76.106621,132.324173 75.641212,132.238373 
	C74.751877,137.151489 73.954369,141.557327 73.156853,145.963181 
	C72.808823,146.095825 72.460793,146.228485 72.112770,146.361130 
	C71.600723,143.932266 71.088676,141.503403 70.486641,138.647690 
	C69.855698,138.478607 68.716568,138.173340 66.246964,137.511520 
	C73.580582,134.510941 68.598328,129.249039 70.241753,125.420021 
	C73.001991,125.679214 73.001991,125.679214 73.038574,130.428467 
z"/>
<path fill="#EBEBEB" opacity="1.000000" stroke="none" 
	d="
M134.153152,128.346191 
	C138.449661,131.973251 140.767044,130.969849 142.420059,125.200668 
	C144.779083,126.803802 145.171982,130.349823 142.323471,131.915161 
	C138.338928,134.104797 138.891922,137.156158 139.071304,140.478241 
	C139.112518,141.241714 139.008408,142.013046 138.974152,142.719513 
	C136.603455,137.253662 134.255371,131.839951 131.907288,126.426254 
	C132.196594,126.249565 132.485901,126.072876 132.775208,125.896194 
	C133.197403,126.584267 133.619614,127.272339 134.153152,128.346191 
z"/>
<path fill="#E0E0E0" opacity="1.000000" stroke="none" 
	d="
M129.017090,145.631012 
	C125.755035,146.812714 125.960228,144.859116 125.973145,142.932236 
	C126.011772,137.171066 125.987038,131.409470 125.987038,124.366005 
	C127.034348,125.617310 128.293076,126.421181 128.361221,127.315750 
	C128.817963,133.311081 129.021332,139.325714 129.017090,145.631012 
z"/>
<path fill="#EBEBEB" opacity="1.000000" stroke="none" 
	d="
M114.125626,137.498749 
	C113.942307,137.134567 114.055504,136.751648 114.041916,136.552460 
	C119.529190,133.774811 114.911674,128.978012 116.442787,125.524475 
	C118.351929,125.713318 117.927322,125.832802 119.291351,130.680115 
	C120.016556,133.257248 120.306839,135.161209 119.386551,137.770294 
	C118.577599,140.063736 119.217476,142.868210 118.605820,146.132965 
	C118.077042,145.004471 117.364822,143.922897 117.061340,142.736755 
	C116.573769,140.831100 118.329468,137.761398 114.125626,137.498749 
z"/>
<path fill="#EBEBEB" opacity="1.000000" stroke="none" 
	d="
M82.749878,141.414597 
	C83.142899,143.090500 83.283386,144.371048 83.423874,145.651596 
	C83.023315,145.915070 82.622757,146.178543 82.222191,146.442017 
	C81.558945,145.550217 80.346649,144.673798 80.321182,143.764130 
	C80.150497,137.669479 80.232452,131.567764 80.232452,124.472336 
	C82.387939,126.206062 84.483665,127.891716 86.579384,129.577377 
	C86.329002,130.018219 86.078613,130.459061 85.828224,130.899902 
	C84.757202,130.616089 83.686180,130.332291 82.497353,130.017273 
	C82.497353,133.676468 82.497353,137.347855 82.749878,141.414597 
z"/>
<path fill="#CFCFCF" opacity="1.000000" stroke="none" 
	d="
M138.103668,164.526520 
	C137.541992,164.947815 137.120453,164.995071 136.381348,165.011108 
	C136.063812,160.411835 136.063812,155.843750 136.063812,150.122223 
	C138.384842,152.022049 139.937149,153.292664 141.489471,154.563293 
	C141.064453,154.696564 140.639435,154.829849 140.214417,154.963120 
	C140.575424,157.851974 140.936447,160.740829 141.315704,163.775696 
	C140.727661,163.847824 139.485733,164.000153 138.103668,164.526520 
z"/>
<path fill="#EBEBEB" opacity="1.000000" stroke="none" 
	d="
M119.310883,164.487411 
	C118.558838,164.497849 118.157341,164.417725 117.141380,164.263489 
	C116.300430,162.807098 116.073952,161.424805 115.924759,159.663925 
	C115.954880,158.517685 115.907722,157.750046 115.860565,156.982407 
	C115.952248,155.185455 116.043930,153.388504 116.144905,151.409515 
	C117.746437,151.409515 119.232986,151.409515 119.440834,151.409515 
	C119.338959,153.551971 119.268837,155.278183 119.165520,157.002396 
	C119.142921,157.379562 119.077095,157.789520 118.903427,158.116531 
	C117.701447,160.379868 117.199974,162.366699 120.625771,162.980377 
	C120.304329,163.452545 119.982887,163.924698 119.310883,164.487411 
z"/>
<path fill="#CFCFCF" opacity="1.000000" stroke="none" 
	d="
M129.147964,161.598419 
	C129.038437,162.734848 128.868591,163.480103 128.342651,164.385681 
	C127.548935,160.784256 127.111282,157.022461 126.673630,153.260681 
	C127.067299,153.041931 127.460960,152.823196 127.854630,152.604446 
	C128.930893,153.465759 130.007141,154.327072 130.918900,155.700470 
	C130.754395,156.212570 130.847107,156.611450 130.847107,156.611450 
	C130.240372,156.664444 129.110397,156.685593 129.104935,156.775208 
	C129.015274,158.247437 129.067383,159.728302 129.147964,161.598419 
z"/>
<path fill="#1D1D1D" opacity="1.000000" stroke="none" 
	d="
M115.451904,156.989761 
	C115.907722,157.750046 115.954880,158.517685 115.683395,159.923157 
	C114.600639,162.109955 113.836533,163.658905 113.072433,165.207855 
	C112.886963,165.170074 112.701492,165.132294 112.235924,165.045258 
	C113.112892,162.379105 109.176476,157.796204 115.451904,156.989761 
z"/>
<path fill="#CFCFCF" opacity="1.000000" stroke="none" 
	d="
M110.183060,163.726974 
	C109.721146,164.127167 109.237007,164.213165 108.390198,164.145721 
	C108.027519,162.561478 108.027519,161.130707 108.027519,159.699921 
	C108.349495,159.597565 108.671463,159.495193 108.993439,159.392838 
	C109.382576,160.732819 109.771706,162.072800 110.183060,163.726974 
z"/>
<path fill="#101010" opacity="1.000000" stroke="none" 
	d="
M130.881531,156.978317 
	C130.847107,156.611450 130.754395,156.212570 130.929138,156.105804 
	C131.769363,156.954330 132.434860,157.909622 133.100357,158.864899 
	C132.686188,159.102722 132.272034,159.340530 131.857864,159.578354 
	C131.543884,158.833969 131.229919,158.089569 130.881531,156.978317 
z"/>
<path fill="#0B0B0B" opacity="1.000000" stroke="none" 
	d="
M139.002960,168.655457 
	C138.501755,168.127457 137.997559,167.264938 137.745117,166.201538 
	C137.996887,166.000671 138.000000,166.000000 138.110138,166.214386 
	C138.414139,166.696304 138.668259,166.880859 138.982635,166.982452 
	C138.988419,167.428604 138.994186,167.874756 139.002960,168.655457 
z"/>
<path fill="#0B0B0B" opacity="1.000000" stroke="none" 
	d="
M118.000305,110.999695 
	C117.495888,110.700325 116.991470,110.400955 116.487061,110.101585 
	C116.665817,109.894669 116.844574,109.687744 117.023323,109.480820 
	C117.324692,109.799980 117.626060,110.119148 117.963715,110.719162 
	C118.000000,111.000000 118.000305,110.999695 118.000305,110.999695 
z"/>
<path fill="#0B0B0B" opacity="1.000000" stroke="none" 
	d="
M117.999847,111.000153 
	C118.503609,111.299500 119.007523,111.598694 119.511436,111.897888 
	C119.333366,112.104141 119.155289,112.310394 118.977211,112.516647 
	C118.676155,112.197906 118.375107,111.879158 118.037186,111.280052 
	C118.000305,110.999695 118.000000,111.000000 117.999847,111.000153 
z"/>
<path fill="#101010" opacity="1.000000" stroke="none" 
	d="
M90.782921,165.104431 
	C90.895493,165.313232 90.707649,165.574554 90.219116,165.887817 
	C90.106674,165.678848 90.294708,165.417923 90.782921,165.104431 
z"/>
<path fill="#101010" opacity="1.000000" stroke="none" 
	d="
M138.874680,166.769363 
	C138.668259,166.880859 138.414139,166.696304 138.111084,166.216217 
	C138.316299,166.105576 138.571243,166.289780 138.874680,166.769363 
z"/>
<path fill="#0B0B0B" opacity="1.000000" stroke="none" 
	d="
M107.527817,111.544556 
	C107.477058,111.573761 107.578568,111.515350 107.527817,111.544556 
z"/>
<path fill="#070707" opacity="1.000000" stroke="none" 
	d="
M41.002502,72.002510 
	C40.252773,72.001953 39.503040,72.001396 38.378563,72.003319 
	C37.282932,68.582314 39.640472,67.224442 42.163876,67.223534 
	C57.522793,67.217987 72.881813,67.489075 88.734528,68.055389 
	C89.430435,68.714088 89.689697,68.909569 90.006027,69.029366 
	C90.005531,69.767426 90.005035,70.505486 90.005219,71.611954 
	C89.690170,72.102226 89.431534,72.299095 89.117073,72.789909 
	C74.313919,73.005394 59.623680,73.001945 44.418068,72.677765 
	C42.935963,72.238853 41.969234,72.120682 41.002502,72.002510 
z"/>
<path fill="#0B0B0B" opacity="1.000000" stroke="none" 
	d="
M187.001221,72.598068 
	C186.680969,73.103493 186.420395,73.291794 185.693359,73.725220 
	C184.046738,73.597794 182.927307,73.060257 181.805557,73.055382 
	C167.831467,72.994530 153.856689,72.971535 139.883438,73.093460 
	C138.916824,73.101898 137.960907,74.337631 137.000000,75.002625 
	C136.037186,74.566032 135.074356,74.129440 134.198029,73.055496 
	C134.853989,71.275475 135.423447,70.132805 135.992889,68.990135 
	C135.992889,68.990135 136.000000,69.000000 136.464691,68.999222 
	C153.619370,68.999161 170.309387,68.999886 186.999390,69.000610 
	C187.000000,70.066544 187.000610,71.132477 187.001221,72.598068 
z"/>
<path fill="#070707" opacity="1.000000" stroke="none" 
	d="
M187.145065,68.667755 
	C170.309387,68.999886 153.619370,68.999161 136.459564,68.995468 
	C135.989914,68.553902 135.990051,68.115326 135.989166,67.348099 
	C137.715958,66.679634 139.441849,66.056984 141.171875,66.045280 
	C153.665817,65.960831 166.160706,66.025566 178.655014,65.975433 
	C180.795822,65.966835 182.970947,65.818001 185.066956,65.409386 
	C188.073303,64.823296 188.311127,66.022293 187.145065,68.667755 
z"/>
<path fill="#121212" opacity="1.000000" stroke="none" 
	d="
M108.846741,67.989128 
	C109.636963,69.778343 110.427185,71.567551 111.812958,74.705223 
	C108.279961,72.740814 105.929070,71.433685 103.417320,70.037102 
	C103.031776,70.724541 102.555626,71.573532 102.081299,72.419266 
	C103.835190,73.434814 105.514610,74.407242 107.194023,75.379662 
	C107.245255,75.812347 107.296486,76.245026 107.347710,76.677704 
	C106.263359,76.780930 104.925385,77.340134 104.141083,76.903893 
	C101.543358,75.459030 99.145210,73.655350 96.321198,71.943817 
	C96.679436,67.390366 101.848175,69.384132 103.862091,66.289490 
	C104.000046,65.999947 103.997513,66.003914 103.997513,66.003914 
	C105.045013,65.985245 106.092522,65.966576 107.532745,65.960052 
	C108.110344,66.880440 108.295227,67.788681 108.686264,68.381355 
	C108.892426,68.065788 108.846741,67.989128 108.846741,67.989128 
z"/>
<path fill="#070707" opacity="1.000000" stroke="none" 
	d="
M132.953461,66.697006 
	C132.219650,67.665016 131.435684,68.310989 130.333405,68.990402 
	C130.327698,65.354378 130.712158,65.001770 132.953461,66.697006 
z"/>
<path fill="#121212" opacity="1.000000" stroke="none" 
	d="
M95.003555,68.995377 
	C94.491119,68.681129 93.978683,68.366875 93.466248,68.052628 
	C94.403481,67.534904 95.340714,67.017181 96.277939,66.499458 
	C96.413002,66.744606 96.548065,66.989754 96.683128,67.234909 
	C96.224373,67.662834 95.765625,68.090767 95.153442,68.759354 
	C95.000000,69.000000 95.003555,68.995377 95.003555,68.995377 
z"/>
<path fill="#121212" opacity="1.000000" stroke="none" 
	d="
M104.002213,65.997803 
	C103.361473,65.959862 102.718567,65.924065 102.075668,65.888275 
	C102.078033,65.733673 102.080391,65.579079 102.082756,65.424477 
	C102.609985,65.462311 103.137215,65.500137 103.830978,65.770943 
	C103.997513,66.003914 104.000046,65.999947 104.002213,65.997803 
z"/>
<path fill="#141414" opacity="1.000000" stroke="none" 
	d="
M126.994431,71.703377 
	C126.753143,72.297394 126.460564,72.435448 126.167984,72.573502 
	C126.216850,71.993668 126.265724,71.413826 126.520439,70.594864 
	C126.798576,70.652962 126.870857,70.950188 126.994431,71.703377 
z"/>
<path fill="#121212" opacity="1.000000" stroke="none" 
	d="
M90.156464,68.874611 
	C89.689697,68.909569 89.430435,68.714088 89.118057,68.223236 
	C89.440887,68.242317 89.873894,68.481087 90.156464,68.874611 
z"/>
<path fill="#121212" opacity="1.000000" stroke="none" 
	d="
M94.997681,69.001785 
	C95.112137,69.137436 95.228905,69.271309 95.345673,69.405182 
	C95.265778,69.356789 95.185883,69.308395 95.054771,69.127686 
	C95.003555,68.995377 95.000000,69.000000 94.997681,69.001785 
z"/>
<path fill="#121212" opacity="1.000000" stroke="none" 
	d="
M37.752892,73.007004 
	C37.730511,73.116081 37.461296,73.225922 37.102287,73.177094 
	C37.012493,73.018417 37.506054,73.007767 37.752892,73.007004 
z"/>
<path fill="#070707" opacity="1.000000" stroke="none" 
	d="
M112.999794,165.528168 
	C113.836533,163.658905 114.600639,162.109955 115.606110,160.301758 
	C116.073952,161.424805 116.300430,162.807098 116.840019,164.363953 
	C116.646164,165.521133 116.299431,166.648575 115.582626,167.441467 
	C114.985909,168.101532 113.954636,168.368729 113.115829,168.809921 
	C113.052940,167.822769 112.990051,166.835632 112.999794,165.528168 
z"/>
<path fill="#1D1D1D" opacity="1.000000" stroke="none" 
	d="
M123.381821,80.801300 
	C123.278000,82.266678 123.174194,83.732048 123.167259,85.832886 
	C124.100906,86.622231 124.937683,86.776115 125.774452,86.930008 
	C126.670685,86.418282 127.566917,85.906555 128.731186,85.204727 
	C129.526398,89.511215 133.098099,91.459496 137.037476,89.520897 
	C138.451340,88.825104 140.042526,88.079353 141.558868,88.066414 
	C154.814941,87.953232 168.072556,87.970764 181.329254,88.040192 
	C182.943726,88.048645 184.555405,88.592926 186.582977,88.945099 
	C186.999542,89.168159 187.001526,89.335014 187.007919,89.752151 
	C187.008682,90.752022 187.005051,91.501610 187.002136,92.626053 
	C187.002838,93.000916 187.000000,92.999695 186.575256,92.988518 
	C183.220230,92.651558 180.292374,92.072937 177.359207,92.044701 
	C165.957794,91.934944 154.550735,92.171524 143.154373,91.907600 
	C139.128342,91.814369 136.496735,92.621048 136.000320,96.989777 
	C135.555862,96.993622 135.111404,96.997475 134.193008,96.685272 
	C132.717712,95.544876 131.716339,94.720528 130.714981,93.896179 
	C125.789436,90.608192 120.863892,87.320213 115.349686,83.639267 
	C117.740585,81.887505 119.550125,80.561684 121.785690,79.389977 
	C122.601753,79.963158 122.991783,80.382233 123.381821,80.801300 
z"/>
<path fill="#0F0F0F" opacity="1.000000" stroke="none" 
	d="
M137.095947,75.396408 
	C137.960907,74.337631 138.916824,73.101898 139.883438,73.093460 
	C153.856689,72.971535 167.831467,72.994530 181.805557,73.055382 
	C182.927307,73.060257 184.046738,73.597794 185.581833,73.942474 
	C185.195938,74.990395 184.401978,76.843414 183.594025,76.849533 
	C168.471848,76.964226 153.347946,76.866364 138.224808,76.758980 
	C137.878220,76.756516 137.536087,76.127136 137.095947,75.396408 
z"/>
<path fill="#070707" opacity="1.000000" stroke="none" 
	d="
M135.654541,69.026733 
	C135.423447,70.132805 134.853989,71.275475 134.140869,72.712906 
	C131.731140,71.413506 131.846710,71.067909 135.654541,69.026733 
z"/>
<path fill="#E0E0E0" opacity="1.000000" stroke="none" 
	d="
M125.804382,86.693359 
	C124.937683,86.776115 124.100906,86.622231 123.272018,86.193176 
	C123.832329,85.933258 124.384758,85.948502 125.351547,85.974167 
	C125.765900,85.984596 125.834320,86.456718 125.804382,86.693359 
z"/>
<path fill="#E0E0E0" opacity="1.000000" stroke="none" 
	d="
M126.316223,82.954590 
	C125.939911,82.737839 125.809402,82.452690 125.856476,82.077797 
	C126.210045,82.287430 126.386032,82.586815 126.316223,82.954590 
z"/>
<path fill="#1D1D1D" opacity="1.000000" stroke="none" 
	d="
M97.816177,84.992012 
	C99.291748,89.138611 96.660065,91.610306 94.086349,94.470581 
	C93.380692,95.191589 92.658928,95.909325 91.996536,95.858162 
	C84.878090,95.308479 77.780464,94.392693 70.654572,94.059280 
	C60.916489,93.603668 51.149445,93.240891 41.414619,93.522652 
	C37.936527,93.623322 37.757378,91.848465 37.043194,89.363495 
	C37.752167,86.391991 38.500755,83.780792 39.633923,81.490150 
	C40.283714,85.637138 43.177547,84.981270 45.573742,84.984833 
	C62.987854,85.010735 80.402023,84.994751 97.816177,84.992012 
z"/>
<path fill="#101010" opacity="1.000000" stroke="none" 
	d="
M97.340752,102.005417 
	C98.167046,102.341644 98.537567,102.676270 98.818115,103.330978 
	C98.152184,104.100456 97.576218,104.549858 97.000244,104.999252 
	C95.272186,105.333138 93.545753,105.946503 91.815804,105.956619 
	C78.173553,106.036354 64.530472,105.966919 50.888065,106.032196 
	C48.425735,106.043968 45.954941,106.700012 43.508617,106.592163 
	C42.345821,106.540916 41.231384,105.392700 40.047516,104.370934 
	C41.885395,103.333412 43.765884,102.103699 45.656948,102.087234 
	C62.731907,101.938515 79.808716,102.002319 97.340752,102.005417 
z"/>
<path fill="#171717" opacity="1.000000" stroke="none" 
	d="
M108.284866,96.569489 
	C109.098671,97.507828 109.912483,98.446167 110.657814,99.706711 
	C105.960533,98.937218 107.712982,104.083336 105.210312,104.835999 
	C104.542297,101.741661 104.105042,99.106865 103.660652,96.429092 
	C103.082443,96.564301 102.137924,96.785179 101.193405,97.006050 
	C101.145493,96.563362 101.097572,96.120682 101.417862,95.336205 
	C104.730576,92.308350 106.706360,93.619347 108.284866,96.569489 
z"/>
<path fill="#101010" opacity="1.000000" stroke="none" 
	d="
M101.114281,97.374878 
	C102.137924,96.785179 103.082443,96.564301 103.660652,96.429092 
	C104.105042,99.106865 104.542297,101.741661 104.976517,104.696289 
	C104.973488,105.016121 104.487099,105.004913 104.197662,104.675995 
	C102.670609,103.562317 101.432999,102.777557 100.195381,101.992790 
	C100.475311,100.576424 100.755234,99.160065 101.114281,97.374878 
z"/>
<path fill="#171717" opacity="1.000000" stroke="none" 
	d="
M100.126411,102.101471 
	C101.432999,102.777557 102.670609,103.562317 103.954422,104.673843 
	C101.918007,105.000885 99.835396,105.001160 97.376526,105.000351 
	C97.576218,104.549858 98.152184,104.100456 99.211700,103.385223 
	C99.815987,102.816307 99.936714,102.513229 100.126411,102.101471 
z"/>
<path fill="#141414" opacity="1.000000" stroke="none" 
	d="
M97.881393,84.649818 
	C80.402023,84.994751 62.987854,85.010735 45.573742,84.984833 
	C43.177547,84.981270 40.283714,85.637138 40.009529,81.405167 
	C41.759541,80.666428 43.517139,80.052711 45.277733,80.043999 
	C60.664440,79.967842 76.051903,79.960480 91.438515,80.045769 
	C93.542107,80.057434 95.642250,80.690895 98.208405,81.121338 
	C98.430748,82.240021 98.188675,83.273827 97.881393,84.649818 
z"/>
<path fill="#101010" opacity="1.000000" stroke="none" 
	d="
M102.869682,80.054779 
	C105.261536,81.118195 107.291458,82.333069 109.454552,83.627625 
	C106.797386,85.324982 104.096855,87.050034 101.319626,88.824081 
	C100.857010,86.326202 100.438713,84.067589 99.780914,81.481552 
	C100.530197,80.838150 101.518982,80.522186 102.869682,80.054779 
z"/>
<path fill="#121212" opacity="1.000000" stroke="none" 
	d="
M121.001625,106.002113 
	C120.910828,106.037666 120.818405,106.071106 120.860886,106.050674 
	C120.995789,105.996788 121.000000,106.000000 121.001625,106.002113 
z"/>
<path fill="#1A1A1A" opacity="1.000000" stroke="none" 
	d="
M136.297119,97.284103 
	C136.496735,92.621048 139.128342,91.814369 143.154373,91.907600 
	C154.550735,92.171524 165.957794,91.934944 177.359207,92.044701 
	C180.292374,92.072937 183.220230,92.651558 186.572815,92.987297 
	C186.912750,94.446976 186.830399,95.896706 186.710846,98.000916 
	C183.507126,98.000916 180.585678,98.024902 177.664749,97.996826 
	C163.974396,97.865219 150.284180,97.719269 136.297119,97.284103 
z"/>
<path fill="#1A1A1A" opacity="1.000000" stroke="none" 
	d="
M130.442780,94.040070 
	C131.716339,94.720528 132.717712,95.544876 133.859650,96.686485 
	C128.916306,97.369576 123.832367,97.735390 118.361359,98.054237 
	C116.329979,96.211899 111.193840,96.802773 114.030533,91.390869 
	C114.793030,90.124825 115.419914,89.505783 116.046799,88.886742 
	C119.806183,90.997353 123.520119,93.198746 127.371010,95.126572 
	C127.991417,95.437157 129.222031,94.528831 130.442780,94.040070 
z"/>
<path fill="#0B0B0B" opacity="1.000000" stroke="none" 
	d="
M118.826447,102.374374 
	C118.600388,102.346695 118.347771,102.007500 118.134270,101.345200 
	C118.382225,101.369011 118.591049,101.715927 118.826447,102.374374 
z"/>
<path fill="#121212" opacity="1.000000" stroke="none" 
	d="
M41.212021,72.259583 
	C41.969234,72.120682 42.935963,72.238853 43.949135,72.678665 
	C43.137562,72.839088 42.279552,72.677864 41.212021,72.259583 
z"/>
<path fill="#292929" opacity="1.000000" stroke="none" 
	d="
M123.235367,73.900665 
	C120.259087,76.263283 117.282806,78.625900 114.306526,80.988510 
	C113.399643,75.529678 118.015762,75.484619 120.820251,73.440918 
	C121.959236,73.711937 122.597305,73.806305 123.235367,73.900665 
z"/>
<path fill="#292929" opacity="1.000000" stroke="none" 
	d="
M108.308990,96.527512 
	C106.706360,93.619347 104.730576,92.308350 101.483086,95.006866 
	C100.058533,91.733856 102.798637,91.169197 105.409317,89.981796 
	C106.739044,90.294991 107.364098,90.643280 107.850945,91.047562 
	C107.811340,91.072678 107.909950,91.041779 108.401993,91.027237 
	C109.319679,91.073677 109.843925,91.103752 110.368172,91.133827 
	C110.370583,92.328506 110.373001,93.523178 109.717400,94.984085 
	C108.812920,95.630074 108.566452,96.009834 108.319984,96.389587 
	C108.319984,96.389587 108.333107,96.485527 108.308990,96.527512 
z"/>
<path fill="#171717" opacity="1.000000" stroke="none" 
	d="
M107.989159,90.991562 
	C107.364098,90.643280 106.739044,90.294991 105.740143,89.926743 
	C107.218475,89.072418 109.435059,84.930107 110.475960,90.807686 
	C109.843925,91.103752 109.319679,91.073677 108.397720,91.021828 
	C108.000000,91.000053 107.989159,90.991562 107.989159,90.991562 
z"/>
<path fill="#141414" opacity="1.000000" stroke="none" 
	d="
M115.974319,88.593048 
	C115.419914,89.505783 114.793030,90.124825 114.012421,91.040527 
	C113.636154,90.468231 113.413612,89.599274 113.415588,88.263336 
	C113.851242,87.588554 113.973267,87.337440 114.006180,87.043022 
	C114.638069,87.461792 115.269958,87.880569 115.974319,88.593048 
z"/>
<path fill="#E0E0E0" opacity="1.000000" stroke="none" 
	d="
M123.463242,73.722382 
	C122.597305,73.806305 121.959236,73.711937 121.149185,73.344849 
	C121.749695,72.563583 122.522209,72.055038 123.294716,71.546501 
	C123.426849,72.212364 123.558975,72.878227 123.463242,73.722382 
z"/>
<path fill="#E0E0E0" opacity="1.000000" stroke="none" 
	d="
M123.548813,80.477097 
	C122.991783,80.382233 122.601753,79.963158 122.104813,79.275375 
	C122.402832,78.819504 122.807770,78.632339 123.212708,78.445175 
	C123.380402,79.014404 123.548103,79.583649 123.548813,80.477097 
z"/>
<path fill="#040404" opacity="1.000000" stroke="none" 
	d="
M108.930542,68.088982 
	C109.272041,67.504608 109.575417,66.897049 109.878799,66.289490 
	C110.207840,66.514244 110.536880,66.738998 110.865921,66.963760 
	C110.484535,67.305847 110.103149,67.647934 109.284256,67.989578 
	C108.846741,67.989128 108.892426,68.065788 108.930542,68.088982 
z"/>
<path fill="#353535" opacity="1.000000" stroke="none" 
	d="
M113.710518,86.966766 
	C113.973267,87.337440 113.851242,87.588554 113.457230,87.904869 
	C113.321198,87.639091 113.368027,87.264801 113.710518,86.966766 
z"/>
<path fill="#171717" opacity="1.000000" stroke="none" 
	d="
M108.714844,96.442612 
	C108.566452,96.009834 108.812920,95.630074 109.420868,95.202728 
	C109.558128,95.601974 109.333923,96.048805 108.714844,96.442612 
z"/>
<path fill="#171717" opacity="1.000000" stroke="none" 
	d="
M108.004280,91.005463 
	C107.909950,91.041779 107.811340,91.072678 107.850945,91.047562 
	C107.989159,90.991562 108.000000,91.000053 108.004280,91.005463 
z"/>
</svg>