<svg version="1.1" id="Layer_1" xmlns="http://www.w3.org/2000/svg" xmlns:xlink="http://www.w3.org/1999/xlink" x="0px" y="0px"
	 width="100%" viewBox="0 0 192 192" enable-background="new 0 0 192 192" xml:space="preserve">
<path fill="#000000" opacity="1.000000" stroke="none" 
	d="
M193.000000,109.000000 
	C193.000000,124.354225 193.000000,139.708450 192.733582,155.331512 
	C182.757080,144.836868 177.922943,130.889755 169.273346,119.377548 
	C168.294983,120.201714 168.611832,120.850464 168.929611,121.412727 
	C176.209274,134.293488 183.489792,147.173859 190.832504,160.018661 
	C191.295013,160.827744 192.265717,161.346298 193.000000,162.000000 
	C193.000000,172.225647 193.000000,182.451294 193.000000,193.000000 
	C188.990219,193.000000 184.971771,193.000000 180.686234,192.889221 
	C183.967987,189.837341 182.533142,185.263763 183.967163,181.554382 
	C186.418015,175.214737 185.350830,168.329391 180.964478,163.232254 
	C175.776428,157.203537 167.993912,154.943085 160.488846,152.969452 
	C156.680801,151.968063 155.705856,156.592346 152.951355,157.926331 
	C152.652100,158.071243 152.358398,158.258850 152.040527,158.329437 
	C147.470825,159.344315 148.194244,161.853470 149.994553,164.945160 
	C152.671738,169.542709 155.172043,174.244171 157.700668,178.926758 
	C158.409103,180.238632 159.206436,181.675583 157.206665,182.691803 
	C155.421753,182.489410 154.572617,181.100784 154.003860,179.796631 
	C150.593002,171.975327 145.060333,165.413818 141.137924,157.897156 
	C139.916733,155.556946 138.514084,153.182602 136.687012,151.322327 
	C134.722107,149.321701 131.604614,148.557236 129.426605,150.357559 
	C127.456360,151.986160 129.562195,153.824051 130.872925,155.347610 
	C132.456467,154.499680 130.824631,151.659531 133.355133,151.622696 
	C135.075790,151.597672 136.124680,152.635620 136.883728,153.997864 
	C141.336075,161.988297 145.798279,169.973724 150.166077,178.010345 
	C150.949799,179.452362 152.307144,181.114563 149.725998,183.450043 
	C144.433487,175.081619 139.303818,166.970673 134.174149,158.859726 
	C136.231750,167.934967 142.477631,175.011230 145.363251,183.878540 
	C143.107513,184.080490 142.541931,182.866852 141.959885,181.968109 
	C138.231461,176.210831 132.934647,171.482208 130.733032,164.708008 
	C130.281418,163.318436 129.420212,161.963135 128.444946,160.859726 
	C124.279144,156.146591 124.190483,151.196686 126.811684,145.676910 
	C129.569519,139.869446 128.466568,137.221848 123.531937,137.067825 
	C112.703842,136.729874 102.052650,134.771133 91.306908,133.690323 
	C88.318115,133.389694 85.949432,134.143280 83.275085,135.412354 
	C78.410873,137.720581 76.319756,141.514145 75.003944,146.418732 
	C73.259125,152.922394 64.412064,158.820938 57.724262,157.804688 
	C65.860237,137.976288 78.965263,121.000877 87.806740,101.802116 
	C81.211990,110.231964 76.556030,119.865341 70.575569,128.639191 
	C64.687775,137.277100 61.260536,147.659073 52.656757,154.439194 
	C58.421005,140.358368 67.692986,128.167206 74.583359,113.762726 
	C71.827568,114.608070 71.295380,116.124321 70.567451,117.350761 
	C63.350708,129.509735 56.083206,141.641006 49.073166,153.918900 
	C46.683037,158.105148 42.350323,161.533646 43.473328,166.964737 
	C42.212250,168.021240 41.026741,168.003799 39.874706,167.841049 
	C32.135078,166.747726 26.373449,170.789337 23.529800,176.901642 
	C20.520569,183.369873 14.058912,186.167618 10.827095,191.958420 
	C11.500851,192.281387 12.250425,192.640701 13.000000,193.000000 
	C9.018709,193.000000 5.037417,193.000000 1.000000,193.000000 
	C1.000000,165.979126 1.000000,138.958221 1.304374,111.548096 
	C9.380281,113.179619 12.802251,106.799690 16.268192,102.416428 
	C21.917688,95.271713 25.631706,86.774406 28.855785,78.174522 
	C29.786516,75.691895 30.401075,72.541580 32.251049,71.048401 
	C39.992626,64.799881 42.683128,55.006149 49.285946,47.959778 
	C57.561333,39.128483 61.212360,27.215263 68.487869,17.651470 
	C69.638283,16.139236 69.939079,14.214467 69.435371,12.384796 
	C68.383575,8.564173 67.155602,4.792048 66.000000,1.000000 
	C81.020897,1.000000 96.041786,1.000000 111.619034,1.335470 
	C112.453079,2.272309 112.580002,3.040756 113.032166,3.448764 
	C116.852913,6.896417 118.301247,10.267430 115.717216,15.659683 
	C112.893127,21.552904 115.466988,27.865732 120.599236,30.705236 
	C116.384956,41.365379 109.164223,50.538010 104.739914,61.139042 
	C109.010727,56.243568 112.427094,50.822601 115.460464,45.156605 
	C117.346207,41.634251 119.016335,36.869431 123.169945,36.753193 
	C127.676323,36.627087 129.432495,41.593365 131.510468,45.144913 
	C142.428146,63.804680 153.299149,82.491776 164.239182,101.138405 
	C165.070282,102.554993 165.521164,104.535469 168.574173,105.038040 
	C154.580841,80.353264 140.959534,56.324780 127.338226,32.296295 
	C127.685181,32.058636 128.032135,31.820974 128.379089,31.583315 
	C131.521439,36.885128 135.614151,41.356789 139.823242,45.741558 
	C143.002960,49.053993 144.550232,54.310635 147.431381,56.796265 
	C152.076370,60.803612 154.794449,65.132011 157.389679,70.433205 
	C163.368042,82.644981 170.785492,93.941826 180.335571,103.889191 
	C184.161865,107.874672 188.041245,109.122978 193.000000,109.000000 
M23.566574,114.661827 
	C29.280968,108.003326 32.684555,99.994034 36.669846,92.320358 
	C31.326069,99.404701 26.361794,106.712036 22.609688,115.524895 
	C18.152807,120.399139 15.192275,126.124077 13.063208,132.322098 
	C16.738905,126.745827 21.652571,121.876129 23.566574,114.661827 
M147.129852,123.703156 
	C148.942825,131.064484 156.094009,136.589661 153.653290,145.629196 
	C157.645828,144.530457 159.526962,142.729492 157.760223,139.677109 
	C154.448532,133.955475 151.401932,128.025040 146.853165,122.290039 
	C142.404083,112.464439 136.592712,103.387413 131.242493,94.061821 
	C127.689056,87.868073 124.565247,81.377357 119.696159,75.977379 
	C122.783508,82.720116 126.081390,89.360596 130.042053,95.578934 
	C135.814621,104.642006 140.129639,114.608215 147.129852,123.703156 
M53.449829,63.355083 
	C49.550217,67.631378 47.247593,73.217087 42.170177,76.699081 
	C46.309669,64.744423 53.596497,54.498203 59.685047,43.648716 
	C65.839516,32.681767 72.404907,21.945436 78.790291,11.108082 
	C78.129341,10.722980 77.468391,10.337880 76.807442,9.952780 
	C52.670761,50.960499 28.534082,91.968216 4.397402,132.975937 
	C4.853320,133.257935 5.309238,133.539932 5.765156,133.821930 
	C8.421448,129.477951 11.113277,125.155220 13.727294,120.785942 
	C21.248077,108.215103 28.718208,95.613899 36.261070,83.056366 
	C37.319225,81.294716 38.399624,79.228439 41.064598,79.981506 
	C42.073189,83.048904 38.801517,84.878990 39.488636,88.978043 
	C44.862373,79.734558 50.686493,72.113342 54.512001,62.591042 
	C59.422348,56.283268 63.193634,49.325054 66.241592,41.949913 
	C61.341167,48.502098 56.424278,55.041248 53.449829,63.355083 
M111.055359,118.393181 
	C108.674095,115.178406 107.839722,110.810722 103.987930,108.648491 
	C105.678055,112.857193 107.906555,116.707375 110.115150,120.568924 
	C112.009827,123.881599 113.763718,127.281776 115.798546,130.505219 
	C117.650787,133.439438 120.709068,133.624725 123.248856,132.078156 
	C125.929039,130.446075 123.733330,128.306503 122.767303,126.497215 
	C121.907066,124.886070 120.999184,123.299072 120.072105,121.725113 
	C113.704323,110.914124 107.325974,100.109360 100.951027,89.302589 
	C106.509338,103.073982 115.200691,115.238617 120.412910,129.158051 
	C115.091980,127.550972 114.021400,122.664223 111.055359,118.393181 
M141.324677,70.133186 
	C137.087189,63.482544 134.313995,55.867241 128.895660,49.994537 
	C128.546967,50.213139 128.198273,50.431740 127.849586,50.650341 
	C140.542191,72.486397 153.234802,94.322449 165.927414,116.158493 
	C166.430923,115.869949 166.934448,115.581406 167.437958,115.292862 
	C158.850555,100.454781 150.263168,85.616707 141.324677,70.133186 
M136.013992,114.379265 
	C128.875488,102.012428 121.736969,89.645599 114.598457,77.278763 
	C114.082909,77.584213 113.567360,77.889671 113.051811,78.195122 
	C124.718079,98.418365 136.384338,118.641617 148.050598,138.864868 
	C148.604263,138.550705 149.157928,138.236542 149.711609,137.922379 
	C145.267334,130.287003 140.823059,122.651611 136.013992,114.379265 
M83.805603,27.761639 
	C89.162811,36.772175 93.888947,46.191433 100.485062,54.402245 
	C93.977203,42.644367 88.569359,30.211056 79.846451,19.058346 
	C74.726784,25.049070 71.357910,30.939672 68.988998,37.437298 
	C73.963234,33.308994 75.034264,26.336542 80.149323,22.395676 
	C82.193474,23.660067 82.467613,25.624636 83.805603,27.761639 
M83.037460,14.267398 
	C89.683800,26.446070 96.424713,38.568806 103.997818,50.359840 
	C104.310188,49.942741 104.517914,49.773064 104.487686,49.690506 
	C99.590286,36.313625 91.118561,24.914751 83.929977,12.811481 
	C83.244011,11.656538 82.632980,12.725069 83.037460,14.267398 
M26.123058,155.730209 
	C19.539474,165.176987 14.123856,175.279709 8.564053,185.717758 
	C9.597589,185.717758 10.091953,185.844559 10.191719,185.699646 
	C16.582247,176.418396 22.264284,166.711655 27.450912,156.713669 
	C27.854893,155.934952 27.974625,154.985825 26.123058,155.730209 
M185.825150,138.576416 
	C186.860641,139.860306 187.140854,141.858475 190.520721,142.962280 
	C183.262787,130.474335 176.686295,119.158875 170.109802,107.843414 
	C169.632767,108.122833 169.155746,108.402252 168.678711,108.681671 
	C174.270538,118.449837 179.862350,128.218002 185.825150,138.576416 
M14.969950,162.345276 
	C13.650938,164.751984 12.331926,167.158691 11.012915,169.565414 
	C15.990120,166.412079 17.850489,161.324066 20.640888,156.885773 
	C22.566927,153.822327 23.936056,150.221313 28.885706,151.345230 
	C25.644577,148.558441 22.999668,149.411453 20.967295,152.329132 
	C18.883781,155.320221 17.141985,158.549362 14.969950,162.345276 
M74.802437,61.272404 
	C72.343689,65.500237 69.503685,69.533813 68.285439,74.436790 
	C70.830299,71.238937 72.946327,67.782417 75.003555,64.291245 
	C79.119164,57.306934 79.103271,57.301476 84.495430,63.187107 
	C84.579422,63.278786 85.020172,63.043613 85.293701,62.958549 
	C82.378189,56.007896 80.116455,55.496975 74.802437,61.272404 
M122.375069,42.303032 
	C119.018585,47.533096 115.438423,52.642540 113.449890,58.634216 
	C117.285233,54.529053 119.079262,49.032261 122.660568,45.235500 
	C124.768585,44.544918 125.089539,47.348450 127.219002,46.530567 
	C126.029388,44.656433 126.065331,41.953297 122.375069,42.303032 
M83.460510,96.046165 
	C81.129234,99.991646 78.797951,103.937119 76.466667,107.882599 
	C82.499817,104.250061 82.351852,96.386665 88.713318,92.546097 
	C85.488617,91.774422 85.302391,94.576111 83.460510,96.046165 
M92.276772,89.497536 
	C95.261879,94.043831 97.077789,99.352592 101.279732,103.136185 
	C98.962250,98.115364 96.218826,93.343658 93.381241,88.628624 
	C93.022133,88.031921 92.242912,87.949669 92.276772,89.497536 
M40.288601,119.660103 
	C39.333965,121.438385 38.379326,123.216660 37.424690,124.994934 
	C42.057316,120.739059 44.897984,115.524269 46.568470,109.604919 
	C44.607224,112.760902 42.645977,115.916885 40.288601,119.660103 
M100.832588,76.126389 
	C99.901680,77.841774 101.075249,78.813675 102.135521,77.742271 
	C105.583603,74.258011 107.807625,69.909492 109.649963,65.416153 
	C105.806740,68.152740 105.152237,73.178383 100.832588,76.126389 
M73.357826,78.004166 
	C76.876122,76.048904 75.777939,68.918175 82.198387,70.168503 
	C81.790199,68.647263 81.227135,67.338509 78.990593,67.338051 
	C76.803482,70.693047 73.925598,73.802452 73.357826,78.004166 
M71.016479,140.543625 
	C70.454971,141.817215 69.275345,142.970032 70.224655,144.641327 
	C72.491394,144.720276 73.122971,142.895477 73.991508,141.426498 
	C74.406479,140.724640 74.692657,139.792404 73.837967,139.235214 
	C72.799255,138.558060 72.033775,139.301544 71.016479,140.543625 
M52.375095,99.751770 
	C52.241920,100.196793 52.108746,100.641815 51.975571,101.086838 
	C55.269150,97.144936 58.192146,93.015228 59.467705,87.912437 
	C57.204113,91.706459 54.940525,95.500481 52.375095,99.751770 
M9.631366,174.116898 
	C9.492374,173.852631 9.378865,173.568451 9.197948,173.336945 
	C9.147546,173.272446 8.809634,173.305374 8.752272,173.392029 
	C6.931301,176.142563 4.344300,178.510956 3.855381,182.833618 
	C6.648324,180.040161 8.537835,177.608505 9.631366,174.116898 
z"/>
</svg>