<svg version="1.1" id="Layer_1" xmlns="http://www.w3.org/2000/svg" xmlns:xlink="http://www.w3.org/1999/xlink" x="0px" y="0px"
	 width="100%" viewBox="0 0 225 225" enable-background="new 0 0 225 225" xml:space="preserve">
<path fill="#070707" opacity="1.000000" stroke="none" 
	d="
M118.314590,225.773560 
	C114.638710,226.000000 111.277428,226.000000 107.458069,226.000000 
	C101.390900,225.156509 96.769684,222.580933 92.772514,218.525696 
	C90.212715,215.928726 87.023804,213.996277 83.974289,211.965958 
	C75.552750,206.359039 69.535851,198.768219 65.363091,189.624863 
	C64.964447,188.751343 64.865417,187.649002 63.384712,186.991013 
	C61.958584,189.864624 61.412720,192.784409 61.923710,195.986633 
	C62.421539,199.106323 63.288429,202.194824 63.244911,205.370377 
	C63.184559,209.774353 60.313259,212.015228 56.304268,210.351883 
	C53.060432,209.005997 50.003887,208.902924 46.609814,209.216049 
	C27.834280,210.948318 13.494722,195.923035 17.133442,177.036270 
	C19.628576,164.085266 16.739553,153.227127 10.040620,142.449310 
	C0.436486,126.997337 1.558108,115.872650 14.249928,102.840714 
	C18.881462,98.085045 19.798565,93.276260 19.183962,87.059814 
	C17.689079,71.939758 19.795517,57.519142 29.284616,44.911327 
	C33.892326,38.789238 40.393139,35.484459 47.113941,32.516869 
	C50.086018,31.204542 52.428940,29.329674 54.699097,27.032799 
	C60.780182,20.880138 67.074875,14.906476 74.188148,9.942158 
	C81.718330,4.686892 90.162865,1.864256 99.686516,1.226228 
	C108.354233,1.000000 116.708466,1.000000 125.531349,1.000000 
	C146.025772,1.694718 159.442078,14.155844 172.501480,27.198084 
	C174.277878,28.972149 175.857559,30.894156 178.311523,31.784176 
	C199.924500,39.622925 207.297546,56.759228 208.370041,77.955421 
	C208.563553,81.779915 208.441193,85.607544 207.736389,89.409103 
	C206.817535,94.365257 208.048752,98.546173 212.083298,101.923279 
	C215.297745,104.613914 217.677795,108.119843 219.697754,111.762802 
	C223.723434,119.023010 224.344208,126.578415 221.150192,134.369553 
	C219.752197,137.779678 217.971817,140.958054 216.004807,144.063095 
	C209.898087,153.702881 207.196777,163.824051 209.697159,175.438828 
	C212.926376,190.439117 206.454468,201.867294 192.666336,207.641617 
	C189.194092,209.095764 185.606659,209.683151 181.915695,209.333527 
	C177.922104,208.955246 174.150238,208.793457 170.218811,210.467072 
	C166.571960,212.019562 163.802261,209.565552 163.766312,205.359009 
	C163.737823,202.022583 164.573151,198.753769 164.977875,195.449112 
	C165.349640,192.413452 164.998947,189.589096 163.492844,186.737137 
	C161.735962,188.112610 161.567947,190.057693 160.744904,191.621826 
	C156.894104,198.940002 152.085663,205.431549 145.283218,210.311478 
	C140.278214,213.901962 135.195465,217.380814 130.654221,221.596832 
	C127.314400,224.697464 123.125946,225.713364 118.314590,225.773560 
z"/>
<path fill="#FCFCFC" opacity="1.000000" stroke="none" 
	d="
M118.468658,226.000000 
	C137.403595,216.438889 154.811371,204.777939 162.871597,183.282669 
	C166.909897,187.473999 167.672394,192.294998 165.740402,201.285736 
	C165.427063,202.743851 164.867538,204.188599 164.811020,205.654541 
	C164.672256,209.254105 167.481949,211.216690 170.307358,209.060242 
	C173.603592,206.544510 176.560272,207.394516 180.056366,207.885712 
	C197.147476,210.286972 212.447250,194.196518 208.591202,177.277451 
	C205.642395,164.339035 208.125473,153.141403 215.384567,142.330841 
	C225.178894,127.744766 223.654770,115.119522 210.939819,103.117729 
	C207.133774,99.525169 205.342133,95.675667 206.028305,90.371918 
	C207.121994,81.918251 206.871689,73.463608 205.198853,65.045212 
	C202.045013,49.173931 192.905533,38.544186 177.681183,33.170097 
	C176.093063,32.609497 174.598434,32.214100 173.490326,30.766420 
	C168.488922,24.232323 161.749588,19.494318 155.745605,14.015668 
	C147.493942,6.486009 137.007523,3.748587 126.165451,1.363675 
	C158.134140,1.000000 190.268372,1.032666 222.402252,0.940714 
	C225.101181,0.932990 226.109619,1.128702 226.103561,4.395528 
	C225.968353,77.154953 225.962265,149.914780 226.116592,222.674133 
	C226.123947,226.142105 224.841949,226.044388 222.332626,226.040054 
	C187.867599,225.980652 153.402451,226.000000 118.468658,226.000000 
z"/>
<path fill="#FCFCFC" opacity="1.000000" stroke="none" 
	d="
M99.531342,1.000000 
	C97.571770,1.806286 95.192871,2.837854 92.707283,3.382264 
	C76.684944,6.891594 65.951370,18.171480 54.983570,29.047552 
	C53.070007,30.945114 51.335133,32.548214 48.664211,33.488895 
	C31.400969,39.568901 23.046938,52.527161 20.912737,70.151123 
	C20.046116,77.307594 20.194649,84.477783 21.054132,91.584633 
	C21.595623,96.062065 19.940624,99.275490 16.951126,102.182304 
	C15.876926,103.226784 14.796597,104.269119 13.783424,105.371574 
	C3.832386,116.199493 2.673180,127.903168 10.296410,140.466553 
	C10.813501,141.318710 11.360698,142.154587 11.930864,142.972260 
	C19.169426,153.353088 21.329084,164.512558 18.536917,177.039246 
	C14.395442,195.619431 30.948082,211.496109 49.588619,207.240829 
	C51.920490,206.708527 53.721313,207.037277 55.540333,208.528214 
	C56.982452,209.710251 58.613136,210.519852 60.552296,209.261032 
	C62.702316,207.865311 62.305016,205.871796 61.957363,203.896378 
	C61.439384,200.953171 60.643761,198.045395 60.323849,195.083923 
	C59.852779,190.723053 60.645241,186.612793 64.010582,182.549683 
	C71.195518,204.356491 88.916603,214.886765 106.859695,225.666855 
	C72.868118,226.000000 38.736156,225.970322 4.604496,226.057343 
	C1.924336,226.064163 0.888917,225.897568 0.895111,222.611282 
	C1.032236,149.852356 1.036992,77.093033 0.884887,4.334160 
	C0.877687,0.890392 2.127291,0.952192 4.659042,0.957431 
	C36.126820,1.022542 67.594772,1.000000 99.531342,1.000000 
z"/>
<path fill="#FAFAFA" opacity="1.000000" stroke="none" 
	d="
M156.735306,95.825714 
	C159.747162,93.772591 161.494690,93.641083 162.446686,97.537544 
	C163.630493,102.382698 165.006973,107.141785 165.085892,112.189751 
	C165.187454,118.686661 166.046646,125.117462 166.800262,131.570465 
	C168.197525,143.534607 166.122223,155.099655 161.620529,166.233322 
	C159.199448,172.221146 156.518921,178.108795 154.250900,184.152512 
	C151.730270,190.869400 147.735077,196.469498 142.320068,201.063782 
	C136.363419,206.117630 129.814255,210.403793 123.824974,215.453384 
	C118.720573,219.756927 108.335541,219.671555 103.194763,215.411926 
	C97.550591,210.735184 91.532600,206.587921 85.798973,202.057098 
	C79.535431,197.107529 75.016884,190.814575 72.318878,183.260895 
	C68.257286,171.889511 62.176716,161.213669 60.522190,149.012161 
	C60.432934,148.353928 60.184727,147.708237 60.161564,147.051376 
	C59.590851,130.865814 61.214180,114.856956 64.165550,98.967445 
	C64.840843,95.331848 65.638512,93.123322 70.507332,95.742523 
	C78.581352,100.085953 87.669380,101.907852 96.781532,102.934280 
	C99.509163,103.241539 100.745468,103.657967 101.051331,106.832100 
	C101.904274,115.683922 107.461533,121.965096 113.640984,121.843910 
	C119.676491,121.725548 125.003242,115.614838 125.922348,107.018967 
	C126.238220,104.064774 127.065361,103.235504 130.009598,102.932426 
	C139.130173,101.993553 147.957138,99.676102 156.735306,95.825714 
z"/>
<path fill="#F8F8F8" opacity="1.000000" stroke="none" 
	d="
M78.114685,54.732826 
	C80.623276,59.855949 83.421989,64.352272 86.881042,68.426918 
	C79.698700,73.112900 77.944435,72.928978 72.382622,66.605797 
	C67.632332,61.205238 65.188248,54.725849 64.049011,47.719372 
	C63.601555,44.967445 63.096565,41.882336 59.582607,42.357136 
	C55.747349,42.875355 56.185905,45.906273 56.718697,48.975517 
	C58.629528,59.983261 63.173187,69.461212 72.083931,76.531242 
	C64.513878,83.338463 64.541740,83.323265 59.726891,74.498016 
	C57.730942,70.839607 56.113777,67.049850 54.869003,63.068512 
	C50.865891,50.264790 54.188015,39.491886 63.822750,30.485260 
	C67.583588,26.969603 71.314781,23.376684 75.393585,20.255575 
	C86.014854,12.128141 97.852104,7.743226 111.506187,9.025528 
	C115.088608,9.361964 118.823204,8.255996 122.375389,8.704226 
	C134.980484,10.294789 146.598373,14.220995 155.602478,23.907194 
	C158.075516,26.567585 161.179321,28.630165 163.793701,31.172703 
	C173.113358,40.236229 176.088470,50.949757 172.036026,63.485058 
	C170.338287,68.736671 167.736526,73.514275 165.144302,78.349319 
	C163.217331,81.943527 161.464142,82.926773 158.440170,79.644180 
	C157.445709,78.564690 156.151260,77.761543 154.741516,76.629227 
	C164.138641,69.278267 168.492889,59.341423 170.588837,48.103542 
	C171.135864,45.170494 170.742935,42.897869 167.686325,42.338837 
	C164.767273,41.804958 163.595352,44.081085 163.209366,46.571987 
	C162.068253,53.936138 159.650864,60.752460 154.709244,66.456764 
	C149.049988,72.989456 147.798828,73.129967 140.102966,68.524162 
	C148.419388,58.785412 152.435104,47.068520 155.609665,34.956383 
	C156.309372,32.286724 156.487015,29.767710 153.202957,28.969969 
	C149.860184,28.157959 148.950058,30.691584 148.306320,33.250580 
	C145.822662,43.123547 142.578201,52.676281 136.465378,60.992092 
	C135.384933,62.461926 134.168137,63.850735 132.881393,65.144783 
	C131.323425,66.711563 129.265244,66.293884 127.802078,65.370941 
	C126.157272,64.333435 127.978500,63.007057 128.439972,62.005745 
	C134.758133,48.296509 133.730896,34.175297 130.917877,19.956949 
	C130.460968,17.647568 129.084244,15.826640 126.426392,16.428288 
	C123.935318,16.992182 123.141472,18.795618 123.640778,21.392588 
	C125.629852,31.738060 126.933624,42.118088 123.944489,52.511997 
	C123.349892,54.579571 122.753647,56.705032 121.744308,58.581150 
	C120.267494,61.326199 119.560898,64.441460 114.903450,64.503441 
	C109.846283,64.570755 106.977913,63.181328 105.032791,58.496868 
	C100.577660,47.767590 100.578247,36.817574 102.564690,25.663277 
	C102.826881,24.191008 103.022720,22.704643 103.344101,21.245693 
	C103.917206,18.644081 102.854218,16.881926 100.383308,16.378195 
	C98.028976,15.898229 96.552773,17.488028 96.123085,19.612272 
	C93.249252,33.819904 92.234436,47.939819 98.327553,61.711517 
	C98.828674,62.844154 100.947441,64.269196 99.104332,65.451340 
	C97.480362,66.492943 95.364365,66.480072 93.673065,64.683754 
	C90.214317,61.010262 87.508018,56.844460 85.315613,52.342594 
	C82.324867,46.201416 80.199875,39.741264 78.599838,33.109268 
	C77.957260,30.445856 76.877213,28.104033 73.615257,29.006483 
	C70.345245,29.911161 70.718124,32.533031 71.397430,35.127144 
	C73.120461,41.706875 75.149757,48.178585 78.114685,54.732826 
z"/>
<path fill="#F9F9F9" opacity="1.000000" stroke="none" 
	d="
M104.492722,89.603226 
	C102.784058,95.445076 99.516434,96.422211 94.024513,95.138077 
	C86.117706,93.289307 78.245903,91.639977 70.968346,87.673378 
	C93.225067,66.486732 132.614151,66.419342 156.082443,87.631699 
	C146.979202,92.633675 137.172058,94.536720 127.194000,95.903107 
	C125.281418,96.165016 125.115547,94.808235 124.616119,93.607079 
	C123.520660,90.972404 122.099869,88.551750 119.830986,86.723434 
	C114.853996,82.712898 109.908485,83.559540 104.492722,89.603226 
z"/>
<path fill="#F8F8F8" opacity="1.000000" stroke="none" 
	d="
M44.889835,197.895844 
	C46.554379,200.242218 45.648895,200.710281 43.599289,200.771423 
	C33.552036,201.071228 23.280712,190.416245 25.504333,180.680573 
	C29.238165,164.332779 26.185762,149.917053 16.624210,136.278564 
	C11.138102,128.453262 11.626868,121.850899 16.971384,113.255959 
	C19.558735,123.316978 25.380058,130.690201 32.749493,136.966766 
	C33.722984,137.795898 33.349247,138.674652 33.029827,139.653381 
	C29.310238,151.050613 33.889355,159.314148 42.943466,165.915802 
	C50.597370,171.496490 50.729610,171.613754 46.353931,180.226730 
	C43.483276,185.877243 40.903843,191.350311 44.889835,197.895844 
z"/>
<path fill="#F8F8F8" opacity="1.000000" stroke="none" 
	d="
M194.676788,152.136887 
	C195.383835,148.925476 195.857742,145.847061 194.832153,143.335648 
	C192.958740,138.748108 194.843628,136.291641 198.074509,133.336243 
	C203.758240,128.137146 208.042542,121.828308 209.604614,113.922325 
	C213.886887,117.991829 215.175812,123.601006 213.397003,129.714310 
	C212.505920,132.776718 211.074493,135.574097 209.237061,138.166031 
	C200.469498,150.533890 197.916931,163.993713 201.274826,178.851837 
	C203.998108,190.901962 193.670761,201.733017 180.672134,200.258469 
	C186.456070,193.107285 184.419739,186.263596 180.310684,179.474731 
	C179.547531,178.213852 179.176880,176.718460 178.595886,175.343658 
	C177.246368,172.150253 177.712372,169.853455 181.018799,167.885010 
	C187.104172,164.262192 192.268433,159.617706 194.676788,152.136887 
z"/>
<path fill="#F7F7F7" opacity="1.000000" stroke="none" 
	d="
M45.016010,65.332191 
	C45.527428,64.092209 45.960224,63.223808 46.654720,61.830311 
	C49.322727,71.351059 53.481991,79.600983 58.827930,87.268173 
	C59.360401,88.031845 60.025375,88.683296 59.509369,89.921432 
	C56.564625,96.987160 54.957066,104.413177 54.277252,111.796227 
	C42.642323,108.863731 44.117455,98.973755 42.713593,90.779297 
	C41.258289,82.284599 42.005264,73.868065 45.016010,65.332191 
z"/>
<path fill="#F7F7F7" opacity="1.000000" stroke="none" 
	d="
M178.132736,108.953064 
	C176.242905,110.020905 174.734009,111.010521 172.747253,112.313538 
	C172.158173,104.466637 170.515762,97.069016 167.573273,90.038658 
	C166.944992,88.537537 167.763519,87.797333 168.355240,86.952461 
	C173.628448,79.423416 177.680679,71.305389 180.399033,61.698311 
	C184.198853,69.705551 185.190704,77.478416 184.830307,85.434570 
	C184.521606,92.249825 183.267456,98.954231 181.499130,105.550484 
	C181.068771,107.155769 180.762329,108.893112 178.132736,108.953064 
z"/>
<path fill="#F8F8F8" opacity="1.000000" stroke="none" 
	d="
M188.680786,129.997818 
	C184.257950,125.703369 185.817108,120.316910 186.526443,116.052780 
	C187.869629,107.978279 190.833679,100.163910 191.702225,91.645416 
	C206.603928,102.686378 205.363831,121.776459 189.661331,130.711899 
	C189.542740,130.779373 189.183426,130.423828 188.680786,129.997818 
z"/>
<path fill="#F7F7F7" opacity="1.000000" stroke="none" 
	d="
M40.838661,126.135193 
	C39.772137,127.998573 38.716484,129.450394 37.659184,130.904480 
	C21.413439,118.652115 20.285536,103.629601 35.189018,91.566132 
	C36.178711,103.371895 41.705475,113.953461 40.838661,126.135193 
z"/>
<path fill="#F5F5F5" opacity="1.000000" stroke="none" 
	d="
M46.240921,47.056969 
	C45.791023,50.080490 43.658131,51.673687 42.358871,53.753532 
	C38.144138,60.500439 35.888268,67.894279 35.026871,75.713821 
	C34.283985,82.457512 34.416771,82.472137 28.512392,86.431831 
	C24.964340,67.332367 32.896709,48.338989 46.739037,42.798149 
	C47.283676,44.163246 46.549706,45.389599 46.240921,47.056969 
z"/>
<path fill="#F5F5F5" opacity="1.000000" stroke="none" 
	d="
M190.588501,50.470993 
	C198.972382,61.357864 199.697144,73.664024 198.976532,86.824005 
	C194.915329,84.348640 191.944351,82.197289 191.841125,76.736343 
	C191.669067,67.633415 188.661057,59.110176 183.196671,51.698631 
	C181.228104,49.028584 180.259537,46.229912 180.052353,42.624870 
	C184.474899,44.141960 187.500122,47.048450 190.588501,50.470993 
z"/>
<path fill="#F7F7F7" opacity="1.000000" stroke="none" 
	d="
M115.823700,112.915192 
	C113.149208,115.254944 111.634758,113.764603 110.311714,111.818573 
	C107.267914,107.341469 107.338020,98.687111 110.390938,94.204292 
	C112.462303,91.162743 114.707573,91.048439 116.512131,94.234390 
	C119.990791,100.376030 119.880424,106.577011 115.823700,112.915192 
z"/>
<path fill="#E9E9E9" opacity="1.000000" stroke="none" 
	d="
M186.677353,141.391388 
	C189.306458,150.205582 186.694702,155.724838 177.053925,161.091293 
	C180.577652,153.777847 182.797913,146.875473 184.453918,139.726990 
	C184.996796,137.383591 185.700119,140.612732 186.677353,141.391388 
z"/>
<path fill="#EBEBEB" opacity="1.000000" stroke="none" 
	d="
M48.232468,157.476349 
	C48.880856,158.622604 49.365173,159.444931 49.955574,160.447372 
	C41.016132,158.156097 35.056019,146.121841 42.502956,138.828781 
	C43.744576,145.267471 45.203308,151.438736 48.232468,157.476349 
z"/>
<path fill="#E9E9E9" opacity="1.000000" stroke="none" 
	d="
M174.735321,144.219528 
	C175.168549,139.589615 174.927994,135.042526 173.994476,130.671570 
	C172.885086,125.477188 174.768448,121.718315 178.959900,117.721146 
	C179.226974,126.779716 177.700027,134.964615 175.946991,143.529373 
	C175.650040,144.069595 175.398666,144.212875 174.735321,144.219528 
z"/>
<path fill="#EBEBEB" opacity="1.000000" stroke="none" 
	d="
M51.451874,144.145111 
	C49.299171,135.523468 47.901539,127.068207 47.959843,117.383804 
	C51.632526,121.459068 54.178577,124.581284 53.077679,129.744690 
	C52.149574,134.097641 51.685627,138.645752 52.536907,143.610596 
	C52.351536,144.157501 52.086384,144.255371 51.451874,144.145111 
z"/>
<path fill="#E9E9E9" opacity="1.000000" stroke="none" 
	d="
M171.536163,180.975616 
	C170.997589,180.646927 170.846695,180.347534 170.635910,180.098923 
	C165.574661,174.129471 165.545761,173.330734 170.612473,165.966339 
	C170.224258,170.459915 170.092010,174.917191 172.057007,179.468384 
	C172.407715,180.311493 172.355881,180.707382 171.536163,180.975616 
z"/>
<path fill="#E9E9E9" opacity="1.000000" stroke="none" 
	d="
M55.671040,178.118912 
	C56.519581,174.410721 56.947819,171.078949 56.569443,167.272537 
	C61.467705,172.754303 61.585392,174.768478 57.317551,178.828415 
	C56.441040,179.216949 55.952808,179.050247 55.671040,178.118912 
z"/>
<path fill="#DBDBDB" opacity="1.000000" stroke="none" 
	d="
M173.406815,182.858582 
	C175.589584,187.052856 179.367310,190.904190 174.204056,195.960831 
	C173.880630,191.567200 174.102356,187.538498 172.380234,183.448196 
	C172.485870,182.919876 172.749298,182.792953 173.406815,182.858582 
z"/>
<path fill="#DBDBDB" opacity="1.000000" stroke="none" 
	d="
M53.519604,184.712570 
	C53.361675,188.464066 53.046894,191.863022 52.708370,195.518326 
	C48.625637,192.184601 50.225979,188.715149 52.452972,185.021210 
	C52.949131,184.665985 53.155941,184.513000 53.519604,184.712570 
z"/>
<path fill="#B3B3B3" opacity="1.000000" stroke="none" 
	d="
M53.779850,184.724258 
	C53.676456,185.065109 53.176769,185.065933 52.959549,184.942444 
	C53.565117,182.597641 54.387909,180.376312 55.484825,177.928986 
	C55.985886,178.070038 56.212822,178.437073 56.744122,178.918579 
	C55.993401,180.816498 54.938324,182.599960 53.779850,184.724258 
z"/>
<path fill="#808080" opacity="1.000000" stroke="none" 
	d="
M174.159546,144.367310 
	C174.586487,144.057983 174.849609,144.033081 175.507080,143.967239 
	C175.513779,145.405060 175.126144,146.883820 174.693787,148.533173 
	C173.526901,147.186890 173.944077,145.893295 174.159546,144.367310 
z"/>
<path fill="#808080" opacity="1.000000" stroke="none" 
	d="
M51.022629,144.286835 
	C51.337574,143.965439 51.592625,143.993912 52.232185,144.041000 
	C53.376003,145.428665 53.264172,146.802216 52.550804,148.530258 
	C51.950783,147.059158 51.456760,145.847946 51.022629,144.286835 
z"/>
<path fill="#B3B3B3" opacity="1.000000" stroke="none" 
	d="
M173.746475,182.744232 
	C173.537811,183.057510 173.274719,183.063889 172.617035,183.058533 
	C171.882065,182.500595 171.541687,181.954391 171.188843,181.165436 
	C171.531708,180.848297 171.773956,180.641464 172.007263,180.076996 
	C172.638306,180.713654 173.165176,181.575485 173.746475,182.744232 
z"/>
<path fill="#C4C4C4" opacity="1.000000" stroke="none" 
	d="
M55.742981,166.183182 
	C54.980671,165.887299 54.623741,165.704346 54.266815,165.521393 
	C55.045177,164.414307 55.877357,165.139542 56.819664,165.732941 
	C56.677433,166.109283 56.412899,166.202698 55.742981,166.183182 
z"/>
<path fill="#E9E9E9" opacity="1.000000" stroke="none" 
	d="
M55.559944,166.451614 
	C55.605633,166.080124 55.873669,166.089981 56.541840,166.057861 
	C56.933712,166.386093 57.502579,166.713608 56.878551,167.147827 
	C56.266277,167.573868 56.133751,166.959503 55.559944,166.451614 
z"/>
<path fill="#070707" opacity="1.000000" stroke="none" 
	d="
M116.358719,182.765366 
	C122.858559,181.788452 133.047928,186.854630 135.814713,192.173355 
	C136.545059,193.577347 136.602493,195.122864 135.651199,196.431046 
	C134.710098,197.725189 133.233490,198.451660 131.717911,197.786697 
	C128.769501,196.493027 126.642982,197.990311 124.406067,199.473587 
	C117.130447,204.297974 109.849419,204.256729 102.562706,199.457947 
	C100.357971,198.005966 98.241264,196.405960 95.262886,197.799591 
	C93.765121,198.500397 92.233635,197.681427 91.391525,196.328644 
	C90.468475,194.845840 90.532150,193.287964 91.610489,191.711517 
	C96.138222,185.092346 104.469719,181.747482 112.699890,183.569412 
	C114.070854,183.872925 114.818092,182.844528 116.358719,182.765366 
z"/>
<path fill="#060606" opacity="1.000000" stroke="none" 
	d="
M89.744476,123.739471 
	C95.064606,127.160561 98.718445,131.599884 101.408173,136.855438 
	C102.856773,139.685913 102.557137,142.600922 99.046280,142.913803 
	C90.765999,143.651688 82.383324,143.798065 74.808060,139.459229 
	C71.204231,137.395081 66.916122,134.895905 67.188362,130.414856 
	C67.479805,125.617844 72.725044,124.817963 76.403519,123.259911 
	C78.965408,122.174812 81.847427,121.724144 85.121521,122.399025 
	C86.976151,122.289841 88.425507,122.165527 89.744476,123.739471 
z"/>
<path fill="#060606" opacity="1.000000" stroke="none" 
	d="
M141.085846,122.377998 
	C147.373398,121.509979 152.522552,123.477119 157.378998,126.666924 
	C160.639725,128.808640 160.709564,131.215027 158.439072,134.148361 
	C154.058060,139.808411 147.867599,142.020645 141.185226,142.910950 
	C137.263947,143.433395 133.217575,143.258118 129.242737,143.071457 
	C125.050369,142.874542 123.891457,140.548920 125.841782,136.628998 
	C128.321671,131.644760 131.693695,127.404671 136.730438,124.190994 
	C137.979813,122.845818 139.133087,122.095215 141.085846,122.377998 
z"/>
<path fill="#080808" opacity="1.000000" stroke="none" 
	d="
M103.339844,174.697174 
	C95.307915,170.572327 93.805756,165.309280 98.167145,157.849075 
	C99.527481,155.522217 101.176811,153.505264 104.095032,154.976349 
	C107.126144,156.504379 106.351952,158.932709 104.890862,161.257980 
	C104.627502,161.677109 104.416641,162.129227 104.098969,162.719543 
	C105.824814,163.239670 107.615700,163.511078 109.128822,164.309143 
	C110.715706,165.146072 112.036163,166.488174 113.546524,167.666824 
	C116.049118,165.253586 118.763680,163.153519 122.464584,163.128281 
	C122.514351,162.721024 122.675972,162.367645 122.564468,162.163391 
	C121.210068,159.682465 119.133667,156.874023 122.864944,154.996933 
	C126.283882,153.276947 127.872200,156.088593 129.228134,158.724960 
	C132.591522,165.264572 131.394379,170.709106 125.865288,173.756989 
	C125.431503,173.996109 124.815544,174.459457 124.524254,174.319382 
	C119.955208,172.122757 115.273918,176.654831 111.320160,174.662140 
	C108.215569,173.097412 106.196297,174.350677 103.339844,174.697174 
z"/>
<path fill="#070707" opacity="1.000000" stroke="none" 
	d="
M137.318115,122.299515 
	C133.943161,123.839386 130.824554,125.371895 127.881767,127.189148 
	C125.775024,128.490112 124.089813,128.225189 122.673691,126.413406 
	C121.170456,124.490181 121.648087,122.351021 123.458191,121.180954 
	C133.051239,114.979973 143.044556,110.009575 155.060043,112.557869 
	C157.650085,113.107178 160.286636,113.987427 159.720505,117.164627 
	C159.090256,120.701538 156.160934,120.592995 153.404373,119.830467 
	C149.051529,118.626366 144.887161,119.363480 140.394684,120.939453 
	C139.370193,121.763321 138.655807,122.350052 137.318115,122.299515 
z"/>
<path fill="#070707" opacity="1.000000" stroke="none" 
	d="
M87.214401,121.342453 
	C82.542488,119.363518 78.054115,118.569633 73.345314,119.875183 
	C70.729538,120.600410 67.989815,120.555397 67.278908,117.404831 
	C66.570328,114.264633 69.008194,113.196121 71.679947,112.614418 
	C83.907761,109.952133 94.053879,114.996292 103.800911,121.338684 
	C105.521385,122.458191 105.718864,124.518867 104.545860,126.223549 
	C103.288239,128.051193 101.625687,128.672226 99.431648,127.288963 
	C96.634674,125.525558 93.672882,124.023567 90.410782,122.304825 
	C89.014496,122.700302 88.239334,122.149750 87.214401,121.342453 
z"/>
<path fill="#C4C4C4" opacity="1.000000" stroke="none" 
	d="
M86.802292,121.390366 
	C87.836571,121.353333 88.710976,121.610588 89.812401,122.034302 
	C90.027061,122.498177 90.014702,122.795593 90.003807,123.539520 
	C88.688339,123.614426 87.371407,123.242828 85.789062,122.648514 
	C85.896576,122.178741 86.269501,121.931694 86.802292,121.390366 
z"/>
<path fill="#C4C4C4" opacity="1.000000" stroke="none" 
	d="
M137.001221,122.634979 
	C137.817490,121.783409 138.648438,121.381775 139.756180,121.032135 
	C140.317383,121.399330 140.601791,121.714539 141.164017,122.207443 
	C140.190002,122.915001 138.938171,123.444847 137.340393,123.979874 
	C137.001633,123.684998 137.008774,123.384956 137.001221,122.634979 
z"/>
<path fill="#EBEBEB" opacity="1.000000" stroke="none" 
	d="
M110.110733,195.064178 
	C107.920082,193.894150 106.095810,192.817886 104.274628,191.743423 
	C104.537155,191.217453 104.678535,190.727386 104.793503,190.733521 
	C110.663353,191.045944 116.509315,192.792801 122.423492,190.159668 
	C118.542595,195.247772 116.983299,195.794464 110.110733,195.064178 
z"/>
<path fill="#E9E9E9" opacity="1.000000" stroke="none" 
	d="
M80.225067,133.883728 
	C78.878357,132.941208 77.246460,132.920212 76.912155,131.338104 
	C83.133354,128.199356 87.487534,129.531311 91.268379,135.828995 
	C87.513756,136.068924 84.035568,135.193481 80.225067,133.883728 
z"/>
<path fill="#EBEBEB" opacity="1.000000" stroke="none" 
	d="
M146.669067,129.862610 
	C148.194870,130.158142 149.649063,130.274063 149.897888,131.456772 
	C150.127533,132.548248 148.718353,132.876999 147.866241,133.308868 
	C144.142761,135.196014 140.153259,135.760559 135.395035,135.989883 
	C138.180634,131.438919 141.436417,129.232620 146.669067,129.862610 
z"/>
</svg>