<svg version="1.1" id="Layer_1" xmlns="http://www.w3.org/2000/svg" xmlns:xlink="http://www.w3.org/1999/xlink" x="0px" y="0px"
	 width="100%" viewBox="0 0 224 224" enable-background="new 0 0 224 224" xml:space="preserve">
<path fill="#000000" opacity="1.000000" stroke="none" 
	d="
M54.312698,191.901031 
	C48.585567,187.511063 47.437737,181.911514 48.818748,175.585175 
	C49.575989,172.116302 50.011971,168.721893 48.836628,165.259537 
	C48.579056,164.500778 48.690647,163.606995 48.682030,162.774887 
	C48.569309,151.895920 51.935596,141.554260 53.811913,130.995789 
	C54.632710,126.376953 58.146549,122.847229 61.762547,119.751633 
	C66.079765,116.055695 65.569077,115.921623 61.719028,111.902901 
	C57.998600,108.019478 54.340145,105.051086 48.794109,104.585503 
	C43.864880,104.171692 41.493629,106.594620 42.919807,111.398201 
	C43.875874,114.618393 44.525734,117.851212 44.557114,121.201088 
	C44.622311,128.160660 39.456676,132.017441 32.864441,129.689880 
	C26.323370,127.380394 22.168434,122.416901 19.577911,116.210968 
	C10.492369,94.445351 13.509399,60.268955 34.618851,42.573162 
	C42.767387,35.742344 50.482754,28.223776 54.422222,17.853310 
	C55.078320,16.126165 56.323540,15.132031 58.250679,15.260357 
	C60.209595,15.390797 61.036747,16.770193 61.733200,18.388208 
	C63.490196,22.470100 63.740234,26.746862 63.544289,31.095438 
	C63.455982,33.055202 62.856434,35.058731 64.333466,37.423996 
	C69.594788,36.386238 73.786407,33.297150 77.719734,29.751617 
	C78.830521,28.750349 79.777473,27.569733 80.844803,26.517244 
	C82.255577,25.126076 83.853188,24.402082 85.792938,25.458105 
	C87.456474,26.363752 88.092270,27.874983 87.886688,29.655905 
	C86.116211,44.993294 78.491768,58.410427 59.911377,61.372143 
	C55.762661,62.033447 51.726517,63.027641 48.333447,65.671890 
	C44.606300,68.576477 44.485275,70.999062 47.789383,74.354965 
	C52.896889,79.542542 55.512989,79.814384 61.826492,75.625771 
	C65.443954,73.225807 69.517838,73.421394 73.448311,73.779732 
	C79.445244,74.326462 83.767654,72.436325 87.628159,67.608307 
	C92.943817,60.960457 99.710884,55.703808 106.832359,50.993084 
	C111.363007,47.996147 115.815315,48.035915 120.342285,51.116207 
	C127.534439,56.009972 134.404526,61.315372 139.842667,68.135986 
	C143.145660,72.278664 146.858765,74.300911 152.254608,73.802727 
	C158.096176,73.263390 163.806992,73.353241 168.437927,78.292351 
	C170.578842,80.575752 177.630493,77.155563 180.643204,72.937920 
	C183.322021,69.187668 180.777176,67.109337 178.163940,65.130806 
	C174.702805,62.510300 170.463272,62.164818 166.397263,61.324055 
	C150.401031,58.016373 140.295044,46.358765 139.448654,30.409367 
	C139.335114,28.269835 139.325409,26.336103 141.525925,25.300028 
	C143.784271,24.236723 145.364716,25.635578 146.763245,27.102484 
	C149.888229,30.380295 153.261719,33.335011 157.273285,35.477486 
	C158.881973,36.336647 160.660751,37.407227 162.454132,36.389797 
	C164.484100,35.238152 163.604218,33.118660 163.431702,31.390352 
	C162.993286,26.997555 163.605530,22.762289 165.120010,18.657528 
	C165.766983,16.904053 166.729279,15.228944 168.924072,15.194695 
	C171.012115,15.162111 172.289047,16.419617 173.007050,18.293798 
	C176.644516,27.788694 183.533081,34.806419 190.890366,41.380753 
	C213.503204,61.587177 216.062805,86.601883 208.244064,113.969818 
	C206.368881,120.533470 202.216507,125.795181 195.940262,129.085953 
	C192.527039,130.875580 189.114441,130.793365 185.935699,128.865433 
	C182.724136,126.917603 182.104111,123.543457 182.320221,120.096695 
	C182.528870,116.768692 183.418335,113.559875 184.413361,110.361160 
	C185.590408,106.577339 183.773239,104.657776 179.982742,104.401146 
	C174.372742,104.021339 164.921219,109.467102 162.616089,114.355087 
	C161.835815,116.009621 162.376389,117.307487 163.674026,118.316048 
	C172.097443,124.862968 175.034836,133.559906 175.490753,144.066544 
	C175.749252,150.023392 179.124161,155.829697 178.304626,162.136261 
	C177.574341,167.755981 177.583115,173.226501 178.542450,178.911560 
	C179.717453,185.874695 175.477173,191.613403 168.637772,193.738754 
	C164.799850,194.931396 161.143845,195.930084 158.721817,199.692017 
	C157.770584,201.169479 155.409607,202.505295 153.650223,202.558060 
	C147.471237,202.743362 142.288086,205.383224 136.927704,207.951157 
	C134.630753,209.051529 131.822098,209.531860 129.104416,208.791412 
	C126.723480,208.142715 124.660057,208.674896 122.445877,209.854523 
	C116.829514,212.846725 110.984383,213.233185 105.220627,210.133148 
	C103.220901,209.057587 101.055466,208.587341 98.947952,208.808701 
	C93.360390,209.395599 88.717590,205.981445 83.828255,205.235306 
	C74.424576,203.800232 67.715446,197.841248 59.665268,194.272919 
	C57.993996,193.532089 56.306118,192.828720 54.312698,191.901031 
M170.121780,54.080196 
	C175.308014,55.350258 180.390656,56.832584 184.534027,60.475704 
	C194.954300,69.637871 196.544495,81.818039 195.898621,94.584167 
	C195.545670,101.559990 193.910675,108.362106 191.137283,114.846558 
	C190.358780,116.666733 189.432327,118.873405 191.621811,120.244591 
	C194.026810,121.750748 195.736481,119.861801 197.079285,118.180702 
	C198.415558,116.507835 199.852570,114.707535 200.495102,112.720482 
	C207.256958,91.808891 206.712677,71.699921 192.357010,53.840382 
	C187.603821,47.927082 181.571533,43.038395 176.080399,37.726402 
	C175.407837,37.075790 174.507568,36.334919 173.507996,37.366634 
	C172.908615,38.883739 173.934479,39.928558 174.549271,41.055916 
	C175.593338,42.970478 176.942245,44.877079 175.146515,46.994686 
	C173.476532,48.964024 171.135452,48.573669 169.105133,48.014854 
	C165.271454,46.959682 161.524475,45.579174 157.769058,44.255573 
	C156.518753,43.814896 155.221542,42.864563 154.232803,44.394493 
	C153.282547,45.864906 154.486084,46.944901 155.453537,47.798500 
	C159.416107,51.294765 163.932907,53.602962 170.121780,54.080196 
M33.112965,55.643673 
	C21.366032,71.627197 20.443209,89.453415 24.700323,107.925148 
	C25.676884,112.162476 27.592840,116.468628 31.219749,119.503067 
	C32.420670,120.507805 33.759506,121.285286 35.297104,120.377953 
	C36.856495,119.457748 36.769943,117.887238 36.407978,116.379738 
	C36.137192,115.251991 35.729027,114.153816 35.333836,113.059883 
	C31.616514,102.769958 29.934488,92.366913 31.553164,81.311790 
	C33.688732,66.726379 41.795097,57.484192 56.300411,54.460995 
	C61.184986,53.442947 66.122299,52.446850 70.029671,49.008034 
	C71.548615,47.671230 73.626457,46.370445 72.245895,43.905960 
	C70.896294,43.368832 70.014824,43.953514 69.081825,44.260105 
	C65.300819,45.502586 61.544189,46.830948 57.722523,47.933331 
	C55.638126,48.534588 53.358757,48.875042 51.778088,46.776157 
	C50.318222,44.837685 51.345661,43.029510 52.273643,41.203518 
	C52.905434,39.960354 54.193802,38.748707 52.386490,36.232674 
	C46.037418,42.606960 39.811234,48.857872 33.112965,55.643673 
M133.706070,142.769211 
	C135.658875,144.335587 137.600479,146.148926 140.377731,144.936234 
	C144.771286,143.017807 148.611801,132.486801 146.686996,127.457321 
	C146.100693,127.623207 145.365112,127.629913 144.910980,127.990784 
	C140.069489,131.837997 134.998138,132.168015 129.556976,129.314270 
	C127.240334,128.099258 124.892509,128.986404 122.424995,129.215057 
	C116.694405,129.746094 110.814201,127.788574 105.082581,129.952286 
	C104.976845,129.992203 104.771889,129.843430 104.645103,129.742599 
	C101.468948,127.216751 98.476891,128.400055 95.377335,130.031860 
	C91.080231,132.294098 87.060081,131.559952 83.295662,128.592148 
	C82.317146,127.820702 81.662827,126.366463 80.026482,126.634087 
	C78.230965,127.769127 78.598381,129.265060 78.975960,131.011597 
	C79.763329,134.653748 81.260376,137.964706 83.200768,141.075729 
	C87.064751,147.270813 91.103020,147.163742 94.518944,140.721786 
	C95.873230,138.167786 97.447159,135.929855 99.807030,134.222977 
	C101.699234,132.854355 103.714233,132.019821 105.787605,133.412903 
	C108.082367,134.954727 107.565994,137.193497 106.386490,139.162827 
	C104.788788,141.830368 106.388184,143.283173 108.314774,144.422729 
	C110.871155,145.934845 113.695038,146.024673 116.522026,145.132492 
	C119.935989,144.055069 123.210556,142.992249 120.169121,138.305420 
	C119.257278,136.900269 119.358101,135.037140 120.858116,133.758118 
	C122.465286,132.387741 124.190269,132.537704 125.935135,133.585403 
	C129.351593,135.636795 131.524643,138.733398 133.706070,142.769211 
M187.259476,92.555634 
	C188.279037,89.236366 188.223953,85.109703 184.343582,85.195671 
	C180.015991,85.291542 175.126160,86.207314 171.560852,89.697929 
	C170.664978,90.575050 169.974823,91.437149 170.448334,92.717422 
	C170.984558,94.167229 172.251602,94.669632 173.632172,94.607231 
	C175.414474,94.526680 177.334000,93.255852 178.942551,94.432594 
	C182.139511,96.771332 184.479630,95.364883 187.259476,92.555634 
z"/>
</svg>