<svg version="1.1" id="Layer_1" xmlns="http://www.w3.org/2000/svg" xmlns:xlink="http://www.w3.org/1999/xlink" x="0px" y="0px"
	 width="100%" viewBox="0 0 225 225" enable-background="new 0 0 225 225" xml:space="preserve">
<path fill="#FEFEFE" opacity="1.000000" stroke="none" 
	d="
M125.000000,226.000000 
	C83.333336,226.000000 42.166672,226.000000 1.000005,226.000000 
	C1.000004,151.000000 1.000004,76.000015 1.000002,1.000016 
	C75.999992,1.000010 150.999985,1.000010 225.999969,1.000005 
	C225.999985,75.999985 225.999985,150.999969 226.000000,225.999969 
	C192.500000,226.000000 159.000000,226.000000 125.000000,226.000000 
M49.947876,185.462479 
	C49.711430,185.103836 49.474979,184.745178 49.238525,184.386536 
	C49.058811,184.530975 48.879097,184.675415 48.699387,184.819870 
	C49.133816,185.212585 49.568241,185.605301 49.781231,186.540482 
	C50.751640,189.775635 56.592407,191.154022 60.741119,189.118851 
	C103.256165,218.595123 160.543701,207.492355 189.023880,166.490265 
	C202.449036,147.162460 207.816330,125.879150 205.186539,102.422531 
	C199.569702,52.323021 152.485382,13.128003 98.185776,22.431377 
	C44.454121,31.637440 11.252096,83.047333 24.153343,136.090393 
	C27.282516,148.955887 32.869904,160.873856 41.161552,172.223282 
	C41.161552,174.967987 41.161552,177.712692 41.161552,180.432205 
	C44.520790,180.629059 47.402004,180.797897 50.599148,181.127396 
	C50.817421,181.371307 51.035694,181.615219 51.169392,182.624863 
	C50.778709,183.750839 50.388023,184.876816 49.947876,185.462479 
z"/>
<path fill="#040303" opacity="1.000000" stroke="none" 
	d="
M51.253967,181.859131 
	C51.035694,181.615219 50.817421,181.371307 50.294868,180.735672 
	C47.113506,177.310272 44.236431,174.276596 41.359352,171.242920 
	C32.869904,160.873856 27.282516,148.955887 24.153343,136.090393 
	C11.252096,83.047333 44.454121,31.637440 98.185776,22.431377 
	C152.485382,13.128003 199.569702,52.323021 205.186539,102.422531 
	C207.816330,125.879150 202.449036,147.162460 189.023880,166.490265 
	C160.543701,207.492355 103.256165,218.595123 60.261909,188.738495 
	C56.939789,186.191818 54.096878,184.025482 51.253967,181.859131 
M134.536392,156.353394 
	C134.490662,156.920197 134.444946,157.487000 134.215881,158.805649 
	C134.270355,159.571198 134.324844,160.336761 134.167221,161.920166 
	C134.121506,163.613129 134.075790,165.306091 133.492325,167.451721 
	C133.514328,168.352966 133.536331,169.254211 133.357574,170.903275 
	C133.255264,171.932480 133.152954,172.961700 132.392746,174.077713 
	C132.503616,175.375336 132.614487,176.672974 132.809662,178.736115 
	C133.218475,179.858414 133.627304,180.980698 134.366791,182.521820 
	C134.924255,182.085846 135.481720,181.649857 136.468430,181.032349 
	C136.753723,180.891373 136.978943,180.684891 137.795212,180.254608 
	C138.452103,180.133209 139.109009,180.011826 140.291336,179.803970 
	C140.526627,179.551483 140.761902,179.298981 141.615173,178.798355 
	C143.674606,177.185638 145.734055,175.572922 148.135254,173.545364 
	C148.424072,173.344940 148.712891,173.144516 149.139221,173.595016 
	C150.101257,173.100296 151.940659,172.289169 151.893494,172.158417 
	C151.205978,170.252121 150.266281,168.436768 149.294189,165.934601 
	C148.888367,164.942291 148.482529,163.949966 148.135025,162.172729 
	C148.071014,161.129425 148.007019,160.086121 148.015640,158.261368 
	C148.048233,157.220779 148.080826,156.180176 148.883392,154.888641 
	C149.271759,150.934891 149.660141,146.981155 150.136719,142.305328 
	C150.148499,141.582474 150.160278,140.859604 150.621399,139.472412 
	C150.994934,135.323868 151.368469,131.175323 151.929260,126.177811 
	C152.641174,121.794899 153.353088,117.411980 154.787659,113.022713 
	C156.659393,113.965126 158.758438,114.623367 160.359528,115.904114 
	C164.862045,119.505737 169.750000,119.231201 175.472046,117.993980 
	C176.674576,117.523712 177.877121,117.053444 179.866348,116.297279 
	C181.536255,116.178787 183.206146,116.060295 185.611237,115.994957 
	C186.291885,115.531143 186.972549,115.067337 187.653198,114.603523 
	C186.415665,114.084908 185.178146,113.566284 183.959702,113.028694 
	C183.959702,113.028694 183.948334,113.062958 183.970276,112.352097 
	C183.641464,111.235329 183.312637,110.118568 183.753418,109.012337 
	C186.788757,109.760757 189.878601,110.703766 192.148376,106.336823 
	C188.619705,105.030449 185.723862,102.715652 181.203613,105.031326 
	C179.164917,105.007469 176.861526,105.587746 175.142365,104.834557 
	C171.513123,103.244560 167.887878,101.329124 164.827286,98.848534 
	C161.902863,96.478325 158.106583,93.509926 157.524124,90.292107 
	C156.490280,84.580719 157.597580,78.481766 157.619797,71.793587 
	C157.803253,70.523468 157.986710,69.253342 158.600235,67.609909 
	C158.661987,67.241226 158.723740,66.872543 158.861053,65.787598 
	C159.611191,63.705986 160.361328,61.624378 160.765610,60.502510 
	C155.920258,55.929554 151.602386,51.854431 146.915466,47.149372 
	C145.816330,46.335854 144.717194,45.522335 142.893326,44.172398 
	C143.023056,46.498497 143.094437,47.778168 143.056503,49.793411 
	C143.060852,50.535572 143.065201,51.277737 142.524017,52.567928 
	C142.474014,54.405884 142.423996,56.243835 142.183594,58.922684 
	C142.081146,61.217197 141.978683,63.511715 141.528046,66.102066 
	C141.480240,66.247345 141.365692,66.410065 141.398178,66.534355 
	C141.472168,66.817474 141.618301,67.081741 141.586563,68.005486 
	C141.611328,68.671448 141.636093,69.337402 141.262527,70.599480 
	C141.475189,73.409332 141.687866,76.219177 142.036057,79.762711 
	C141.988907,80.504005 141.941772,81.245300 141.326569,82.231575 
	C141.249268,82.819855 141.171967,83.408142 140.700027,84.651634 
	C139.875336,85.231438 139.050659,85.811241 138.318436,85.716255 
	C137.044800,84.587654 135.771179,83.459053 134.046661,81.966476 
	C133.681320,81.973083 133.315979,81.979698 132.412781,81.772583 
	C131.950775,81.422012 131.488754,81.071449 130.924576,80.033455 
	C129.747147,76.620583 128.584229,73.188416 124.212578,74.738022 
	C119.800949,68.224342 112.077957,65.617119 108.166031,59.167595 
	C108.124542,59.099194 107.848633,59.172974 106.948212,59.177971 
	C106.348495,62.462208 105.748772,65.746445 104.987473,69.834122 
	C104.658051,71.756935 104.058884,73.681297 104.069893,75.602158 
	C104.082642,77.826294 104.632019,80.047356 104.982658,82.990524 
	C107.343941,88.157967 112.720062,88.184174 117.570244,90.056221 
	C117.936150,90.070305 118.302048,90.084381 119.111282,90.399910 
	C119.406197,90.601753 119.701118,90.803604 120.098824,91.708588 
	C121.101036,92.116615 122.103249,92.524643 123.564697,93.043373 
	C123.564697,93.043373 123.986115,93.256821 124.316193,93.806938 
	C126.984398,95.428848 129.652603,97.050758 132.274414,98.821152 
	C132.274414,98.821152 132.241791,98.669052 132.349823,99.307602 
	C132.921921,99.521912 133.494003,99.736214 134.750107,100.242844 
	C139.141785,101.988487 138.214569,105.593071 137.232666,109.358482 
	C133.969650,113.230423 135.967209,117.146118 136.999451,121.837395 
	C136.979065,122.895561 136.958664,123.953728 136.339767,125.314079 
	C136.312164,126.584122 136.284561,127.854164 136.236923,130.033691 
	C136.138535,134.015671 136.040131,137.997665 135.403885,142.592316 
	C135.294937,146.067490 135.186005,149.542664 135.006470,153.761368 
	C135.009766,154.508347 135.013077,155.255325 134.536392,156.353394 
M75.095680,86.803314 
	C75.227043,87.574715 75.358406,88.346115 75.323570,89.806458 
	C75.353333,90.509789 75.383087,91.213127 75.130119,92.591080 
	C75.027504,93.067863 74.924896,93.544640 74.301491,94.503021 
	C73.866936,96.668274 73.432381,98.833527 72.310707,100.878922 
	C71.481949,99.674461 70.653191,98.470001 69.673897,97.046753 
	C66.872185,100.131844 65.358238,103.136772 66.171211,107.006432 
	C63.115372,107.337471 60.059532,107.668510 56.229210,108.258377 
	C51.468498,109.173126 46.707787,110.087883 41.434715,111.426697 
	C42.226940,112.357910 43.019161,113.289116 44.009102,114.901001 
	C47.233131,120.427307 52.516525,122.179466 58.940865,122.863602 
	C59.302811,123.206902 59.664757,123.550201 60.334263,124.469887 
	C60.947174,124.617554 61.560085,124.765213 62.769562,125.028816 
	C63.509560,125.354462 64.249550,125.680115 65.026207,126.405022 
	C65.026207,126.405022 65.104164,126.798317 65.077339,127.448021 
	C67.087219,129.002213 69.097099,130.556412 71.090591,132.995880 
	C71.049217,135.658264 71.007835,138.320663 70.816345,140.895996 
	C70.816345,140.895996 70.644714,140.921570 70.004646,141.171478 
	C70.005066,143.115921 70.005478,145.060379 70.003387,147.844818 
	C69.374817,151.239395 68.746239,154.633957 68.014023,158.713821 
	C67.730354,159.812164 67.446686,160.910522 67.042618,162.807480 
	C67.023872,163.884003 67.005127,164.960526 66.994492,166.779953 
	C68.296776,167.862930 69.599060,168.945892 71.346924,170.501617 
	C72.568855,171.417252 73.790794,172.332901 75.222916,173.576523 
	C75.398140,173.778351 75.613106,173.919830 76.202599,174.608948 
	C78.465187,176.612885 80.727783,178.616821 83.684776,181.235779 
	C84.007957,173.899063 84.289154,167.515625 84.811829,160.366150 
	C84.811356,159.566803 84.810883,158.767441 84.949348,157.157028 
	C85.045158,155.790970 85.140968,154.424911 85.841209,152.905731 
	C85.870857,151.927704 85.900497,150.949692 85.943687,149.105530 
	C86.080498,147.097717 86.217316,145.089905 86.980003,143.029007 
	C87.977203,142.692108 88.974411,142.355209 90.391449,142.553665 
	C92.600906,143.700821 94.810364,144.847961 97.364510,146.607574 
	C98.857109,147.121674 100.349716,147.635773 102.000694,148.071442 
	C102.000694,148.071442 101.857361,148.175293 101.976173,148.758224 
	C102.665237,149.464554 103.354301,150.170883 104.080765,151.607849 
	C106.403770,157.370361 111.555092,159.309540 117.395073,161.407013 
	C117.932861,162.599335 118.470642,163.791672 119.124435,165.691986 
	C120.944534,167.917358 122.723946,167.262421 123.270302,164.981003 
	C123.531883,163.888718 121.861343,162.333725 121.064194,160.308960 
	C121.120522,159.859848 121.176849,159.410736 121.599747,158.680283 
	C121.815002,158.434540 121.922264,158.148254 121.900864,156.969604 
	C122.120430,153.953751 122.339989,150.937881 122.752007,147.258163 
	C122.816360,146.802338 122.880722,146.346527 123.423759,145.692703 
	C123.239838,145.246216 123.055923,144.799728 122.536560,143.755310 
	C121.364487,143.154114 120.192421,142.552902 118.925293,141.301788 
	C118.243065,140.888824 117.560837,140.475861 116.441818,140.051071 
	C116.441818,140.051071 116.004959,140.041885 115.912270,139.354340 
	C114.207695,137.908432 113.171722,134.801437 109.356308,136.744949 
	C102.663292,133.134384 95.970276,129.523804 89.104500,125.237740 
	C88.698708,124.154900 88.292915,123.072060 88.055183,121.152145 
	C88.448631,115.066666 88.842079,108.981186 89.572739,102.142296 
	C89.635948,100.773399 89.699165,99.404503 90.013885,97.307945 
	C90.074020,95.194618 90.134155,93.081299 90.368958,90.217377 
	C90.552834,88.142578 90.736702,86.067787 91.111404,83.511574 
	C91.082153,83.341446 91.052902,83.171326 91.217979,82.243500 
	C91.177032,80.446030 91.136086,78.648552 91.501274,76.097603 
	C91.650078,74.374168 91.798882,72.650734 92.459549,70.342659 
	C92.594421,67.875984 92.729286,65.409309 92.885651,62.130604 
	C92.839767,60.784977 92.793892,59.439354 93.009987,57.215015 
	C93.404434,53.125271 93.798874,49.035526 94.652977,44.485249 
	C93.024826,42.375687 91.396683,40.266125 89.768539,38.156559 
	C88.902145,39.110714 87.185860,40.273682 87.357620,40.972775 
	C87.656250,42.188206 89.120819,43.117168 89.746429,44.763885 
	C85.490952,47.122566 81.235474,49.481243 76.999084,51.235287 
	C75.732765,50.173534 74.135239,50.685078 74.411987,52.420742 
	C75.194260,57.326847 76.599731,62.133587 77.896713,67.503990 
	C77.868668,67.682518 77.840630,67.861038 77.184006,68.139236 
	C77.152153,69.105385 77.120293,70.071533 76.965988,71.865501 
	C76.600464,74.912834 76.234932,77.960167 75.394112,81.445953 
	C75.282028,82.968399 75.169937,84.490845 75.095680,86.803314 
M102.966812,60.035370 
	C102.353592,59.452713 101.740372,58.870056 101.127151,58.287395 
	C100.471954,59.177921 99.225121,60.097740 99.267494,60.953732 
	C99.422600,64.086746 100.006905,67.198502 100.429573,70.318268 
	C101.008408,70.300255 101.587234,70.282249 102.166069,70.264236 
	C102.442368,67.134537 102.718666,64.004829 102.966812,60.035370 
M94.795113,120.861938 
	C94.795113,118.349342 94.795113,115.836746 94.795113,113.025421 
	C91.934349,114.217567 89.535217,118.186325 90.497444,120.017883 
	C90.979881,120.936180 93.000641,121.046310 94.795113,120.861938 
M110.975075,183.328171 
	C111.580124,183.574860 112.655388,183.734436 112.719650,184.081299 
	C113.671021,189.216370 115.573044,187.226135 117.819672,184.944977 
	C118.576965,184.176041 119.913086,183.977142 121.569191,183.267120 
	C118.124756,182.407639 115.330673,181.593796 112.480942,181.103256 
	C111.946671,181.011307 111.189857,182.212219 110.975075,183.328171 
M91.564720,177.066360 
	C90.760239,178.727509 89.807632,180.344543 89.287827,182.090439 
	C89.194283,182.404617 91.177605,183.933334 91.690681,183.712616 
	C92.903618,183.190796 94.663452,181.927902 94.635818,181.011902 
	C94.595558,179.676971 93.179794,178.383514 91.564720,177.066360 
M159.396423,125.053215 
	C160.281952,123.992485 161.167480,122.931755 163.068359,120.654793 
	C160.022278,120.319695 158.252090,119.782814 156.662186,120.113281 
	C155.997849,120.251373 155.036926,122.622337 155.417557,123.285873 
	C156.016022,124.329193 157.635406,124.786888 159.396423,125.053215 
M44.685017,105.009300 
	C43.890884,105.421471 43.096752,105.833649 42.302620,106.245819 
	C42.597538,106.760086 42.904682,107.724678 43.185425,107.717056 
	C45.343319,107.658447 47.496086,107.411102 49.650444,107.222343 
	C49.625729,106.624344 49.601009,106.026337 49.576294,105.428337 
	C48.220856,105.285912 46.865417,105.143486 44.685017,105.009300 
M132.238724,184.166779 
	C132.410355,184.109436 132.581985,184.052094 132.753601,183.994751 
	C132.581253,183.938995 132.408920,183.883255 132.238724,184.166779 
z"/>
<path fill="#F3F3F3" opacity="1.000000" stroke="none" 
	d="
M51.211678,182.242004 
	C54.096878,184.025482 56.939789,186.191818 59.926399,188.663376 
	C56.592407,191.154022 50.751640,189.775635 49.890617,186.270233 
	C50.000000,186.000000 49.997341,186.002792 49.997337,186.002792 
	C50.388023,184.876816 50.778709,183.750839 51.211678,182.242004 
z"/>
<path fill="#F3F3F3" opacity="1.000000" stroke="none" 
	d="
M41.260452,171.733093 
	C44.236431,174.276596 47.113506,177.310272 50.136902,180.655334 
	C47.402004,180.797897 44.520790,180.629059 41.161552,180.432205 
	C41.161552,177.712692 41.161552,174.967987 41.260452,171.733093 
z"/>
<path fill="#F3F3F3" opacity="1.000000" stroke="none" 
	d="
M50.001335,185.999008 
	C49.568241,185.605301 49.133816,185.212585 48.699387,184.819870 
	C48.879097,184.675415 49.058811,184.530975 49.238525,184.386536 
	C49.474979,184.745178 49.711430,185.103836 49.972610,185.732635 
	C49.997341,186.002792 50.000000,186.000000 50.001335,185.999008 
z"/>
<path fill="#B1844B" opacity="1.000000" stroke="none" 
	d="
M141.660858,70.003365 
	C141.636093,69.337402 141.611328,68.671448 141.756622,67.297195 
	C141.909851,66.328018 141.893036,66.067123 141.876221,65.806229 
	C141.978683,63.511715 142.081146,61.217197 142.608124,58.386559 
	C143.044937,55.906925 143.057251,53.963409 143.069550,52.019897 
	C143.065201,51.277737 143.060852,50.535572 143.474701,49.419426 
	C145.023422,48.623398 146.153976,48.201351 147.284515,47.779305 
	C151.602386,51.854431 155.920258,55.929554 160.765610,60.502510 
	C160.361328,61.624378 159.611191,63.705986 158.598770,66.334229 
	C158.281052,67.248322 158.225601,67.615768 158.170151,67.983223 
	C157.986710,69.253342 157.803253,70.523468 157.469193,72.513374 
	C156.489960,77.473862 155.661331,81.714554 154.625443,85.967964 
	C154.418167,85.980682 154.003006,85.999039 153.903549,85.772011 
	C153.611130,85.260773 153.352234,85.062805 153.020386,84.613327 
	C152.675797,82.515594 152.338211,80.755608 152.006607,78.613228 
	C152.675476,75.818329 153.338348,73.405838 154.001770,70.607819 
	C152.566132,67.785912 151.182297,65.313744 149.590424,62.983700 
	C149.468170,62.804756 147.878586,63.628288 146.626404,63.991043 
	C141.656647,64.036217 144.707214,68.305374 142.664597,69.954613 
	C142.106583,69.971985 141.883713,69.987671 141.660858,70.003365 
z"/>
<path fill="#C78F4D" opacity="1.000000" stroke="none" 
	d="
M137.815308,109.013130 
	C138.214569,105.593071 139.141785,101.988487 134.252838,99.850082 
	C133.250977,99.194565 132.746384,98.931808 132.241791,98.669052 
	C132.241791,98.669052 132.274414,98.821152 132.249680,98.467026 
	C132.111130,97.748856 131.997299,97.384827 132.292908,97.012451 
	C133.792206,97.006828 134.882050,97.009544 136.383759,97.014282 
	C139.210663,96.368973 141.625732,95.721634 144.390686,95.121574 
	C148.023956,99.020569 150.672012,94.767914 153.855515,94.638611 
	C154.726257,95.182053 155.371750,95.558815 156.012955,96.307205 
	C156.417542,98.751457 156.826385,100.824097 157.200226,102.719177 
	C159.178925,103.143456 161.085098,103.552185 162.997787,104.225937 
	C162.999847,104.667641 162.995392,104.844322 162.694351,105.038322 
	C161.918671,105.359756 161.439575,105.663864 160.631531,105.978935 
	C159.863831,105.999916 159.425095,106.009933 158.790253,105.761772 
	C157.724670,106.007256 156.855240,106.510925 155.997833,107.383255 
	C157.114441,108.428192 158.254608,109.053749 159.313004,109.795898 
	C160.249054,110.452263 161.094070,111.238464 161.762329,112.080948 
	C161.271179,112.395622 161.087372,112.659622 160.748535,112.995178 
	C160.503113,113.003807 160.012527,113.026924 159.677979,112.993950 
	C158.897705,112.913872 158.451981,112.866768 157.882568,112.638840 
	C157.556412,112.235092 157.310913,112.080292 156.783524,111.742126 
	C155.343445,111.983444 154.142288,112.476265 152.627686,112.951645 
	C151.530670,112.305832 150.747055,111.677460 149.971741,110.622940 
	C149.515625,107.770615 149.051224,105.344444 148.574692,102.854935 
	C145.760880,104.347366 143.982407,105.044930 142.543991,106.175224 
	C141.973251,106.623703 142.156952,108.032272 141.998627,109.398209 
	C142.356415,112.883873 140.432877,113.191711 138.030029,112.597305 
	C137.915894,111.139221 137.865601,110.076180 137.815308,109.013130 
z"/>
<path fill="#583B15" opacity="1.000000" stroke="none" 
	d="
M84.810410,157.968094 
	C84.810883,158.767441 84.811356,159.566803 84.396240,160.812347 
	C82.994202,162.842926 82.007744,164.427292 80.710609,165.875504 
	C78.255226,164.162155 76.110519,162.584961 73.736397,160.858810 
	C71.710548,159.816071 69.914108,158.922302 68.117668,158.028534 
	C68.746239,154.633957 69.374817,151.239395 70.273605,147.148285 
	C70.577461,144.608353 70.611084,142.764954 70.644714,140.921570 
	C70.644714,140.921570 70.816345,140.895996 71.269554,141.015839 
	C72.151695,142.556000 72.880501,143.963013 72.944321,145.399551 
	C73.061028,148.026306 74.218498,147.938843 76.006981,147.333618 
	C78.012573,149.807617 80.011688,151.914719 82.008820,154.403259 
	C82.941353,155.845825 83.875885,156.906967 84.810410,157.968094 
z"/>
<path fill="#885A1E" opacity="1.000000" stroke="none" 
	d="
M151.741989,127.026779 
	C151.368469,131.175323 150.994934,135.323868 150.072601,139.625732 
	C144.616348,135.719833 143.992996,135.813782 141.648071,140.977417 
	C141.204346,142.354752 141.080292,143.672623 140.582245,144.993027 
	C138.786087,143.990265 137.363907,142.984955 135.941742,141.979645 
	C136.040131,137.997665 136.138535,134.015671 136.426788,129.554916 
	C136.616638,129.076141 136.969040,128.981232 137.297409,128.985458 
	C138.062363,128.974487 138.498962,128.959290 139.125458,129.281128 
	C141.261124,129.956085 143.206909,130.294006 145.152679,130.631927 
	C145.060486,128.993851 144.825180,127.346382 144.931702,125.721329 
	C144.992142,124.799355 145.612671,123.914093 146.017914,123.337830 
	C147.081879,126.996620 148.542450,125.439110 149.993256,124.360748 
	C149.995056,125.812027 149.995056,126.914886 149.995056,128.473389 
	C150.836136,127.776894 151.289062,127.401833 151.741989,127.026779 
z"/>
<path fill="#805117" opacity="1.000000" stroke="none" 
	d="
M89.277260,125.913231 
	C95.970276,129.523804 102.663292,133.134384 109.712357,137.182724 
	C110.382500,138.410858 110.696594,139.201202 110.827332,140.245544 
	C109.762878,140.994690 108.881783,141.489868 107.600548,141.988510 
	C106.133301,141.992493 105.066193,141.992996 103.857819,141.701111 
	C100.430519,135.646851 100.484917,135.777954 94.515610,138.810760 
	C93.429070,139.362793 91.526604,138.308884 89.995209,137.640076 
	C89.323898,135.864349 88.658173,134.444901 88.337769,132.962601 
	C88.548027,131.635971 88.875435,129.961517 88.188423,129.187851 
	C86.361984,127.131027 87.033226,126.380608 89.277260,125.913231 
z"/>
<path fill="#8F5917" opacity="1.000000" stroke="none" 
	d="
M89.190880,125.575485 
	C87.033226,126.380608 86.361984,127.131027 88.188423,129.187851 
	C88.875435,129.961517 88.548027,131.635971 88.010246,132.959488 
	C86.900566,133.021011 86.463722,133.022812 85.825043,132.776489 
	C83.748428,134.020874 81.873634,135.513367 79.679657,136.867310 
	C77.250168,134.481369 75.139870,132.233978 73.021400,129.617035 
	C72.341492,127.506561 71.669746,125.765648 71.123199,123.728920 
	C71.832466,122.289238 72.416534,121.145378 73.248184,120.176285 
	C73.650734,125.657524 77.517990,124.957581 81.196442,125.110512 
	C83.291557,124.172783 85.141876,123.083717 87.215927,121.993477 
	C87.439667,121.992302 87.887131,121.989212 87.887131,121.989212 
	C88.292915,123.072060 88.698708,124.154900 89.190880,125.575485 
z"/>
<path fill="#1C0D0C" opacity="1.000000" stroke="none" 
	d="
M156.017227,95.935577 
	C155.371750,95.558815 154.726257,95.182053 153.827057,94.553757 
	C153.573349,94.302223 153.507309,94.131119 153.512146,93.900032 
	C153.516983,93.668945 153.066299,93.566063 153.481934,93.447647 
	C154.209290,90.871239 154.520996,88.413246 154.832703,85.955246 
	C155.661331,81.714554 156.489960,77.473862 157.563843,72.889061 
	C157.597580,78.481766 156.490280,84.580719 157.524124,90.292107 
	C158.106583,93.509926 161.902863,96.478325 164.827286,98.848534 
	C167.887878,101.329124 171.513123,103.244560 175.142365,104.834557 
	C176.861526,105.587746 179.164917,105.007469 181.592407,105.392288 
	C182.315414,106.836105 182.649612,107.918953 182.983810,109.001808 
	C183.312637,110.118568 183.641464,111.235329 183.613770,112.638466 
	C178.820511,110.285118 174.383759,107.645393 169.891891,104.637070 
	C166.908279,102.821304 163.979782,101.374153 161.038025,99.950012 
	C161.024765,99.973022 161.076096,99.969421 160.989288,99.742256 
	C160.695618,99.193344 160.410843,99.093185 159.746124,99.076851 
	C158.301819,97.937912 157.159515,96.936745 156.017227,95.935577 
z"/>
<path fill="#764D17" opacity="1.000000" stroke="none" 
	d="
M73.029564,129.986588 
	C75.139870,132.233978 77.250168,134.481369 79.944244,137.093262 
	C80.873642,138.500778 81.219261,139.543793 81.568031,140.596283 
	C83.144188,140.376465 84.562523,140.178650 86.051453,140.060257 
	C86.122055,140.139664 86.256271,140.304443 86.121460,140.499969 
	C85.713242,141.067993 85.439827,141.440475 84.988800,142.177490 
	C84.206917,145.362381 83.602654,148.182724 82.714615,150.739929 
	C82.102036,148.746490 81.773239,147.016220 81.238846,144.204025 
	C79.126122,145.318268 77.563316,146.142487 76.000511,146.966705 
	C74.218498,147.938843 73.061028,148.026306 72.944321,145.399551 
	C72.880501,143.963013 72.151695,142.556000 71.344604,141.059357 
	C71.007835,138.320663 71.049217,135.658264 71.307472,132.376236 
	C71.586433,131.236496 71.648521,130.716400 72.039902,130.141083 
	C72.589317,130.052765 72.809441,130.019684 73.029564,129.986588 
z"/>
<path fill="#6C4D28" opacity="1.000000" stroke="none" 
	d="
M81.021286,166.011658 
	C82.007744,164.427292 82.994202,162.842926 84.275497,161.195374 
	C84.289154,167.515625 84.007957,173.899063 83.684776,181.235779 
	C80.727783,178.616821 78.465187,176.612885 76.000931,174.085358 
	C75.603951,173.289612 75.341774,173.185211 75.012726,173.248535 
	C73.790794,172.332901 72.568855,171.417252 71.021240,169.958054 
	C69.459167,168.288681 68.222778,167.162857 66.986382,166.037048 
	C67.005127,164.960526 67.023872,163.884003 67.435059,162.413147 
	C69.548409,163.679337 71.269333,165.339844 72.995331,167.000565 
	C73.000420,167.000778 73.000420,167.009705 73.061203,167.354996 
	C74.801254,169.663467 76.151863,169.761810 77.367477,167.007004 
	C78.829536,166.668854 79.925407,166.340256 81.021286,166.011658 
z"/>
<path fill="#724E22" opacity="1.000000" stroke="none" 
	d="
M139.765900,179.890442 
	C139.109009,180.011826 138.452103,180.133209 137.329437,179.982849 
	C135.791550,178.781097 134.719421,177.851135 133.705597,176.706512 
	C133.763885,176.491882 133.885071,176.063904 134.278931,176.045349 
	C136.538773,176.030670 138.404755,176.034561 140.270752,176.038452 
	C139.611908,174.701828 138.936371,173.372986 138.307800,172.022278 
	C138.176682,171.740524 138.069366,171.287292 138.203461,171.066055 
	C141.224121,166.082458 135.447601,164.495209 134.379333,161.102310 
	C134.324844,160.336761 134.270355,159.571198 134.624695,158.415558 
	C135.679459,158.016220 136.325409,158.006973 136.975967,158.348572 
	C137.124649,159.569519 137.268707,160.439606 137.478104,161.704224 
	C139.708221,159.860016 141.567627,158.322357 144.481155,155.912979 
	C143.790207,159.252426 143.404465,161.116776 142.726501,163.111359 
	C141.580154,163.684784 140.726044,164.127960 140.015671,164.496552 
	C142.078751,166.043442 143.947281,167.444458 146.850372,169.621185 
	C144.542282,169.845230 143.773346,169.919876 142.949387,169.854187 
	C142.805710,169.665237 142.717072,169.616592 142.628418,169.567963 
	C142.750443,169.713486 142.872482,169.859024 143.002106,170.369232 
	C144.604309,171.809357 146.198898,172.884796 147.793488,173.960220 
	C145.734055,175.572922 143.674606,177.185638 141.056854,178.987732 
	C140.254318,179.414871 140.010101,179.652649 139.765900,179.890442 
z"/>
<path fill="#9D6F37" opacity="1.000000" stroke="none" 
	d="
M169.947021,105.005676 
	C174.383759,107.645393 178.820511,110.285118 183.602783,112.993896 
	C183.948334,113.062958 183.959702,113.028694 184.076553,113.330826 
	C184.420944,114.402580 184.648499,115.172195 184.876053,115.941803 
	C183.206146,116.060295 181.536255,116.178787 179.147736,116.326340 
	C177.237152,116.875114 176.045197,117.394836 174.853241,117.914566 
	C169.750000,119.231201 164.862045,119.505737 160.359528,115.904114 
	C158.758438,114.623367 156.659393,113.965126 154.145309,113.011436 
	C153.315674,112.989799 153.128387,112.979439 152.941116,112.969086 
	C154.142288,112.476265 155.343445,111.983444 156.882355,111.949310 
	C157.413757,112.675858 157.675797,112.813080 158.006241,112.819664 
	C158.451981,112.866768 158.897705,112.913872 159.780151,113.208405 
	C160.418259,113.721329 160.682266,113.887215 161.014923,113.968506 
	C161.020935,113.983551 161.044861,114.005402 161.140594,114.215698 
	C161.425156,114.688141 161.677017,114.855347 162.236237,114.944687 
	C162.480560,114.961754 162.969574,114.989937 163.086334,115.206039 
	C163.412964,115.694420 163.686981,115.861526 164.350037,115.937408 
	C165.108521,115.955032 165.542084,115.958710 166.198242,116.227066 
	C167.637711,116.008011 168.854568,115.524284 170.438232,115.035263 
	C171.538605,115.019577 172.272186,115.009178 173.159073,115.233368 
	C173.928101,115.467430 174.543823,115.466888 175.159546,115.466347 
	C174.768021,115.304893 174.376511,115.143440 173.989990,114.583298 
	C174.080368,110.780724 172.925842,108.560089 169.010010,108.607864 
	C169.317795,107.166985 169.632416,106.086334 169.947021,105.005676 
z"/>
<path fill="#856539" opacity="1.000000" stroke="none" 
	d="
M76.979996,51.839924 
	C81.235474,49.481243 85.490952,47.122566 90.280823,44.396927 
	C91.941246,44.335239 93.067284,44.640511 94.193314,44.945782 
	C93.798874,49.035526 93.404434,53.125271 92.520569,57.648781 
	C90.653297,57.718700 89.275459,57.354858 88.056274,56.684799 
	C89.646782,52.863403 87.090698,53.178753 84.989197,52.738121 
	C84.313446,53.282906 83.656250,54.129208 82.571915,54.972076 
	C80.436066,54.984272 78.727356,54.999905 76.894035,54.747849 
	C76.839607,53.600079 76.909805,52.720001 76.979996,51.839924 
z"/>
<path fill="#A76E25" opacity="1.000000" stroke="none" 
	d="
M145.980957,123.012299 
	C145.612671,123.914093 144.992142,124.799355 144.931702,125.721329 
	C144.825180,127.346382 145.060486,128.993851 145.152679,130.631927 
	C143.206909,130.294006 141.261124,129.956085 139.031418,129.033691 
	C138.504883,127.979424 138.262299,127.509605 138.231842,126.899895 
	C137.942078,126.177307 137.440170,125.594604 136.938263,125.011894 
	C136.958664,123.953728 136.979065,122.895561 137.360214,121.259827 
	C137.877289,119.774590 138.033600,118.866905 138.520203,117.902847 
	C140.900986,116.563942 142.951477,115.281410 145.335236,113.998199 
	C146.112869,113.990623 146.557251,113.983719 147.004059,113.987518 
	C147.006485,113.998230 147.024063,114.011330 147.016541,114.398499 
	C146.666321,117.527878 146.323639,120.270088 145.980957,123.012299 
z"/>
<path fill="#BD7F38" opacity="1.000000" stroke="none" 
	d="
M89.762375,98.035606 
	C89.699165,99.404503 89.635948,100.773399 89.145325,102.553619 
	C88.147415,103.307373 87.576912,103.649796 86.676346,103.994736 
	C85.906792,104.005928 85.467300,104.014587 84.761978,103.735550 
	C82.795113,103.130791 81.094086,102.813736 79.393066,102.496681 
	C79.617043,102.132912 79.841026,101.769142 80.065002,101.405373 
	C78.753357,100.280960 77.441704,99.156548 76.264595,97.705467 
	C78.589600,95.939903 80.780060,94.501007 82.980919,92.676186 
	C82.998291,91.520920 83.005272,90.751572 83.405365,89.974503 
	C84.544006,88.970383 85.410172,88.040970 86.008698,86.962967 
	C87.086586,85.021584 88.004135,82.991180 88.984650,81.400208 
	C88.653816,84.194084 88.326988,86.585724 87.727715,89.228760 
	C87.623672,91.329231 87.792076,93.178291 87.976402,95.364372 
	C88.582336,96.479462 89.172356,97.257530 89.762375,98.035606 
M86.183525,98.265587 
	C86.027374,98.378258 85.871223,98.490936 85.715080,98.603615 
	C85.932335,98.581123 86.149590,98.558632 86.183525,98.265587 
z"/>
<path fill="#D09855" opacity="1.000000" stroke="none" 
	d="
M91.947678,70.927299 
	C91.798882,72.650734 91.650078,74.374168 91.060379,76.542984 
	C90.038467,77.319054 89.457458,77.649742 88.465721,77.988846 
	C85.014275,77.663681 81.973549,77.330116 78.945206,76.628494 
	C78.654037,74.841408 78.350494,73.422394 78.432037,72.051476 
	C80.771736,72.084709 82.726341,72.069847 84.680946,72.054985 
	C84.040970,70.538483 83.400993,69.021988 82.642731,67.225182 
	C83.796608,67.146057 84.900909,67.070328 86.304718,66.849426 
	C88.314842,66.517502 90.025452,66.330750 91.749313,66.543549 
	C91.824265,68.271172 91.885971,69.599236 91.947678,70.927299 
z"/>
<path fill="#704B19" opacity="1.000000" stroke="none" 
	d="
M90.000801,137.996338 
	C91.526604,138.308884 93.429070,139.362793 94.515610,138.810760 
	C100.484917,135.777954 100.430519,135.646851 103.864006,142.058289 
	C104.892090,143.742813 105.772713,144.777786 106.726059,145.898209 
	C106.373489,146.332779 105.685524,147.180756 104.605240,148.024323 
	C103.427742,148.071701 102.642548,148.123489 101.857361,148.175293 
	C101.857361,148.175293 102.000694,148.071442 101.950882,147.768311 
	C100.273994,146.975174 98.646904,146.485138 97.019821,145.995117 
	C94.810364,144.847961 92.600906,143.700821 90.095070,142.007690 
	C89.199722,140.981781 88.600754,140.501831 88.042267,139.698792 
	C88.722099,138.915924 89.361450,138.456131 90.000801,137.996338 
z"/>
<path fill="#9D6826" opacity="1.000000" stroke="none" 
	d="
M153.066299,93.566063 
	C153.066299,93.566063 153.516983,93.668945 153.094879,93.746918 
	C149.443253,93.222992 146.213715,92.621094 142.690292,91.888405 
	C141.590607,91.503502 140.784805,91.249390 139.940948,90.599838 
	C139.352982,88.932854 138.803085,87.661301 138.262527,86.392792 
	C138.271851,86.395836 138.225983,86.391052 138.225983,86.391052 
	C139.050659,85.811241 139.875336,85.231438 141.201263,84.297760 
	C142.446136,83.631226 143.189743,83.318558 144.173660,83.277786 
	C145.607483,83.715279 146.801025,83.880867 148.251617,84.316498 
	C150.014923,84.708061 151.521149,84.829567 153.027374,84.951080 
	C153.352234,85.062805 153.611130,85.260773 153.630173,86.000885 
	C153.326263,88.826546 153.196289,91.196304 153.066299,93.566063 
z"/>
<path fill="#140A08" opacity="1.000000" stroke="none" 
	d="
M107.682159,59.180378 
	C107.848633,59.172974 108.124542,59.099194 108.166031,59.167595 
	C112.077957,65.617119 119.800949,68.224342 124.212578,74.738022 
	C128.584229,73.188416 129.747147,76.620583 130.667847,80.303284 
	C129.602692,80.384567 128.794250,80.196014 127.862930,79.677727 
	C124.838562,77.899300 121.937065,76.450607 119.061554,74.640663 
	C117.314667,72.865150 115.541786,71.450890 113.785782,69.771927 
	C113.348335,68.969490 112.894028,68.431755 112.315216,67.556229 
	C111.139946,66.445213 110.089195,65.671982 108.918053,64.549942 
	C108.425835,62.527538 108.054001,60.853958 107.682159,59.180378 
z"/>
<path fill="#54350F" opacity="1.000000" stroke="none" 
	d="
M140.956238,144.990479 
	C141.080292,143.672623 141.204346,142.354752 141.910065,141.210159 
	C142.838913,142.446548 143.186081,143.509674 143.646896,144.920898 
	C145.860626,144.266113 147.954559,143.646759 150.048508,143.027405 
	C149.660141,146.981155 149.271759,150.934891 148.345856,154.700104 
	C146.865402,153.676880 145.922485,152.842178 144.588654,152.002457 
	C142.516907,151.997437 140.836044,151.997437 138.858307,151.997437 
	C139.632553,149.411499 140.294403,147.200989 140.956238,144.990479 
z"/>
<path fill="#BB8C4A" opacity="1.000000" stroke="none" 
	d="
M87.897614,56.991013 
	C89.275459,57.354858 90.653297,57.718700 92.389580,58.088135 
	C92.793892,59.439354 92.839767,60.784977 92.647705,62.538185 
	C92.409760,62.945763 91.957169,62.991043 91.596512,63.034012 
	C89.820572,63.383644 88.405289,63.690311 86.995071,63.997822 
	C87.000137,63.998665 87.003242,64.011139 86.942863,63.652954 
	C84.541321,59.227543 81.139778,62.055004 78.023857,61.595764 
	C77.579315,59.161133 77.298988,57.088333 77.018654,55.015533 
	C78.727356,54.999905 80.436066,54.984272 82.461868,55.199696 
	C82.511566,55.627537 82.244164,55.824326 81.690140,56.128559 
	C80.850296,56.660263 80.297066,57.084522 79.743828,57.508781 
	C79.871323,57.783871 79.998810,58.058960 80.126305,58.334049 
	C81.723427,57.900810 83.320541,57.467571 84.952255,57.020279 
	C84.986839,57.006218 85.055275,56.976337 85.411636,56.979622 
	C86.477867,56.985611 87.187744,56.988316 87.897614,56.991013 
z"/>
<path fill="#A56F2B" opacity="1.000000" stroke="none" 
	d="
M60.026703,123.893494 
	C59.664757,123.550201 59.302811,123.206902 58.546684,122.511497 
	C56.080059,120.610153 54.007618,119.060913 51.951431,117.091843 
	C51.977325,116.113525 51.986961,115.555054 52.372292,114.991440 
	C55.593781,113.959717 58.439571,112.933121 62.352497,111.521568 
	C61.818611,116.577591 61.446800,120.098732 60.814598,123.694710 
	C60.378372,123.810875 60.202538,123.852188 60.026703,123.893494 
z"/>
<path fill="#BD843D" opacity="1.000000" stroke="none" 
	d="
M147.994553,84.046448 
	C146.801025,83.880867 145.607483,83.715279 144.012756,83.020363 
	C143.039246,82.322891 142.466949,82.154739 141.894638,81.986595 
	C141.941772,81.245300 141.988907,80.504005 142.265060,79.272781 
	C144.012909,76.867538 145.531769,74.952209 147.426208,73.026291 
	C149.868286,72.341568 151.934753,71.667450 154.001221,70.993340 
	C153.338348,73.405838 152.675476,75.818329 151.672318,78.645996 
	C149.177765,80.025490 146.888504,80.899445 147.994553,84.046448 
z"/>
<path fill="#68471D" opacity="1.000000" stroke="none" 
	d="
M108.000687,141.985046 
	C108.881783,141.489868 109.762878,140.994690 111.171783,140.233276 
	C113.134712,139.991974 114.569839,140.016937 116.004959,140.041885 
	C116.004959,140.041885 116.441818,140.051071 116.726418,140.375885 
	C117.680794,141.117706 118.350571,141.534714 119.020348,141.951706 
	C120.192421,142.552902 121.364487,143.154114 122.729202,144.306335 
	C122.929596,145.201813 122.937340,145.546265 122.945084,145.890701 
	C122.880722,146.346527 122.816360,146.802338 122.392685,147.651443 
	C121.360466,148.368271 120.687569,148.691818 119.625427,149.010498 
	C117.821053,148.670059 116.405937,148.334473 115.124016,147.685272 
	C114.099403,146.283585 113.023239,145.086563 111.759674,144.139572 
	C110.612686,143.279953 109.261726,142.692490 108.000687,141.985046 
z"/>
<path fill="#523922" opacity="1.000000" stroke="none" 
	d="
M120.014679,149.015366 
	C120.687569,148.691818 121.360466,148.368271 122.296455,147.983368 
	C122.339989,150.937881 122.120430,153.953751 121.723740,157.538208 
	C121.314468,158.345001 121.209991,158.629944 121.233170,158.961624 
	C121.176849,159.410736 121.120522,159.859848 121.021988,161.021851 
	C120.322662,162.817825 119.665543,163.900909 119.008423,164.983994 
	C118.470642,163.791672 117.932861,162.599335 116.988266,160.929321 
	C113.688812,157.667099 110.796173,154.882584 107.930618,152.070465 
	C107.957710,152.042862 108.011734,151.987534 108.384323,151.992218 
	C109.502464,151.998688 110.248009,152.000458 111.194107,152.274002 
	C113.641396,154.223816 115.888123,155.901855 118.399338,157.777451 
	C118.976158,154.648621 119.495415,151.831985 120.014679,149.015366 
z"/>
<path fill="#886438" opacity="1.000000" stroke="none" 
	d="
M134.273285,161.511230 
	C135.447601,164.495209 141.224121,166.082458 138.203461,171.066055 
	C138.069366,171.287292 138.176682,171.740524 138.307800,172.022278 
	C138.936371,173.372986 139.611908,174.701828 140.270752,176.038452 
	C138.404755,176.034561 136.538773,176.030670 134.247955,175.754730 
	C133.565628,174.985428 133.308136,174.488159 133.050629,173.990906 
	C133.152954,172.961700 133.255264,171.932480 133.721695,170.419067 
	C134.067230,168.956268 134.048645,167.977661 134.030075,166.999054 
	C134.075790,165.306091 134.121506,163.613129 134.273285,161.511230 
z"/>
<path fill="#62481D" opacity="1.000000" stroke="none" 
	d="
M140.582245,144.993027 
	C140.294403,147.200989 139.632553,149.411499 138.858307,151.997437 
	C140.836044,151.997437 142.516907,151.997437 144.537292,152.349152 
	C142.921188,153.798538 140.965530,154.896194 138.874893,155.807205 
	C138.162964,155.749359 137.586014,155.878159 137.004227,156.003174 
	C136.999405,155.999374 136.990479,155.990509 136.989471,155.642517 
	C136.351318,154.535629 135.714188,153.776733 135.077057,153.017838 
	C135.186005,149.542664 135.294937,146.067490 135.672821,142.285980 
	C137.363907,142.984955 138.786087,143.990265 140.582245,144.993027 
z"/>
<path fill="#020309" opacity="1.000000" stroke="none" 
	d="
M66.998024,106.990654 
	C65.358238,103.136772 66.872185,100.131844 69.673897,97.046753 
	C70.653191,98.470001 71.481949,99.674461 72.911896,100.944778 
	C73.684845,101.011604 73.856613,101.012566 74.062485,101.383919 
	C74.000496,102.490280 73.904411,103.226257 73.569214,104.191727 
	C72.093628,106.319458 70.857155,108.217697 69.359985,110.516159 
	C68.194168,108.776047 67.596092,107.883347 66.998024,106.990654 
z"/>
<path fill="#210F05" opacity="1.000000" stroke="none" 
	d="
M66.584618,106.998543 
	C67.596092,107.883347 68.194168,108.776047 69.359985,110.516159 
	C70.857155,108.217697 72.093628,106.319458 73.635849,104.606522 
	C73.682816,107.531693 73.424034,110.271561 72.957596,113.324913 
	C71.162872,113.249214 69.510422,113.026443 68.003136,112.434212 
	C65.338440,111.387238 62.762115,110.115349 59.960476,108.638992 
	C58.849327,108.226776 57.926510,108.113167 57.003693,107.999550 
	C60.059532,107.668510 63.115372,107.337471 66.584618,106.998543 
z"/>
<path fill="#63400C" opacity="1.000000" stroke="none" 
	d="
M139.009857,155.993835 
	C140.965530,154.896194 142.921188,153.798538 144.928192,152.354187 
	C145.922485,152.842178 146.865402,153.676880 147.960876,154.825592 
	C148.080826,156.180176 148.048233,157.220779 147.713211,158.768982 
	C146.926331,160.498505 146.441879,161.720383 145.714417,163.052414 
	C144.653824,163.102081 143.836273,163.041595 143.018723,162.981125 
	C143.404465,161.116776 143.790207,159.252426 144.481155,155.912979 
	C141.567627,158.322357 139.708221,159.860016 137.478104,161.704224 
	C137.268707,160.439606 137.124649,159.569519 136.986633,158.102905 
	C136.992706,157.506363 137.003311,157.014587 137.301727,156.987488 
	C138.070053,156.638214 138.539948,156.316025 139.009857,155.993835 
z"/>
<path fill="#A17947" opacity="1.000000" stroke="none" 
	d="
M112.439720,67.894028 
	C112.894028,68.431755 113.348335,68.969490 113.484146,69.822571 
	C112.106705,71.078499 111.047768,72.019073 109.605667,72.980759 
	C105.334106,75.792984 105.223267,78.925415 108.945297,81.455231 
	C108.912277,82.426735 108.872047,82.982918 108.494194,83.466110 
	C107.087189,83.018661 106.017815,82.644211 104.948425,82.269753 
	C104.632019,80.047356 104.082642,77.826294 104.069893,75.602158 
	C104.058884,73.681297 104.658051,71.756935 105.406349,69.429977 
	C107.126884,69.404030 108.428551,69.782219 109.856026,70.196960 
	C109.910904,69.307816 109.950798,68.661377 110.399445,68.014091 
	C111.352028,67.973511 111.895874,67.933769 112.439720,67.894028 
z"/>
<path fill="#825927" opacity="1.000000" stroke="none" 
	d="
M142.726501,163.111359 
	C143.836273,163.041595 144.653824,163.102081 146.067886,163.067810 
	C147.135162,162.967941 147.605942,162.962799 148.076706,162.957657 
	C148.482529,163.949966 148.888367,164.942291 149.136169,166.609299 
	C148.986023,169.170700 148.993881,171.057404 149.001724,172.944107 
	C148.712891,173.144516 148.424072,173.344940 147.964371,173.752792 
	C146.198898,172.884796 144.604309,171.809357 143.004852,170.366974 
	C143.000000,170.000000 143.004410,169.994507 143.004410,169.994507 
	C143.773346,169.919876 144.542282,169.845230 146.850372,169.621185 
	C143.947281,167.444458 142.078751,166.043442 140.015671,164.496552 
	C140.726044,164.127960 141.580154,163.684784 142.726501,163.111359 
z"/>
<path fill="#9F6C33" opacity="1.000000" stroke="none" 
	d="
M152.627686,112.951645 
	C153.128387,112.979439 153.315674,112.989799 153.783981,113.014618 
	C153.353088,117.411980 152.641174,121.794899 151.835632,126.602295 
	C151.289062,127.401833 150.836136,127.776894 149.995056,128.473389 
	C149.995056,126.914886 149.995056,125.812027 149.998718,123.932045 
	C149.009613,120.107063 148.016846,117.059196 147.024063,114.011330 
	C147.024063,114.011330 147.006485,113.998230 147.135803,113.692703 
	C148.164551,112.607819 149.063995,111.828453 149.963440,111.049088 
	C150.747055,111.677460 151.530670,112.305832 152.627686,112.951645 
z"/>
<path fill="#996824" opacity="1.000000" stroke="none" 
	d="
M127.985809,80.007462 
	C128.794250,80.196014 129.602692,80.384567 130.718933,80.647003 
	C131.488754,81.071449 131.950775,81.422012 132.675781,82.129883 
	C132.968689,82.651634 132.998611,82.816078 132.918488,83.257240 
	C132.208420,84.027016 131.608429,84.520073 130.651031,84.973709 
	C128.863480,85.407883 127.037964,85.485001 126.084137,86.436218 
	C123.988319,88.526299 122.466698,89.087341 121.192093,85.741798 
	C123.585571,83.647301 125.785690,81.827377 127.985809,80.007462 
z"/>
<path fill="#9A6827" opacity="1.000000" stroke="none" 
	d="
M120.998734,86.016380 
	C122.466698,89.087341 123.988319,88.526299 126.084137,86.436218 
	C127.037964,85.485001 128.863480,85.407883 130.439911,85.249817 
	C129.381760,88.055611 128.177307,90.545876 126.608063,93.138550 
	C125.490875,93.246246 124.738495,93.251534 123.986115,93.256821 
	C123.986115,93.256821 123.564697,93.043373 123.183113,92.702576 
	C121.866364,91.909668 120.931198,91.457558 119.996033,91.005447 
	C119.701118,90.803604 119.406197,90.601753 118.942329,89.946587 
	C118.827705,89.089561 118.882034,88.685860 118.972214,87.929443 
	C119.671616,87.056618 120.335175,86.536499 120.998734,86.016380 
z"/>
<path fill="#94672B" opacity="1.000000" stroke="none" 
	d="
M147.050613,73.036888 
	C145.531769,74.952209 144.012909,76.867538 142.197296,78.905945 
	C141.687866,76.219177 141.475189,73.409332 141.461685,70.301422 
	C141.883713,69.987671 142.106583,69.971985 143.062378,69.976555 
	C144.855789,70.032021 145.916275,70.067223 146.978256,70.468964 
	C147.003372,71.569290 147.026993,72.303085 147.050613,73.036888 
z"/>
<path fill="#01000C" opacity="1.000000" stroke="none" 
	d="
M183.368622,109.007072 
	C182.649612,107.918953 182.315414,106.836105 181.976807,105.390831 
	C185.723862,102.715652 188.619705,105.030449 192.148376,106.336823 
	C189.878601,110.703766 186.788757,109.760757 183.368622,109.007072 
z"/>
<path fill="#250F05" opacity="1.000000" stroke="none" 
	d="
M51.935177,117.511681 
	C54.007618,119.060913 56.080059,120.610153 58.292747,122.465393 
	C52.516525,122.179466 47.233131,120.427307 43.975639,114.481506 
	C43.942177,114.062012 44.073742,113.909630 44.390652,113.967117 
	C45.688335,114.465347 46.669109,114.906082 47.861351,115.543106 
	C48.604691,115.932732 49.136570,116.126068 49.924282,116.513466 
	C50.765137,116.975578 51.350159,117.243629 51.935177,117.511681 
z"/>
<path fill="#6D4919" opacity="1.000000" stroke="none" 
	d="
M150.092621,142.666367 
	C147.954559,143.646759 145.860626,144.266113 143.646896,144.920898 
	C143.186081,143.509674 142.838913,142.446548 142.229752,141.150665 
	C143.992996,135.813782 144.616348,135.719833 149.847931,139.957901 
	C150.160278,140.859604 150.148499,141.582474 150.092621,142.666367 
z"/>
<path fill="#A17233" opacity="1.000000" stroke="none" 
	d="
M87.006409,103.992218 
	C87.576912,103.649796 88.147415,103.307373 88.976715,102.930328 
	C88.842079,108.981186 88.448631,115.066666 87.971161,121.570679 
	C87.887131,121.989212 87.439667,121.992302 87.074623,121.653412 
	C86.473549,119.873108 86.237511,118.431702 86.001190,116.995453 
	C86.000916,117.000618 85.991798,117.005623 86.253708,116.796738 
	C86.354225,115.396492 86.192833,114.205124 86.022850,113.010330 
	C86.014252,113.006905 86.005310,112.990891 86.006836,112.573509 
	C86.341034,109.434822 86.673721,106.713524 87.006409,103.992218 
z"/>
<path fill="#110604" opacity="1.000000" stroke="none" 
	d="
M107.903534,152.098053 
	C110.796173,154.882584 113.688812,157.667099 116.715897,160.752899 
	C111.555092,159.309540 106.403770,157.370361 104.397415,151.301254 
	C105.777222,151.362457 106.840378,151.730255 107.903534,152.098053 
z"/>
<path fill="#02030B" opacity="1.000000" stroke="none" 
	d="
M102.980888,60.455250 
	C102.718666,64.004829 102.442368,67.134537 102.166069,70.264236 
	C101.587234,70.282249 101.008408,70.300255 100.429573,70.318268 
	C100.006905,67.198502 99.422600,64.086746 99.267494,60.953732 
	C99.225121,60.097740 100.471954,59.177921 101.127151,58.287399 
	C101.740372,58.870056 102.353592,59.452713 102.980888,60.455250 
z"/>
<path fill="#A56F2B" opacity="1.000000" stroke="none" 
	d="
M73.000610,120.001518 
	C72.416534,121.145378 71.832466,122.289238 70.734947,123.724243 
	C68.477516,124.678848 66.733528,125.342300 64.989548,126.005768 
	C64.249550,125.680115 63.509560,125.354462 62.428772,124.742676 
	C62.087982,124.456535 62.009216,123.998749 62.302979,123.951965 
	C64.065376,122.277847 65.534004,120.650497 67.338058,119.017784 
	C68.120750,119.007843 68.568031,119.003265 69.311401,118.980576 
	C70.074303,118.648926 70.541100,118.335403 71.006653,118.013779 
	C71.005402,118.005684 71.027382,118.019569 71.354637,118.020325 
	C72.118073,118.019096 72.554245,118.017120 72.991837,118.346191 
	C72.995697,119.118675 72.998154,119.560097 73.000610,120.001518 
M68.517769,121.402321 
	C68.517769,121.402321 68.590660,121.521721 68.517769,121.402321 
z"/>
<path fill="#210F05" opacity="1.000000" stroke="none" 
	d="
M76.894035,54.747845 
	C77.298988,57.088333 77.579315,59.161133 77.972977,61.952759 
	C77.977425,64.107552 77.868546,65.543518 77.759659,66.979477 
	C76.599731,62.133587 75.194260,57.326847 74.411987,52.420742 
	C74.135239,50.685078 75.732765,50.173534 76.989548,51.537605 
	C76.909805,52.720001 76.839607,53.600079 76.894035,54.747845 
z"/>
<path fill="#03020D" opacity="1.000000" stroke="none" 
	d="
M94.560394,121.191940 
	C93.000641,121.046310 90.979881,120.936180 90.497444,120.017883 
	C89.535217,118.186325 91.934349,114.217567 94.795113,113.025421 
	C94.795113,115.836746 94.795113,118.349342 94.560394,121.191940 
z"/>
<path fill="#262626" opacity="1.000000" stroke="none" 
	d="
M110.755402,183.072342 
	C111.189857,182.212219 111.946671,181.011307 112.480942,181.103256 
	C115.330673,181.593796 118.124756,182.407639 121.569191,183.267120 
	C119.913086,183.977142 118.576965,184.176041 117.819672,184.944977 
	C115.573044,187.226135 113.671021,189.216370 112.719650,184.081299 
	C112.655388,183.734436 111.580124,183.574860 110.755402,183.072342 
z"/>
<path fill="#1D2024" opacity="1.000000" stroke="none" 
	d="
M91.957596,177.069366 
	C93.179794,178.383514 94.595558,179.676971 94.635818,181.011902 
	C94.663452,181.927902 92.903618,183.190796 91.690681,183.712616 
	C91.177605,183.933334 89.194283,182.404617 89.287827,182.090439 
	C89.807632,180.344543 90.760239,178.727509 91.957596,177.069366 
z"/>
<path fill="#61462B" opacity="1.000000" stroke="none" 
	d="
M82.998398,151.003082 
	C83.602654,148.182724 84.206917,145.362381 85.225067,142.348236 
	C85.877342,142.463669 86.115730,142.772873 86.354126,143.082092 
	C86.217316,145.089905 86.080498,147.097717 85.694260,149.769272 
	C85.375481,151.308289 85.306129,152.183578 85.236778,153.058853 
	C85.140968,154.424911 85.045158,155.790970 84.879883,157.562561 
	C83.875885,156.906967 82.941353,155.845825 82.269089,154.192612 
	C82.687035,152.734711 82.842720,151.868896 82.998398,151.003082 
z"/>
<path fill="#8E6537" opacity="1.000000" stroke="none" 
	d="
M109.990700,68.014931 
	C109.950798,68.661377 109.910904,69.307816 109.856026,70.196960 
	C108.428551,69.782219 107.126884,69.404030 105.487137,69.028259 
	C105.748772,65.746445 106.348495,62.462208 107.315186,59.179176 
	C108.054001,60.853958 108.425835,62.527538 108.912582,64.882217 
	C109.348564,66.380524 109.669632,67.197723 109.990700,68.014931 
z"/>
<path fill="#02030B" opacity="1.000000" stroke="none" 
	d="
M159.109467,125.272881 
	C157.635406,124.786888 156.016022,124.329193 155.417557,123.285873 
	C155.036926,122.622337 155.997849,120.251373 156.662186,120.113281 
	C158.252090,119.782814 160.022278,120.319695 163.068359,120.654793 
	C161.167480,122.931755 160.281952,123.992485 159.109467,125.272881 
z"/>
<path fill="#0B060F" opacity="1.000000" stroke="none" 
	d="
M94.423141,44.715515 
	C93.067284,44.640511 91.941246,44.335239 90.455887,44.098106 
	C89.120819,43.117168 87.656250,42.188206 87.357620,40.972775 
	C87.185860,40.273682 88.902145,39.110714 89.768539,38.156563 
	C91.396683,40.266125 93.024826,42.375687 94.423141,44.715515 
z"/>
<path fill="#B08038" opacity="1.000000" stroke="none" 
	d="
M88.876442,77.980431 
	C89.457458,77.649742 90.038467,77.319054 90.857307,76.919724 
	C91.136086,78.648552 91.177032,80.446030 90.947830,82.697098 
	C90.605644,83.251846 90.450294,83.403831 90.475731,83.445503 
	C90.597099,83.644417 90.767570,83.813377 90.920570,83.992989 
	C90.736702,86.067787 90.552834,88.142578 89.982002,90.604355 
	C89.395470,90.998344 89.195885,91.005371 88.975403,90.711395 
	C88.636398,89.932701 88.318283,89.455025 88.000160,88.977356 
	C88.326988,86.585724 88.653816,84.194084 88.971741,81.023277 
	C88.934036,79.489548 88.905235,78.734985 88.876442,77.980431 
z"/>
<path fill="#200B06" opacity="1.000000" stroke="none" 
	d="
M104.965546,82.630142 
	C106.017815,82.644211 107.087189,83.018661 108.615410,83.745697 
	C111.393341,85.371819 113.712433,86.645348 116.271835,88.000076 
	C116.671005,88.139252 116.829865,88.197235 116.988541,88.553818 
	C116.998367,89.251068 117.008385,89.649712 117.018402,90.048347 
	C112.720062,88.184174 107.343941,88.157967 104.965546,82.630142 
z"/>
<path fill="#895928" opacity="1.000000" stroke="none" 
	d="
M65.007874,126.205391 
	C66.733528,125.342300 68.477516,124.678848 70.609756,124.020065 
	C71.669746,125.765648 72.341492,127.506561 73.021400,129.617035 
	C72.809441,130.019684 72.589317,130.052765 71.768387,129.950653 
	C69.146446,128.809738 67.125305,127.804031 65.104164,126.798317 
	C65.104164,126.798317 65.026207,126.405022 65.007874,126.205391 
z"/>
<path fill="#A77A3A" opacity="1.000000" stroke="none" 
	d="
M77.828186,67.241730 
	C77.868546,65.543518 77.977425,64.107552 78.137184,62.314590 
	C81.139778,62.055004 84.541321,59.227543 86.572144,63.608269 
	C83.807732,62.967510 81.578941,62.255413 80.877251,66.085243 
	C80.737350,66.848839 79.127228,67.343063 78.101631,67.991783 
	C78.008217,68.022064 77.812599,68.039551 77.812599,68.039551 
	C77.840630,67.861038 77.868668,67.682518 77.828186,67.241730 
z"/>
<path fill="#CFB28D" opacity="1.000000" stroke="none" 
	d="
M56.616451,108.128967 
	C57.926510,108.113167 58.849327,108.226776 59.686478,108.946373 
	C53.986931,110.108025 48.373055,110.663681 42.555222,111.168655 
	C42.351265,111.117966 41.947075,111.002640 41.947075,111.002640 
	C46.707787,110.087883 51.468498,109.173126 56.616451,108.128967 
z"/>
<path fill="#A77F4E" opacity="1.000000" stroke="none" 
	d="
M78.046951,72.003372 
	C78.350494,73.422394 78.654037,74.841408 78.662590,76.913467 
	C78.252151,80.379898 78.136703,83.193283 77.761093,86.017365 
	C77.327972,86.042862 77.155014,86.057663 76.713242,86.045525 
	C76.264557,86.009201 76.084686,85.999832 75.906204,85.573746 
	C75.894859,83.773865 75.882133,82.390678 75.869408,81.007500 
	C76.234932,77.960167 76.600464,74.912834 77.244400,71.426224 
	C77.522820,70.986938 77.948593,70.887024 77.974182,71.166023 
	C78.015495,71.631142 78.031227,71.817253 78.046951,72.003372 
z"/>
<path fill="#8C6125" opacity="1.000000" stroke="none" 
	d="
M82.970520,93.062103 
	C80.780060,94.501007 78.589600,95.939903 76.208176,97.930450 
	C76.017220,98.482109 75.974770,98.944046 75.709503,98.960060 
	C75.266983,98.971260 75.089729,98.966438 74.876617,98.549522 
	C74.834595,96.765427 74.828438,95.393425 74.822281,94.021423 
	C74.924896,93.544640 75.027504,93.067863 75.541679,92.299927 
	C76.620560,92.321434 77.287888,92.634079 78.375122,92.965408 
	C80.186867,93.010086 81.578690,93.036095 82.970520,93.062103 
z"/>
<path fill="#6C4B23" opacity="1.000000" stroke="none" 
	d="
M72.990250,167.000351 
	C71.269333,165.339844 69.548409,163.679337 67.495255,162.013855 
	C67.446686,160.910522 67.730354,159.812164 68.065842,158.371185 
	C69.914108,158.922302 71.710548,159.816071 73.738113,161.242249 
	C73.642914,163.516541 73.316582,165.258438 72.990250,167.000351 
z"/>
<path fill="#1E0801" opacity="1.000000" stroke="none" 
	d="
M138.189911,117.959221 
	C138.033600,118.866905 137.877289,119.774590 137.428192,120.868591 
	C135.967209,117.146118 133.969650,113.230423 137.523987,109.185806 
	C137.865601,110.076180 137.915894,111.139221 137.947693,113.006058 
	C138.016083,115.192970 138.102982,116.576096 138.189911,117.959221 
z"/>
<path fill="#604829" opacity="1.000000" stroke="none" 
	d="
M149.070465,173.269562 
	C148.993881,171.057404 148.986023,169.170700 149.182465,166.941864 
	C150.266281,168.436768 151.205978,170.252121 151.893494,172.158417 
	C151.940659,172.289169 150.101257,173.100296 149.070465,173.269562 
z"/>
<path fill="#04020E" opacity="1.000000" stroke="none" 
	d="
M45.097496,105.005180 
	C46.865417,105.143486 48.220856,105.285912 49.576294,105.428337 
	C49.601009,106.026337 49.625729,106.624344 49.650444,107.222343 
	C47.496086,107.411102 45.343319,107.658447 43.185425,107.717056 
	C42.904682,107.724678 42.597538,106.760086 42.302620,106.245819 
	C43.096752,105.833649 43.890884,105.421471 45.097496,105.005180 
z"/>
<path fill="#281609" opacity="1.000000" stroke="none" 
	d="
M124.151154,93.531883 
	C124.738495,93.251534 125.490875,93.246246 126.900131,93.289818 
	C128.999161,94.566048 130.441330,95.793419 131.883484,97.020790 
	C131.997299,97.384827 132.111130,97.748856 132.272873,98.392776 
	C129.652603,97.050758 126.984398,95.428848 124.151154,93.531883 
z"/>
<path fill="#110604" opacity="1.000000" stroke="none" 
	d="
M119.066429,165.337982 
	C119.665543,163.900909 120.322662,162.817825 121.022827,161.361511 
	C121.861343,162.333725 123.531883,163.888718 123.270302,164.981003 
	C122.723946,167.262421 120.944534,167.917358 119.066429,165.337982 
z"/>
<path fill="#170E08" opacity="1.000000" stroke="none" 
	d="
M115.958618,139.698120 
	C114.569839,140.016937 113.134712,139.991974 111.355133,139.979294 
	C110.696594,139.201202 110.382500,138.410858 110.038696,137.299362 
	C113.171722,134.801437 114.207695,137.908432 115.958618,139.698120 
z"/>
<path fill="#62481D" opacity="1.000000" stroke="none" 
	d="
M133.647308,176.921158 
	C134.719421,177.851135 135.791550,178.781097 137.003876,180.061981 
	C136.978943,180.684891 136.753723,180.891373 135.945251,181.063873 
	C134.960083,181.431274 134.498093,181.767136 134.036118,182.102997 
	C133.627304,180.980698 133.218475,179.858414 132.913940,178.167969 
	C133.172394,177.322083 133.382080,177.095856 133.647308,176.921158 
z"/>
<path fill="#210E04" opacity="1.000000" stroke="none" 
	d="
M65.090752,127.123169 
	C67.125305,127.804031 69.146446,128.809738 71.439095,130.005890 
	C71.648521,130.716400 71.586433,131.236496 71.315666,131.933594 
	C69.097099,130.556412 67.087219,129.002213 65.090752,127.123169 
z"/>
<path fill="#523922" opacity="1.000000" stroke="none" 
	d="
M107.930618,152.070465 
	C106.840378,151.730255 105.777222,151.362457 104.378723,150.935944 
	C103.354301,150.170883 102.665237,149.464554 101.916763,148.466751 
	C102.642548,148.123489 103.427742,148.071701 104.753670,148.314087 
	C106.200188,149.734695 107.105965,150.861115 108.011734,151.987534 
	C108.011734,151.987534 107.957710,152.042862 107.930618,152.070465 
z"/>
<path fill="#A17233" opacity="1.000000" stroke="none" 
	d="
M88.996300,91.012405 
	C89.195885,91.005371 89.395470,90.998344 89.894669,90.979645 
	C90.134155,93.081299 90.074020,95.194618 89.888130,97.671776 
	C89.172356,97.257530 88.582336,96.479462 88.254990,95.133125 
	C88.677208,93.380714 88.836754,92.196556 88.996300,91.012405 
z"/>
<path fill="#806746" opacity="1.000000" stroke="none" 
	d="
M142.796783,52.293915 
	C143.057251,53.963409 143.044937,55.906925 142.703308,57.966114 
	C142.423996,56.243835 142.474014,54.405884 142.796783,52.293915 
z"/>
<path fill="#210E04" opacity="1.000000" stroke="none" 
	d="
M70.324677,141.046524 
	C70.611084,142.764954 70.577461,144.608353 70.274864,146.728271 
	C70.005478,145.060379 70.005066,143.115921 70.324677,141.046524 
z"/>
<path fill="#806746" opacity="1.000000" stroke="none" 
	d="
M147.099991,47.464340 
	C146.153976,48.201351 145.023422,48.623398 143.529358,49.051643 
	C143.094437,47.778168 143.023056,46.498497 142.893326,44.172398 
	C144.717194,45.522335 145.816330,46.335854 147.099991,47.464340 
z"/>
<path fill="#210F05" opacity="1.000000" stroke="none" 
	d="
M74.561890,94.262222 
	C74.828438,95.393425 74.834595,96.765427 74.770683,98.808205 
	C74.476540,99.990501 74.252464,100.502014 74.028389,101.013535 
	C73.856613,101.012566 73.684845,101.011604 73.255447,101.004707 
	C73.432381,98.833527 73.866936,96.668274 74.561890,94.262222 
z"/>
<path fill="#210D03" opacity="1.000000" stroke="none" 
	d="
M86.667068,143.055542 
	C86.115730,142.772873 85.877342,142.463669 85.402679,141.983704 
	C85.439827,141.440475 85.713242,141.067993 86.407791,140.434021 
	C87.219879,140.122314 87.610832,140.072098 88.001778,140.021881 
	C88.600754,140.501831 89.199722,140.981781 89.885155,141.740021 
	C88.974411,142.355209 87.977203,142.692108 86.667068,143.055542 
z"/>
<path fill="#593B10" opacity="1.000000" stroke="none" 
	d="
M97.192169,146.301346 
	C98.646904,146.485138 100.273994,146.975174 101.871704,147.807541 
	C100.349716,147.635773 98.857109,147.121674 97.192169,146.301346 
z"/>
<path fill="#1E0801" opacity="1.000000" stroke="none" 
	d="
M136.639008,125.162987 
	C137.440170,125.594604 137.942078,126.177307 137.945190,127.010468 
	C137.287277,127.834358 137.128159,128.407791 136.969040,128.981232 
	C136.969040,128.981232 136.616638,129.076141 136.436798,129.100174 
	C136.284561,127.854164 136.312164,126.584122 136.639008,125.162987 
z"/>
<path fill="#A77F4E" opacity="1.000000" stroke="none" 
	d="
M77.955208,92.946732 
	C77.287888,92.634079 76.620560,92.321434 75.683044,91.962616 
	C75.383087,91.213127 75.353333,90.509789 75.658615,89.440598 
	C76.329666,89.031609 76.665672,88.988472 77.267471,89.186737 
	C77.673904,90.601006 77.814560,91.773865 77.955208,92.946732 
z"/>
<path fill="#190A05" opacity="1.000000" stroke="none" 
	d="
M66.990433,166.408508 
	C68.222778,167.162857 69.459167,168.288681 70.798454,169.721680 
	C69.599060,168.945892 68.296776,167.862930 66.990433,166.408508 
z"/>
<path fill="#BB9E80" opacity="1.000000" stroke="none" 
	d="
M138.272217,86.053650 
	C138.225983,86.391052 138.271851,86.395836 138.059326,86.304581 
	C136.543228,85.169785 135.239655,84.126251 134.084427,82.900612 
	C134.232773,82.718506 134.497543,82.330452 134.497543,82.330452 
	C135.771179,83.459053 137.044800,84.587654 138.272217,86.053650 
z"/>
<path fill="#180C06" opacity="1.000000" stroke="none" 
	d="
M133.705597,176.706512 
	C133.382080,177.095856 133.172394,177.322083 132.871796,177.785217 
	C132.614487,176.672974 132.503616,175.375336 132.721680,174.034302 
	C133.308136,174.488159 133.565628,174.985428 133.854095,175.773285 
	C133.885071,176.063904 133.763885,176.491882 133.705597,176.706512 
z"/>
<path fill="#1C0D0C" opacity="1.000000" stroke="none" 
	d="
M185.243652,115.968384 
	C184.648499,115.172195 184.420944,114.402580 184.067017,113.340317 
	C185.178146,113.566284 186.415665,114.084908 187.653198,114.603523 
	C186.972549,115.067337 186.291885,115.531143 185.243652,115.968384 
z"/>
<path fill="#856539" opacity="1.000000" stroke="none" 
	d="
M91.957169,62.991043 
	C91.957169,62.991043 92.409760,62.945763 92.636955,62.944199 
	C92.729286,65.409309 92.594421,67.875984 92.203613,70.634979 
	C91.885971,69.599236 91.824265,68.271172 91.820076,66.152344 
	C91.904114,64.571396 91.930641,63.781219 91.957169,62.991043 
z"/>
<path fill="#604829" opacity="1.000000" stroke="none" 
	d="
M148.105865,162.565186 
	C147.605942,162.962799 147.135162,162.967941 146.310913,162.957672 
	C146.441879,161.720383 146.926331,160.498505 147.676910,159.159714 
	C148.007019,160.086121 148.071014,161.129425 148.105865,162.565186 
z"/>
<path fill="#200E08" opacity="1.000000" stroke="none" 
	d="
M175.162643,117.954269 
	C176.045197,117.394836 177.237152,116.875114 178.754379,116.469284 
	C177.877121,117.053444 176.674576,117.523712 175.162643,117.954269 
z"/>
<path fill="#210F05" opacity="1.000000" stroke="none" 
	d="
M75.631760,81.226730 
	C75.882133,82.390678 75.894859,83.773865 75.694344,85.569633 
	C75.481102,85.982224 75.057854,86.013290 75.057846,86.013290 
	C75.169937,84.490845 75.282028,82.968399 75.631760,81.226730 
z"/>
<path fill="#250F05" opacity="1.000000" stroke="none" 
	d="
M41.690895,111.214668 
	C41.947075,111.002640 42.351265,111.117966 42.603249,111.471893 
	C43.261398,112.520424 43.667568,113.215027 44.073742,113.909630 
	C44.073742,113.909630 43.942177,114.062012 43.876778,114.141167 
	C43.019161,113.289116 42.226940,112.357910 41.690895,111.214668 
z"/>
<path fill="#210F05" opacity="1.000000" stroke="none" 
	d="
M77.948593,70.887024 
	C77.948593,70.887024 77.522820,70.986938 77.305626,71.012314 
	C77.120293,70.071533 77.152153,69.105385 77.498306,68.089394 
	C77.812599,68.039551 78.008217,68.022064 78.038033,68.353928 
	C78.028091,69.419533 77.988342,70.153275 77.948593,70.887024 
z"/>
<path fill="#210D03" opacity="1.000000" stroke="none" 
	d="
M85.538994,152.982300 
	C85.306129,152.183578 85.375481,151.308289 85.687485,150.202332 
	C85.900497,150.949692 85.870857,151.927704 85.538994,152.982300 
z"/>
<path fill="#62481D" opacity="1.000000" stroke="none" 
	d="
M137.003311,157.014587 
	C137.003311,157.014587 136.992706,157.506363 136.982025,157.752045 
	C136.325409,158.006973 135.679459,158.016220 134.716370,158.039627 
	C134.444946,157.487000 134.490662,156.920197 135.105316,156.173386 
	C136.112976,155.992416 136.551727,155.991470 136.990479,155.990509 
	C136.990479,155.990509 136.999405,155.999374 136.999481,156.255035 
	C137.000809,156.678650 137.002060,156.846619 137.003311,157.014587 
z"/>
<path fill="#724E22" opacity="1.000000" stroke="none" 
	d="
M136.989471,155.642517 
	C136.551727,155.991470 136.112976,155.992416 135.345306,155.997833 
	C135.013077,155.255325 135.009766,154.508347 135.041763,153.389603 
	C135.714188,153.776733 136.351318,154.535629 136.989471,155.642517 
z"/>
<path fill="#62481D" opacity="1.000000" stroke="none" 
	d="
M133.761200,167.225388 
	C134.048645,167.977661 134.067230,168.956268 133.822083,170.045166 
	C133.536331,169.254211 133.514328,168.352966 133.761200,167.225388 
z"/>
<path fill="#8C6125" opacity="1.000000" stroke="none" 
	d="
M75.076767,86.408302 
	C75.057854,86.013290 75.481102,85.982224 75.692963,85.986343 
	C76.084686,85.999832 76.264557,86.009201 76.719307,86.403732 
	C76.996681,87.507698 76.999184,88.226509 77.001678,88.945328 
	C76.665672,88.988472 76.329666,89.031609 75.741714,89.096130 
	C75.358406,88.346115 75.227043,87.574715 75.076767,86.408302 
z"/>
<path fill="#281609" opacity="1.000000" stroke="none" 
	d="
M120.047424,91.357018 
	C120.931198,91.457558 121.866364,91.909668 122.953491,92.647232 
	C122.103249,92.524643 121.101036,92.116615 120.047424,91.357018 
z"/>
<path fill="#94672B" opacity="1.000000" stroke="none" 
	d="
M141.610596,82.109085 
	C142.466949,82.154739 143.039246,82.322891 143.772461,82.748459 
	C143.189743,83.318558 142.446136,83.631226 141.398590,83.970154 
	C141.171967,83.408142 141.249268,82.819855 141.610596,82.109085 
z"/>
<path fill="#180C06" opacity="1.000000" stroke="none" 
	d="
M134.201447,182.312408 
	C134.498093,181.767136 134.960083,181.431274 135.730621,181.154633 
	C135.481720,181.649857 134.924255,182.085846 134.201447,182.312408 
z"/>
<path fill="#281609" opacity="1.000000" stroke="none" 
	d="
M117.294327,90.052284 
	C117.008385,89.649712 116.998367,89.251068 117.309723,88.473244 
	C118.066177,88.156754 118.501266,88.219460 118.936363,88.282158 
	C118.882034,88.685860 118.827705,89.089561 118.720665,89.795860 
	C118.302048,90.084381 117.936150,90.070305 117.294327,90.052284 
z"/>
<path fill="#170E08" opacity="1.000000" stroke="none" 
	d="
M118.972824,141.626740 
	C118.350571,141.534714 117.680794,141.117706 116.944809,140.381805 
	C117.560837,140.475861 118.243065,140.888824 118.972824,141.626740 
z"/>
<path fill="#250F05" opacity="1.000000" stroke="none" 
	d="
M62.009216,123.998749 
	C62.009216,123.998749 62.087982,124.456535 62.130486,124.684708 
	C61.560085,124.765213 60.947174,124.617554 60.180485,124.181686 
	C60.202538,123.852188 60.378372,123.810875 61.029175,123.836761 
	C61.672501,123.935555 61.840858,123.967155 62.009216,123.998749 
z"/>
<path fill="#180C06" opacity="1.000000" stroke="none" 
	d="
M132.237640,183.997147 
	C132.408920,183.883255 132.581253,183.938995 132.753601,183.994751 
	C132.581985,184.052094 132.410355,184.109436 132.237640,183.997147 
z"/>
<path fill="#281609" opacity="1.000000" stroke="none" 
	d="
M132.295807,98.988327 
	C132.746384,98.931808 133.250977,99.194565 133.910828,99.703918 
	C133.494003,99.736214 132.921921,99.521912 132.295807,98.988327 
z"/>
<path fill="#523922" opacity="1.000000" stroke="none" 
	d="
M123.184418,145.791702 
	C122.937340,145.546265 122.929596,145.201813 122.896927,144.605316 
	C123.055923,144.799728 123.239838,145.246216 123.184418,145.791702 
z"/>
<path fill="#94672B" opacity="1.000000" stroke="none" 
	d="
M141.702133,65.954147 
	C141.893036,66.067123 141.909851,66.328018 141.830902,66.971291 
	C141.618301,67.081741 141.472168,66.817474 141.398178,66.534355 
	C141.365692,66.410065 141.480240,66.247345 141.702133,65.954147 
z"/>
<path fill="#1C0D0C" opacity="1.000000" stroke="none" 
	d="
M158.385193,67.796570 
	C158.225601,67.615768 158.281052,67.248322 158.560974,66.692368 
	C158.723740,66.872543 158.661987,67.241226 158.385193,67.796570 
z"/>
<path fill="#110604" opacity="1.000000" stroke="none" 
	d="
M121.416458,158.820953 
	C121.209991,158.629944 121.314468,158.345001 121.734070,157.964127 
	C121.922264,158.148254 121.815002,158.434540 121.416458,158.820953 
z"/>
<path fill="#A17233" opacity="1.000000" stroke="none" 
	d="
M91.015991,83.752281 
	C90.767570,83.813377 90.597099,83.644417 90.475731,83.445503 
	C90.450294,83.403831 90.605644,83.251846 90.850662,83.075943 
	C91.052902,83.171326 91.082153,83.341446 91.015991,83.752281 
z"/>
<path fill="#180C06" opacity="1.000000" stroke="none" 
	d="
M140.028625,179.847198 
	C140.010101,179.652649 140.254318,179.414871 140.747864,179.111786 
	C140.761902,179.298981 140.526627,179.551483 140.028625,179.847198 
z"/>
<path fill="#190A05" opacity="1.000000" stroke="none" 
	d="
M75.117821,173.412537 
	C75.341774,173.185211 75.603951,173.289612 75.833534,173.781342 
	C75.613106,173.919830 75.398140,173.778351 75.117821,173.412537 
z"/>
<path fill="#BB9E80" opacity="1.000000" stroke="none" 
	d="
M133.028549,82.980522 
	C132.998611,82.816078 132.968689,82.651634 132.944702,82.236755 
	C133.315979,81.979698 133.681320,81.973083 134.272095,82.148468 
	C134.497543,82.330452 134.232773,82.718506 133.857697,82.876541 
	C133.482605,83.034569 133.028549,82.980522 133.028549,82.980522 
z"/>
<path fill="#AB7931" opacity="1.000000" stroke="none" 
	d="
M147.426208,73.026291 
	C147.026993,72.303085 147.003372,71.569290 147.030060,70.127220 
	C147.970856,68.616776 148.861343,67.814598 150.191681,66.616196 
	C148.959747,65.610085 147.965378,64.797981 146.971008,63.985870 
	C147.878586,63.628288 149.468170,62.804756 149.590424,62.983700 
	C151.182297,65.313744 152.566132,67.785912 154.001770,70.607819 
	C151.934753,71.667450 149.868286,72.341568 147.426208,73.026291 
z"/>
<path fill="#B6853E" opacity="1.000000" stroke="none" 
	d="
M146.626389,63.991043 
	C147.965378,64.797981 148.959747,65.610085 150.191681,66.616196 
	C148.861343,67.814598 147.970856,68.616776 147.028564,69.760696 
	C145.916275,70.067223 144.855789,70.032021 143.397522,69.974876 
	C144.707214,68.305374 141.656647,64.036217 146.626389,63.991043 
z"/>
<path fill="#B97E33" opacity="1.000000" stroke="none" 
	d="
M148.251617,84.316498 
	C146.888504,80.899445 149.177765,80.025490 151.666321,79.028397 
	C152.338211,80.755608 152.675797,82.515594 153.020386,84.613327 
	C151.521149,84.829567 150.014923,84.708061 148.251617,84.316498 
z"/>
<path fill="#A57030" opacity="1.000000" stroke="none" 
	d="
M153.481934,93.447647 
	C153.196289,91.196304 153.326263,88.826546 153.729630,86.227913 
	C154.003006,85.999039 154.418167,85.980682 154.625427,85.967964 
	C154.520996,88.413246 154.209290,90.871239 153.481934,93.447647 
z"/>
<path fill="#C3853D" opacity="1.000000" stroke="none" 
	d="
M132.918488,83.257240 
	C133.028549,82.980522 133.482605,83.034569 133.709351,83.058640 
	C135.239655,84.126251 136.543228,85.169785 138.050003,86.301529 
	C138.803085,87.661301 139.352982,88.932854 139.952881,90.601593 
	C140.002884,90.998779 140.003082,90.979080 139.756226,90.986900 
	C139.509369,90.994720 139.015701,91.011871 138.660461,91.069794 
	C137.527451,93.089233 136.749680,95.050743 135.971909,97.012253 
	C134.882050,97.009544 133.792206,97.006828 132.292908,97.012451 
	C130.441330,95.793419 128.999161,94.566048 127.264938,93.187408 
	C128.177307,90.545876 129.381760,88.055611 130.797318,85.289238 
	C131.608429,84.520073 132.208420,84.027016 132.918488,83.257240 
z"/>
<path fill="#BB8343" opacity="1.000000" stroke="none" 
	d="
M169.891891,104.637070 
	C169.632416,106.086334 169.317795,107.166985 168.653854,108.656021 
	C166.196121,110.032051 164.087692,110.999695 161.979279,111.967346 
	C161.094070,111.238464 160.249054,110.452263 159.313004,109.795898 
	C158.254608,109.053749 157.114441,108.428192 156.336029,107.376816 
	C157.436920,106.674446 158.211655,106.347198 158.986374,106.019951 
	C159.425095,106.009933 159.863831,105.999916 160.805740,106.210991 
	C161.869598,105.961723 162.430267,105.491364 162.990936,105.020996 
	C162.995392,104.844322 162.999847,104.667641 162.952240,103.897491 
	C162.283875,102.178345 161.667587,101.052673 161.051300,99.926994 
	C163.979782,101.374153 166.908279,102.821304 169.891891,104.637070 
z"/>
<path fill="#B67929" opacity="1.000000" stroke="none" 
	d="
M161.762329,112.080948 
	C164.087692,110.999695 166.196121,110.032051 168.660675,109.016251 
	C172.925842,108.560089 174.080368,110.780724 173.745300,114.589165 
	C173.495605,114.993721 173.005768,114.998779 173.005768,114.998779 
	C172.272186,115.009178 171.538605,115.019577 170.064728,115.021072 
	C168.208176,115.328911 167.091919,115.645645 165.975647,115.962387 
	C165.542084,115.958710 165.108521,115.955032 164.229111,115.727081 
	C163.568954,115.241608 163.297729,115.070648 162.969574,114.989937 
	C162.969574,114.989937 162.480560,114.961754 162.135071,114.739883 
	C161.599533,114.262657 161.351288,114.091782 161.044861,114.005402 
	C161.044861,114.005402 161.020935,113.983551 161.019043,113.726837 
	C161.017136,113.470123 160.993942,112.986557 160.993942,112.986557 
	C161.087372,112.659622 161.271179,112.395622 161.762329,112.080948 
z"/>
<path fill="#BB7F34" opacity="1.000000" stroke="none" 
	d="
M149.971741,110.622940 
	C149.063995,111.828453 148.164551,112.607819 147.133362,113.681999 
	C146.557251,113.983719 146.112869,113.990623 145.340546,113.635391 
	C145.493195,112.028008 145.973785,110.782745 146.577240,109.219162 
	C144.836624,109.137291 143.416885,109.070511 141.997162,109.003723 
	C142.156952,108.032272 141.973251,106.623703 142.543991,106.175224 
	C143.982407,105.044930 145.760880,104.347366 148.574692,102.854935 
	C149.051224,105.344444 149.515625,107.770615 149.971741,110.622940 
z"/>
<path fill="#B17932" opacity="1.000000" stroke="none" 
	d="
M136.383759,97.014282 
	C136.749680,95.050743 137.527451,93.089233 138.750916,91.233261 
	C139.465408,91.218895 139.734253,91.098991 140.003082,90.979080 
	C140.003082,90.979080 140.002884,90.998779 139.990952,90.997025 
	C140.784805,91.249390 141.590607,91.503502 142.722061,92.211853 
	C143.378754,93.468826 143.709778,94.271561 144.040802,95.074295 
	C141.625732,95.721634 139.210663,96.368973 136.383759,97.014282 
z"/>
<path fill="#BC843D" opacity="1.000000" stroke="none" 
	d="
M141.998627,109.398216 
	C143.416885,109.070511 144.836624,109.137291 146.577240,109.219162 
	C145.973785,110.782745 145.493195,112.028008 145.007263,113.636078 
	C142.951477,115.281410 140.900986,116.563942 138.520203,117.902847 
	C138.102982,116.576096 138.016083,115.192970 138.011536,113.401093 
	C140.432877,113.191711 142.356415,112.883873 141.998627,109.398216 
z"/>
<path fill="#A57030" opacity="1.000000" stroke="none" 
	d="
M144.390686,95.121574 
	C143.709778,94.271561 143.378754,93.468826 143.015961,92.342644 
	C146.213715,92.621094 149.443253,93.222992 153.090042,93.978004 
	C153.507309,94.131119 153.573349,94.302223 153.601807,94.387077 
	C150.672012,94.767914 148.023956,99.020569 144.390686,95.121574 
z"/>
<path fill="#B6813C" opacity="1.000000" stroke="none" 
	d="
M161.038025,99.950012 
	C161.667587,101.052673 162.283875,102.178345 162.945709,103.632469 
	C161.085098,103.552185 159.178925,103.143456 157.200226,102.719177 
	C156.826385,100.824097 156.417542,98.751457 156.012955,96.307205 
	C157.159515,96.936745 158.301819,97.937912 159.870361,99.258858 
	C160.514999,99.791512 160.774826,99.921776 161.076096,99.969421 
	C161.076096,99.969421 161.024765,99.973022 161.038025,99.950012 
z"/>
<path fill="#B6813C" opacity="1.000000" stroke="none" 
	d="
M158.790253,105.761772 
	C158.211655,106.347198 157.436920,106.674446 156.324005,107.008141 
	C156.855240,106.510925 157.724670,106.007256 158.790253,105.761772 
z"/>
<path fill="#B6813C" opacity="1.000000" stroke="none" 
	d="
M162.694351,105.038322 
	C162.430267,105.491364 161.869598,105.961723 161.134705,106.200027 
	C161.439575,105.663864 161.918671,105.359756 162.694351,105.038322 
z"/>
<path fill="#BB8343" opacity="1.000000" stroke="none" 
	d="
M160.748535,112.995178 
	C160.993942,112.986557 161.017136,113.470123 161.013031,113.711792 
	C160.682266,113.887215 160.418259,113.721329 160.114685,113.241379 
	C160.012527,113.026924 160.503113,113.003807 160.748535,112.995178 
z"/>
<path fill="#BB8343" opacity="1.000000" stroke="none" 
	d="
M157.882568,112.638840 
	C157.675797,112.813080 157.413757,112.675858 157.121262,112.200806 
	C157.310913,112.080292 157.556412,112.235092 157.882568,112.638840 
z"/>
<path fill="#69460E" opacity="1.000000" stroke="none" 
	d="
M82.714615,150.739929 
	C82.842720,151.868896 82.687035,152.734711 82.271072,153.811157 
	C80.011688,151.914719 78.012573,149.807617 76.006981,147.333618 
	C77.563316,146.142487 79.126122,145.318268 81.238846,144.204025 
	C81.773239,147.016220 82.102036,148.746490 82.714615,150.739929 
z"/>
<path fill="#65400B" opacity="1.000000" stroke="none" 
	d="
M72.995338,167.000565 
	C73.316582,165.258438 73.642914,163.516541 73.967529,161.391205 
	C76.110519,162.584961 78.255226,164.162155 80.710602,165.875504 
	C79.925407,166.340256 78.829536,166.668854 76.967392,167.002899 
	C75.134232,167.008789 74.067322,167.009247 73.000420,167.009705 
	C73.000420,167.009705 73.000420,167.000778 72.995338,167.000565 
z"/>
<path fill="#9E631A" opacity="1.000000" stroke="none" 
	d="
M147.016541,114.398499 
	C148.016846,117.059196 149.009613,120.107063 149.996918,123.583633 
	C148.542450,125.439110 147.081879,126.996620 146.017914,123.337830 
	C146.323639,120.270088 146.666321,117.527878 147.016541,114.398499 
z"/>
<path fill="#62481D" opacity="1.000000" stroke="none" 
	d="
M137.297409,128.985458 
	C137.128159,128.407791 137.287277,127.834358 137.733047,127.150345 
	C138.262299,127.509605 138.504883,127.979424 138.841522,128.696671 
	C138.498962,128.959290 138.062363,128.974487 137.297409,128.985458 
z"/>
<path fill="#593B10" opacity="1.000000" stroke="none" 
	d="
M108.384331,151.992218 
	C107.105965,150.861115 106.200188,149.734695 105.145981,148.318512 
	C105.685524,147.180756 106.373489,146.332779 106.726059,145.898209 
	C105.772713,144.777786 104.892090,143.742813 104.005280,142.350677 
	C105.066193,141.992996 106.133301,141.992493 107.600548,141.988510 
	C109.261726,142.692490 110.612686,143.279953 111.759674,144.139572 
	C113.023239,145.086563 114.099403,146.283585 114.764389,147.685638 
	C113.062386,148.199524 111.853210,148.399429 111.792519,148.409470 
	C111.401695,150.166916 111.197624,151.084579 110.993553,152.002243 
	C110.248009,152.000458 109.502464,151.998688 108.384331,151.992218 
z"/>
<path fill="#764D17" opacity="1.000000" stroke="none" 
	d="
M88.042267,139.698792 
	C87.610832,140.072098 87.219879,140.122314 86.542603,140.238495 
	C86.256271,140.304443 86.122055,140.139664 86.060730,139.625870 
	C86.008560,137.082932 86.017715,135.053772 86.026878,133.024628 
	C86.463722,133.022812 86.900566,133.021011 87.664932,133.022324 
	C88.658173,134.444901 89.323898,135.864349 89.995209,137.640076 
	C89.361450,138.456131 88.722099,138.915924 88.042267,139.698792 
z"/>
<path fill="#B57A2F" opacity="1.000000" stroke="none" 
	d="
M73.248184,120.176285 
	C72.998154,119.560097 72.995697,119.118675 73.175598,118.074226 
	C74.232201,115.651657 75.106461,113.832108 76.008080,111.695000 
	C76.350121,110.597290 76.664803,109.817146 77.394699,109.024673 
	C79.194229,108.993134 80.578545,108.973923 82.011597,109.318611 
	C83.375328,110.785309 84.690323,111.888100 86.005310,112.990891 
	C86.005310,112.990891 86.014252,113.006905 86.010254,113.408699 
	C86.001434,114.875534 85.996613,115.940582 85.991791,117.005623 
	C85.991798,117.005623 86.000916,117.000618 85.643433,117.155991 
	C83.084343,117.690475 80.882721,118.069588 78.697388,118.445900 
	C78.267914,119.798485 77.850418,121.113342 77.532333,122.115143 
	C78.801399,123.170692 79.876534,124.064934 80.951660,124.959175 
	C77.517990,124.957581 73.650734,125.657524 73.248184,120.176285 
z"/>
<path fill="#9D6519" opacity="1.000000" stroke="none" 
	d="
M81.196442,125.110512 
	C79.876534,124.064934 78.801399,123.170692 77.532333,122.115143 
	C77.850418,121.113342 78.267914,119.798485 78.697388,118.445900 
	C80.882721,118.069588 83.084343,117.690475 85.643715,117.150826 
	C86.237511,118.431702 86.473549,119.873108 86.850891,121.654587 
	C85.141876,123.083717 83.291557,124.172783 81.196442,125.110512 
z"/>
<path fill="#925F19" opacity="1.000000" stroke="none" 
	d="
M85.825043,132.776489 
	C86.017715,135.053772 86.008560,137.082932 85.990128,139.546463 
	C84.562523,140.178650 83.144188,140.376465 81.568031,140.596283 
	C81.219261,139.543793 80.873642,138.500778 80.263428,137.231812 
	C81.873634,135.513367 83.748428,134.020874 85.825043,132.776489 
z"/>
<path fill="#BB8343" opacity="1.000000" stroke="none" 
	d="
M160.989288,99.742256 
	C160.774826,99.921776 160.514999,99.791512 160.172394,99.396629 
	C160.410843,99.093185 160.695618,99.193344 160.989288,99.742256 
z"/>
<path fill="#6C4B23" opacity="1.000000" stroke="none" 
	d="
M73.061203,167.354996 
	C74.067322,167.009247 75.134232,167.008789 76.601219,167.012451 
	C76.151863,169.761810 74.801254,169.663467 73.061203,167.354996 
z"/>
<path fill="#825927" opacity="1.000000" stroke="none" 
	d="
M142.997253,170.002274 
	C142.872482,169.859024 142.750443,169.713486 142.628418,169.567963 
	C142.717072,169.616592 142.805710,169.665237 142.949387,169.854187 
	C143.004410,169.994507 143.000000,170.000000 142.997253,170.002274 
z"/>
<path fill="#BB8343" opacity="1.000000" stroke="none" 
	d="
M166.198242,116.227066 
	C167.091919,115.645645 168.208176,115.328911 169.697937,115.026367 
	C168.854568,115.524284 167.637711,116.008011 166.198242,116.227066 
z"/>
<path fill="#BB8343" opacity="1.000000" stroke="none" 
	d="
M173.159073,115.233368 
	C173.005768,114.998779 173.495605,114.993721 173.740295,114.987854 
	C174.376511,115.143440 174.768021,115.304893 175.159546,115.466347 
	C174.543823,115.466888 173.928101,115.467430 173.159073,115.233368 
z"/>
<path fill="#BB8343" opacity="1.000000" stroke="none" 
	d="
M163.086334,115.206039 
	C163.297729,115.070648 163.568954,115.241608 163.904205,115.713135 
	C163.686981,115.861526 163.412964,115.694420 163.086334,115.206039 
z"/>
<path fill="#BB8343" opacity="1.000000" stroke="none" 
	d="
M161.140594,114.215698 
	C161.351288,114.091782 161.599533,114.262657 161.890747,114.722816 
	C161.677017,114.855347 161.425156,114.688141 161.140594,114.215698 
z"/>
<path fill="#C29C60" opacity="1.000000" stroke="none" 
	d="
M88.056274,56.684803 
	C87.187744,56.988316 86.477867,56.985611 85.392143,56.621864 
	C85.029343,55.543243 85.042389,54.825665 85.061523,53.827671 
	C85.059052,53.360466 85.050507,53.173676 85.019821,52.990837 
	C84.997688,52.994785 85.007759,53.039642 85.007759,53.039642 
	C87.090698,53.178753 89.646782,52.863403 88.056274,56.684803 
z"/>
<path fill="#AD8249" opacity="1.000000" stroke="none" 
	d="
M85.055435,54.108086 
	C85.042389,54.825665 85.029343,55.543243 85.035782,56.618580 
	C85.055275,56.976337 84.986839,57.006218 84.624016,57.012566 
	C83.499710,56.686314 82.738235,56.353714 81.976753,56.021118 
	C82.244164,55.824326 82.511566,55.627537 82.889015,55.203129 
	C83.656250,54.129208 84.313446,53.282906 84.989197,52.738121 
	C85.007759,53.039642 84.997688,52.994785 84.847641,53.093269 
	C84.816879,53.497196 84.936157,53.802639 85.055435,54.108086 
z"/>
<path fill="#CD8B44" opacity="1.000000" stroke="none" 
	d="
M78.021263,86.006676 
	C78.136703,83.193283 78.252151,80.379898 78.650208,77.281525 
	C81.973549,77.330116 85.014275,77.663681 88.465721,77.988846 
	C88.905235,78.734985 88.934036,79.489548 88.975746,80.621033 
	C88.004135,82.991180 87.086586,85.021584 86.008698,86.962967 
	C85.410172,88.040970 84.544006,88.970383 83.394012,89.604378 
	C81.333450,88.163551 79.677361,87.085114 78.021263,86.006676 
z"/>
<path fill="#C98A41" opacity="1.000000" stroke="none" 
	d="
M81.962868,108.954712 
	C80.578545,108.973923 79.194229,108.993134 77.396927,108.583397 
	C76.647552,105.084312 76.311165,102.014183 75.974770,98.944046 
	C75.974770,98.944046 76.017220,98.482109 76.073639,98.257126 
	C77.441704,99.156548 78.753357,100.280960 80.065002,101.405373 
	C79.841026,101.769142 79.617043,102.132912 79.393066,102.496681 
	C81.094086,102.813736 82.795113,103.130791 84.617050,104.033302 
	C83.812927,106.064072 82.887894,107.509392 81.962868,108.954712 
z"/>
<path fill="#B87E2F" opacity="1.000000" stroke="none" 
	d="
M77.761093,86.017365 
	C79.677361,87.085114 81.333450,88.163551 83.000900,89.612106 
	C83.005272,90.751572 82.998291,91.520920 82.980919,92.676178 
	C81.578690,93.036095 80.186867,93.010086 78.375122,92.965408 
	C77.814560,91.773865 77.673904,90.601006 77.267471,89.186737 
	C76.999184,88.226509 76.996681,87.507698 76.988129,86.430679 
	C77.155014,86.057663 77.327972,86.042862 77.761093,86.017365 
z"/>
<path fill="#AF7324" opacity="1.000000" stroke="none" 
	d="
M82.011597,109.318619 
	C82.887894,107.509392 83.812927,106.064072 84.882889,104.320999 
	C85.467300,104.014587 85.906792,104.005928 86.676346,103.994736 
	C86.673721,106.713524 86.341034,109.434822 86.006836,112.573509 
	C84.690323,111.888100 83.375328,110.785309 82.011597,109.318619 
z"/>
<path fill="#A5732C" opacity="1.000000" stroke="none" 
	d="
M88.975403,90.711395 
	C88.836754,92.196556 88.677208,93.380714 88.239075,94.796112 
	C87.792076,93.178291 87.623672,91.329231 87.727715,89.228760 
	C88.318283,89.455025 88.636398,89.932701 88.975403,90.711395 
z"/>
<path fill="#A5732C" opacity="1.000000" stroke="none" 
	d="
M86.275185,98.400864 
	C86.149590,98.558632 85.932335,98.581123 85.715080,98.603615 
	C85.871223,98.490936 86.027374,98.378258 86.275185,98.400864 
z"/>
<path fill="#C79249" opacity="1.000000" stroke="none" 
	d="
M77.974182,71.166023 
	C77.988342,70.153275 78.028091,69.419533 78.131447,68.323639 
	C79.127228,67.343063 80.737350,66.848839 80.877251,66.085243 
	C81.578941,62.255413 83.807732,62.967510 86.632523,63.966450 
	C87.003242,64.011139 87.000137,63.998665 86.864716,64.229889 
	C86.487938,65.305603 86.246574,66.150108 86.005211,66.994598 
	C84.900909,67.070328 83.796608,67.146057 82.642731,67.225182 
	C83.400993,69.021988 84.040970,70.538483 84.680946,72.054985 
	C82.726341,72.069847 80.771736,72.084709 78.432037,72.051476 
	C78.031227,71.817253 78.015495,71.631142 77.974182,71.166023 
z"/>
<path fill="#A77A3A" opacity="1.000000" stroke="none" 
	d="
M86.304718,66.849434 
	C86.246574,66.150108 86.487938,65.305603 86.859657,64.229042 
	C88.405289,63.690311 89.820572,63.383644 91.596512,63.034012 
	C91.930641,63.781219 91.904114,64.571396 91.806824,65.752777 
	C90.025452,66.330750 88.314842,66.517502 86.304718,66.849434 
z"/>
<path fill="#BC8443" opacity="1.000000" stroke="none" 
	d="
M118.972214,87.929443 
	C118.501266,88.219460 118.066177,88.156754 117.309898,88.174637 
	C116.829865,88.197235 116.671005,88.139252 116.295143,87.665443 
	C117.783195,82.433899 113.807716,82.192955 111.023590,80.568985 
	C111.011017,78.764824 111.007828,77.376701 111.401520,75.942947 
	C114.210800,75.598854 116.623184,75.300385 119.035568,75.001915 
	C121.937065,76.450607 124.838562,77.899300 127.862930,79.677719 
	C125.785690,81.827377 123.585571,83.647301 121.192093,85.741798 
	C120.335175,86.536499 119.671616,87.056618 118.972214,87.929443 
z"/>
<path fill="#B38B57" opacity="1.000000" stroke="none" 
	d="
M119.061554,74.640663 
	C116.623184,75.300385 114.210800,75.598854 111.393188,75.603294 
	C110.654915,74.526054 110.321869,73.742851 109.988831,72.959648 
	C111.047768,72.019073 112.106705,71.078499 113.467285,70.087280 
	C115.541786,71.450890 117.314667,72.865150 119.061554,74.640663 
z"/>
<path fill="#B38B57" opacity="1.000000" stroke="none" 
	d="
M110.399445,68.014091 
	C109.669632,67.197723 109.348564,66.380524 109.032967,65.231033 
	C110.089195,65.671982 111.139946,66.445213 112.315216,67.556229 
	C111.895874,67.933769 111.352028,67.973511 110.399445,68.014091 
z"/>
<path fill="#9E6D2B" opacity="1.000000" stroke="none" 
	d="
M81.690140,56.128563 
	C82.738235,56.353714 83.499710,56.686314 84.589432,57.026627 
	C83.320541,57.467571 81.723427,57.900810 80.126305,58.334049 
	C79.998810,58.058960 79.871323,57.783871 79.743828,57.508781 
	C80.297066,57.084522 80.850296,56.660263 81.690140,56.128563 
z"/>
<path fill="#B78445" opacity="1.000000" stroke="none" 
	d="
M75.980721,112.012558 
	C75.106461,113.832108 74.232201,115.651657 73.174179,117.743164 
	C72.554245,118.017120 72.118073,118.019096 71.281403,117.666824 
	C69.099724,117.408051 67.318542,117.503525 65.537361,117.598999 
	C66.025780,118.073723 66.514206,118.548439 67.002632,119.023148 
	C65.534004,120.650497 64.065376,122.277847 62.302979,123.951965 
	C61.840858,123.967155 61.672501,123.935555 61.289566,123.761917 
	C61.446800,120.098732 61.818611,116.577591 62.352497,111.521568 
	C58.439571,112.933121 55.593781,113.959717 52.374126,114.993271 
	C52.000263,115.000229 52.005035,115.002998 51.788593,114.734055 
	C50.264729,114.759010 48.957306,115.052910 47.649883,115.346817 
	C46.669109,114.906082 45.688335,114.465347 44.390652,113.967117 
	C43.667568,113.215027 43.261398,112.520424 42.807201,111.522583 
	C48.373055,110.663681 53.986931,110.108025 59.874809,109.244980 
	C62.762115,110.115349 65.338440,111.387238 68.003136,112.434212 
	C69.510422,113.026443 71.162872,113.249214 73.258072,113.293259 
	C74.504372,112.636269 75.242546,112.324417 75.980721,112.012558 
z"/>
<path fill="#B78445" opacity="1.000000" stroke="none" 
	d="
M51.951431,117.091843 
	C51.350159,117.243629 50.765137,116.975578 50.142529,116.227768 
	C50.738308,115.499672 51.371674,115.251335 52.005035,115.002998 
	C52.005035,115.002998 52.000263,115.000229 51.998428,114.998398 
	C51.986961,115.555054 51.977325,116.113525 51.951431,117.091843 
z"/>
<path fill="#5D3E0F" opacity="1.000000" stroke="none" 
	d="
M111.194107,152.274002 
	C111.197624,151.084579 111.401695,150.166916 111.792519,148.409470 
	C111.853210,148.399429 113.062386,148.199524 114.631195,147.999252 
	C116.405937,148.334473 117.821053,148.670059 119.625420,149.010498 
	C119.495415,151.831985 118.976158,154.648621 118.399338,157.777451 
	C115.888123,155.901855 113.641396,154.223816 111.194107,152.274002 
z"/>
<path fill="#724E22" opacity="1.000000" stroke="none" 
	d="
M137.301727,156.987488 
	C137.002060,156.846619 137.000809,156.678650 137.004303,156.258820 
	C137.586014,155.878159 138.162964,155.749359 138.874878,155.807190 
	C138.539948,156.316025 138.070053,156.638214 137.301727,156.987488 
z"/>
<path fill="#AC7B48" opacity="1.000000" stroke="none" 
	d="
M76.008080,111.694992 
	C75.242546,112.324417 74.504372,112.636269 73.465729,112.979774 
	C73.424034,110.271561 73.682816,107.531693 73.874962,104.377029 
	C73.904411,103.226257 74.000496,102.490280 74.062485,101.383919 
	C74.252464,100.502014 74.476540,99.990501 74.806534,99.220299 
	C75.089729,98.966438 75.266983,98.971260 75.709503,98.960060 
	C76.311165,102.014183 76.647552,105.084312 76.981720,108.595718 
	C76.664803,109.817146 76.350121,110.597290 76.008080,111.694992 
z"/>
<path fill="#B3782D" opacity="1.000000" stroke="none" 
	d="
M109.605667,72.980759 
	C110.321869,73.742851 110.654915,74.526054 110.996292,75.648911 
	C111.007828,77.376701 111.011017,78.764824 110.674332,80.573776 
	C109.869003,81.009689 109.403542,81.024796 108.938080,81.039902 
	C105.223267,78.925415 105.334106,75.792984 109.605667,72.980759 
z"/>
<path fill="#9D6D2E" opacity="1.000000" stroke="none" 
	d="
M108.945297,81.455231 
	C109.403542,81.024796 109.869003,81.009689 110.683723,80.989799 
	C113.807716,82.192955 117.783195,82.433899 116.054832,87.584244 
	C113.712433,86.645348 111.393341,85.371819 108.953033,83.818695 
	C108.872047,82.982918 108.912277,82.426735 108.945297,81.455231 
z"/>
<path fill="#A56F2B" opacity="1.000000" stroke="none" 
	d="
M51.788593,114.734055 
	C51.371674,115.251335 50.738308,115.499672 49.886696,116.033707 
	C49.136570,116.126068 48.604691,115.932732 47.861351,115.543098 
	C48.957306,115.052910 50.264729,114.759010 51.788593,114.734055 
z"/>
<path fill="#9D6519" opacity="1.000000" stroke="none" 
	d="
M86.253708,116.796738 
	C85.996613,115.940582 86.001434,114.875534 86.018845,113.412125 
	C86.192833,114.205124 86.354225,115.396492 86.253708,116.796738 
z"/>
<path fill="#B57A2F" opacity="1.000000" stroke="none" 
	d="
M67.338058,119.017784 
	C66.514206,118.548439 66.025780,118.073723 65.537361,117.598999 
	C67.318542,117.503525 69.099724,117.408051 70.954147,117.666069 
	C71.027382,118.019569 71.005402,118.005684 70.708282,118.023483 
	C69.945885,118.360420 69.480598,118.679558 69.015305,118.998695 
	C68.568031,119.003265 68.120750,119.007843 67.338058,119.017784 
z"/>
<path fill="#B78445" opacity="1.000000" stroke="none" 
	d="
M69.311401,118.980576 
	C69.480598,118.679558 69.945885,118.360420 70.709534,118.031578 
	C70.541100,118.335403 70.074303,118.648926 69.311401,118.980576 
z"/>
<path fill="#B57A2F" opacity="1.000000" stroke="none" 
	d="
M68.554214,121.462021 
	C68.590660,121.521721 68.517769,121.402321 68.554214,121.462021 
z"/>
<path fill="#9D6826" opacity="1.000000" stroke="none" 
	d="
M139.756226,90.986900 
	C139.734253,91.098991 139.465408,91.218895 139.106140,91.175339 
	C139.015701,91.011871 139.509369,90.994720 139.756226,90.986900 
z"/>
<path fill="#856539" opacity="1.000000" stroke="none" 
	d="
M85.061523,53.827671 
	C84.936157,53.802639 84.816879,53.497196 84.869781,53.089321 
	C85.050507,53.173676 85.059052,53.360466 85.061523,53.827671 
z"/>
</svg>