<?xml version="1.0" encoding="utf-8"?>
<!-- Generator: Adobe Illustrator 23.0.2, SVG Export Plug-In . SVG Version: 6.00 Build 0)  -->
<svg version="1.1" id="Layer_1" xmlns="http://www.w3.org/2000/svg" xmlns:xlink="http://www.w3.org/1999/xlink" x="0px" y="0px"
	 viewBox="0 0 161.3467 329.6125" enable-background="new 0 0 161.3467 329.6125" xml:space="preserve">
<g>
	<path d="M66.8,329.5711c5.6735,0.462,10.7534-2.9875,12.6113-8.0907c-10.4327-0.7411-18.4234-2.3793-23.9647-3.9144
		C55.5996,323.8071,60.4401,329.0527,66.8,329.5711z"/>
	<path d="M115.3156,329.5711c6.3599-0.5184,11.2004-5.7639,11.3535-12.005c-5.5415,1.5351-13.5322,3.1732-23.9648,3.9143
		C104.5622,326.5836,109.6422,330.0331,115.3156,329.5711z"/>
	<path d="M91.0578,287.888c-20.6662,0-34.2133-3.6309-40.6516-5.8929l-3.0146,29.5598c0,0,14.6666,7.3334,43.6666,7.3334
		s43.6667-7.3334,43.6667-7.3334l-3.0146-29.5598C125.2717,284.2571,111.7241,287.888,91.0578,287.888z"/>
	<path d="M131.4294,278.9034c2.1895-0.7977,3.2955-1.3486,3.2955-1.3486l-0.9257-9.0771L131.4294,278.9034z"/>
	<path d="M48.3173,268.4782l-0.9257,9.0766c0,0,1.106,0.5509,3.2953,1.3485L48.3173,268.4782z"/>
	<path d="M52.7579,277.637l5.8332-10.6278c-3.9261-0.9608-6.8795-1.9382-8.8583-2.6818L52.7579,277.637z"/>
	<path d="M91.0582,284.8882c2.5028,0,4.8913-0.0579,7.1804-0.1577l-7.1805-13.2238l-7.1805,13.2238
		C86.1668,284.8303,88.5554,284.8882,91.0582,284.8882z"/>
	<path d="M100.1216,283.3777l5.2832-13.4479c-3.7344,0.3353-7.8192,0.5555-12.2547,0.6091L100.1216,283.3777z"/>
	<path d="M129.3585,277.637l3.0251-13.3096c-1.9788,0.7436-4.9321,1.721-8.858,2.6817L129.3585,277.637z"/>
	<path d="M128.0482,280.0302l-5.618-10.2364l-3.8115,12.5775C122.4407,281.6136,125.5846,280.7852,128.0482,280.0302z"/>
	<path d="M63.4981,282.3713l-3.8115-12.5781l-5.6184,10.2369C56.5319,280.7852,59.676,281.6136,63.4981,282.3713z"/>
	<path d="M81.9947,283.3777l6.9715-12.8389c-4.4355-0.0536-8.5203-0.2738-12.2547-0.6091L81.9947,283.3777z"/>
	<path d="M61.4446,267.6641l3.949,13.0325l7.5349-11.1582C68.5525,269.0266,64.7222,268.3679,61.4446,267.6641z"/>
	<path d="M74.6817,271.0526l-8.0347,11.8979c3.8622,0.6555,8.3054,1.2131,13.3215,1.5597L74.6817,271.0526z"/>
	<path d="M115.4697,282.9504l-8.0346-11.8979l-5.2872,13.4576C107.1641,284.1635,111.6074,283.606,115.4697,282.9504z"/>
	<path d="M109.1879,269.5384l7.5353,11.1582l3.949-13.0327C117.3946,268.3678,113.5641,269.0266,109.1879,269.5384z"/>
	<path d="M91.0578,103.5018c9.1426,0,18.34,1.9734,22.4993,6.2566c0-0.0124,0.0011-0.0245,0.0011-0.0369
		c0-1.181-0.1279-2.3354-0.36-3.4586c4.8624-7.8776,10.2817-17.754,12.5537-25.8116c4.5553-16.1555-3.3743-31.3965-3.3743-31.3965
		s-7.4235,30.0756-22.2706,34.5463l0.9189,8.6379c-0.859-0.3686-1.7496-0.6893-2.6664-0.9618l-2.1138-13.9307h-10.375
		L83.757,91.2772c-1.3669,0.4064-2.6736,0.9232-3.9073,1.5389l0.9803-9.2151c-14.847-4.4707-22.2705-34.5463-22.2705-34.5463
		s-7.9297,15.241-3.3743,31.3965c2.4185,8.5771,8.4034,19.2159,13.4864,27.31c-0.0743,0.6448-0.1132,1.2985-0.1132,1.9602
		c0,0.0121,0.001,0.024,0.001,0.0361C72.7189,105.475,81.9158,103.5018,91.0578,103.5018z M74.9332,101.5965
		c-1.1736,0-2.125-0.9514-2.125-2.125s0.9514-2.125,2.125-2.125c1.1736,0,2.125,0.9514,2.125,2.125
		S76.1069,101.5965,74.9332,101.5965z M107.1832,101.5965c-1.1736,0-2.125-0.9514-2.125-2.125s0.9514-2.125,2.125-2.125
		c1.1736,0,2.125,0.9514,2.125,2.125S108.3569,101.5965,107.1832,101.5965z M91.0582,82.2215c1.1736,0,2.125,0.9514,2.125,2.125
		s-0.9514,2.125-2.125,2.125c-1.1736,0-2.125-0.9514-2.125-2.125S89.8846,82.2215,91.0582,82.2215z"/>
	<path d="M27.9429,189.1702c1.5298,1.5747,3.6099,2.4263,5.7393,2.4258c0.7925,0,1.5918-0.1177,2.3721-0.3604
		c2.8774-0.8936,5.0083-3.3276,5.5137-6.2979c2.1854-12.8449,8.5108-18.884,14.4669-21.7053
		c1.0684-0.506,2.1226-0.9104,3.1411-1.2294l-10.0793,98.8334c3.781,1.5786,17.9405,6.7185,41.9615,6.7185
		c24.0214,0,38.181-5.1401,41.9617-6.7186l-9.6227-94.3557l3.2794,2.585l5.761,4.5411c1.333,3.6929,4.1968,11.96,6.4922,20.8906
		c0.8072,3.1408,1.4293,5.9131,1.909,8.37c1.7941,0.21,9.2513,0.5714,14.9312-6.7672c-0.189-0.8428-0.3813-1.674-0.575-2.4857
		c-3.375-14.1401-8.3501-27.2026-8.5601-27.752c-0.5156-1.3477-1.3862-2.5308-2.519-3.4238l-17.5344-13.8215l-11.5078-27.298
		c-0.7718,2.9891-2.0938,5.7573-3.8424,8.2003c4.1737,28.113,1.9308,39.8781,1.9308,39.8781s-15.4266,22.1778-22.104,26.5739
		c-6.6774-4.3961-22.104-26.5739-22.104-26.5739s-2.2427-11.7649,1.9308-39.8776c-1.7486-2.4429-3.0706-5.2108-3.8425-8.1996
		l-10.4366,24.7571c-9.5305,2.4323-20.1538,8.6828-26.4104,21.8363c-4.6382-5.4036-8.5925-10.5424-11.057-14.3632l2.0892,28.3633
		C24.9542,186.0869,27.7606,188.9827,27.9429,189.1702z"/>
	<path d="M91.0578,137.6219c2.234,0,4.3899-0.3303,6.4269-0.9365c-0.038-1.4557-0.3416-5.0917-2.3606-7.1984
		c-1.0161-1.0605-2.3462-1.5762-4.0659-1.5762s-3.0503,0.5156-4.0664,1.5762c-2.0189,2.1066-2.3226,5.7425-2.3606,7.1982
		C86.6682,137.2916,88.824,137.6219,91.0578,137.6219z"/>
	<path d="M80.7274,135.1083c0.235-2.3387,0.9924-5.8899,3.3616-8.3731c1.7876-1.874,4.1323-2.8242,6.9692-2.8242
		s5.1812,0.9502,6.9688,2.8237c2.3693,2.4836,3.1266,6.0351,3.3616,8.3738c7.2275-3.7432,12.1693-11.2852,12.1693-19.9866
		c0-12.4268-45-12.4268-45,0C68.5578,123.8231,73.5002,131.3649,80.7274,135.1083z M105.5503,115.701
		c0,2.6234-2.1266,4.75-4.75,4.75s-4.75-2.1266-4.75-4.75S105.5503,113.0777,105.5503,115.701z"/>
	<polygon points="5.0917,66.2797 9.9025,65.9254 9.4501,59.7825 9.8896,57.4156 12.059,45.7332 2.6283,0 0,46.6214 4.6393,60.137 	
		"/>
	<path d="M15.0858,136.2964l-3.9233-53.2651l-4.8108,0.3543l3.8259,51.9428c0.1695-0.0085,0.338-0.0341,0.5078-0.0341
		C12.2448,135.2944,13.7388,135.6556,15.0858,136.2964z"/>
	<rect x="5.981" y="75.9858" transform="matrix(0.9973 -0.0735 0.0735 0.9973 -5.726 0.8279)" width="4.8238" height="4.5561"/>
	<rect x="5.4494" y="68.7692" transform="matrix(0.9973 -0.0735 0.0735 0.9973 -5.1974 0.7694)" width="4.8238" height="4.5561"/>
	<path d="M16.4061,154.2216c-0.9473,1.0924-2.1067,1.9735-3.3984,2.5823l-1.3066-1.9441c1.2836-0.5373,2.4254-1.3933,3.283-2.5172
		c2.877-1.8335,4.3604-5.3882,3.415-8.8525c-1.1631-4.2627-5.5615-6.7739-9.8242-5.6118c-2.3874,0.6514-4.3705,1.9531-5.7769,3.7349
		c-0.6595,0.8356-1.175,1.7869-1.5627,2.8163c-0.1186,0.2872-0.2261,0.5817-0.3126,0.8881
		c-0.0003,0.0011-0.0008,0.002-0.0011,0.0031c-0.0001,0.0001-0.0001,0.0003-0.0001,0.0004
		c-0.0002,0.0007-0.0004,0.0012-0.0006,0.0019c-0.0031,0.0109-0.0044,0.0225-0.0074,0.0334
		c-0.0746,0.2697-0.1341,0.5399-0.1797,0.8101c-1.2026,6.0206,2.4055,13.7057,12.1501,25.9033l11.5459,156.7534l4.8108-0.3544l0,0
		L16.4061,154.2216z"/>
	<path d="M157.8521,207.0306c-7.0029,7.8779-15.4966,5.5674-15.877,5.459c-0.7466-0.2181-1.5173,0.0264-2.0177,0.5602
		c-0.2055,0.2192-0.3701,0.4821-0.4613,0.7899c-0.3149,1.0586,0.2886,2.1719,1.3477,2.4863
		c0.0901,0.0269,0.5883,0.1685,1.3937,0.302c-0.1161,2.2147-0.476,3.301-0.6534,3.7112c-3.5825,2.1187-4.9663,6.6797-3.0762,10.46
		c1.4014,2.8032,4.2266,4.4243,7.1616,4.4243c1.2021-0.0005,2.4229-0.2725,3.5713-0.8467
		c7.5831-3.7913,9.4363-12.5837,8.9563-22.1447c0.8932-0.736,1.7793-1.5711,2.6443-2.5443c0.7339-0.8257,0.6597-2.0894-0.166-2.8232
		c-0.1867-0.1662-0.3977-0.2853-0.6181-0.3694C159.303,206.2073,158.4193,206.3905,157.8521,207.0306z"/>
	<path d="M156.7955,199.2313c-6.3491,8.4126-14.9995,6.7915-15.3892,6.7129c-0.7639-0.1592-1.5116,0.1473-1.9669,0.7199
		c-0.187,0.2352-0.3297,0.5106-0.3959,0.8245c-0.1638,0.7727,0.1481,1.5302,0.7313,1.9857
		c0.2324,0.1815,0.5034,0.3198,0.8112,0.3849c0.1416,0.0303,1.2612,0.2539,2.9751,0.2539c3.6573,0,10.0175-1.0233,15.3353-7.1289
		c0.3691-0.4238,0.7337-0.8696,1.0915-1.3438c0.6655-0.8813,0.4902-2.1357-0.3916-2.8008c-0.1996-0.151-0.4197-0.2529-0.6465-0.319
		C158.1754,198.2949,157.3095,198.5488,156.7955,199.2313z"/>
</g>
</svg>
