<svg version="1.1" id="Layer_1" xmlns="http://www.w3.org/2000/svg" xmlns:xlink="http://www.w3.org/1999/xlink" x="0px" y="0px"
	 width="100%" viewBox="0 0 208 224" enable-background="new 0 0 208 224" xml:space="preserve">
<path fill="#000000" opacity="1.000000" stroke="none" 
	d="
M88.018867,38.014427 
	C85.926285,36.377220 83.571556,34.922764 83.941750,31.874483 
	C76.840393,29.095596 73.377113,35.578476 68.232178,37.477325 
	C66.864937,37.981937 65.740982,39.111610 64.439133,39.835182 
	C62.235996,41.059689 60.859047,40.160648 60.499672,37.870159 
	C57.903404,21.322659 40.230927,6.302664 23.520632,6.789403 
	C22.640539,6.815039 21.926842,6.648239 21.227793,6.101084 
	C15.567118,1.670389 11.288286,2.075936 6.908785,7.905342 
	C5.364262,9.961205 3.451782,9.460308 1.303552,9.933714 
	C1.000000,7.012204 1.000000,4.024408 1.000000,1.000000 
	C33.687553,1.000000 66.375114,1.000000 99.531342,1.000000 
	C99.291702,1.884982 98.061806,2.743265 98.953354,4.009272 
	C102.554306,9.122624 100.496567,15.040165 101.329132,20.538820 
	C102.174622,26.122906 99.507950,29.322966 93.310295,29.164305 
	C97.262222,28.880554 102.454544,32.978363 103.745811,25.524851 
	C103.796158,25.234240 104.085762,24.955860 104.320641,24.731100 
	C106.066368,23.060583 114.857552,24.173952 117.160492,26.713425 
	C108.003540,27.624178 101.660355,33.354195 94.934334,38.392296 
	C92.789040,39.999222 90.791794,38.429131 88.364777,38.050152 
	C87.993164,37.994663 88.018867,38.014427 88.018867,38.014427 
z"/>
<path fill="#000000" opacity="1.000000" stroke="none" 
	d="
M68.987129,129.013321 
	C68.554665,127.861343 67.701775,127.166817 66.651695,126.543434 
	C59.509174,122.303322 58.151684,118.432243 61.009880,110.820068 
	C61.288445,110.078178 61.400566,109.273804 61.621399,108.369667 
	C58.855221,106.358437 55.554062,107.821014 52.858257,106.545906 
	C52.416664,106.337044 51.865974,106.365959 51.412029,106.174927 
	C48.475132,104.938972 43.890976,104.550720 44.340816,100.528587 
	C44.899612,95.532257 49.083488,96.664055 52.580132,97.669914 
	C52.969498,97.781921 53.492271,97.430138 54.206566,97.218292 
	C53.957199,94.917931 52.538689,92.927643 52.967102,90.645088 
	C50.317844,89.931885 49.148010,92.130424 47.340878,92.724525 
	C45.630291,93.286896 44.502853,95.058952 42.100529,95.271019 
	C39.735218,91.693893 40.485561,87.948387 41.506237,84.266045 
	C43.713013,83.067604 45.107685,86.062363 47.340080,84.704384 
	C50.829258,82.581879 52.510506,80.305725 50.341091,76.201607 
	C47.009758,69.899376 49.654842,64.485527 53.721016,59.786900 
	C57.665184,55.229259 62.903084,55.164886 68.447731,56.633038 
	C71.729721,57.502064 73.951271,59.460957 74.695465,62.450127 
	C75.888451,67.241966 77.921455,70.683838 83.306602,71.322784 
	C84.460182,71.459648 85.493416,72.610764 86.697510,73.367149 
	C87.724976,71.889900 88.737137,70.434677 89.749290,68.979446 
	C86.744072,71.152000 83.748466,70.146942 80.993103,69.080399 
	C77.341827,67.667068 77.478020,64.325020 77.541481,61.078827 
	C77.600960,58.036728 74.955070,57.356297 72.878593,56.586285 
	C65.890793,53.995022 58.828632,52.503880 52.027702,57.297325 
	C51.171608,55.205833 52.290901,54.027622 53.114880,53.311741 
	C61.129177,46.348824 67.959854,37.829884 78.341721,33.926277 
	C79.765282,33.391014 80.824768,33.285480 81.871368,34.552231 
	C83.112495,36.054428 82.734520,37.501831 81.489372,38.514423 
	C78.487579,40.955574 75.647179,43.431137 75.628021,47.502079 
	C71.823700,48.203217 69.543900,44.316383 65.076622,46.055988 
	C70.554306,47.346535 74.228439,50.166962 78.427567,51.937126 
	C82.366707,53.597691 84.449409,52.891579 85.507011,49.026115 
	C82.416908,50.834747 79.276398,51.323685 78.106270,47.658390 
	C77.024277,44.269112 78.968323,41.519276 82.128036,39.975948 
	C83.756142,39.180714 85.573669,38.773300 87.662239,38.102539 
	C88.018867,38.014427 87.993164,37.994663 87.979324,37.984711 
	C93.842064,41.725780 95.651924,47.461338 95.883423,54.484688 
	C95.975266,54.957428 95.778244,55.216194 95.778244,55.216194 
	C93.285194,55.731762 91.752472,57.373203 90.510300,59.748959 
	C91.281807,60.902958 92.086929,62.107246 92.829826,63.218452 
	C95.584473,63.563137 96.286522,61.366463 97.583305,59.952660 
	C101.831383,55.321243 104.141029,56.105446 108.201126,60.559822 
	C111.366302,64.032364 113.340843,66.941887 114.425781,71.817909 
	C115.410851,76.245087 120.274673,80.190384 126.240089,80.451675 
	C128.564651,80.553490 129.088806,83.614075 131.515137,84.184914 
	C133.130722,84.373558 133.107147,81.769272 135.071121,81.861237 
	C136.444382,82.220367 137.138168,83.672722 138.119080,84.743660 
	C144.226166,91.411179 146.510437,91.674408 155.206299,88.824425 
	C159.908356,87.283379 165.015884,85.596428 169.924988,89.024796 
	C171.376556,90.038521 171.960098,91.135651 171.711945,92.759178 
	C171.452164,94.458786 170.216263,94.856941 168.754013,94.683815 
	C166.433716,94.409096 163.903549,95.286331 162.743805,96.589226 
	C158.487747,101.370598 152.949539,101.557022 147.365128,101.932777 
	C142.616394,102.252304 138.686707,105.013008 133.609238,106.667259 
	C134.894211,103.200569 135.556946,100.230347 134.845398,97.126450 
	C134.261902,94.581207 133.247345,92.403496 130.806000,91.150429 
	C128.363266,89.896660 126.588295,89.842522 126.624840,93.357124 
	C126.688133,99.443436 125.596359,105.132217 122.217773,110.455338 
	C120.213928,113.612473 120.881042,117.314835 123.420044,120.216972 
	C125.658463,122.775543 125.587906,124.996559 123.729179,127.794472 
	C119.677254,133.893784 120.256660,135.337143 127.244385,137.735901 
	C127.776100,143.553284 123.427856,147.169617 120.395500,151.459930 
	C123.194893,154.017181 126.010368,152.416412 129.278503,152.311600 
	C129.870178,160.327362 127.719406,167.251053 122.219231,173.018433 
	C120.790558,174.516510 118.932480,175.615799 120.283653,177.958130 
	C121.710220,180.431168 123.803360,179.924774 125.939415,178.927155 
	C129.861954,177.095154 131.009949,178.982178 131.078400,182.654282 
	C131.205017,189.447678 130.386871,195.980652 126.233391,201.644333 
	C121.774361,207.724686 117.235092,213.746201 112.135269,220.592957 
	C109.424141,215.189621 108.742104,210.771423 109.396408,206.170273 
	C111.910606,205.683594 111.756157,208.513565 114.040161,208.164566 
	C120.162361,203.019958 125.124084,196.949997 123.907097,187.744186 
	C123.456238,184.333740 121.295525,182.390930 118.240723,181.510086 
	C115.398849,180.690659 112.756912,180.814575 110.768005,183.759644 
	C108.839249,186.615616 108.689064,189.294022 111.534866,191.134048 
	C114.511909,193.058945 116.486824,191.261353 117.558487,188.263855 
	C117.704193,187.856308 118.165085,187.561417 118.728165,186.940964 
	C120.773018,190.822327 117.169464,193.603714 117.381020,196.879776 
	C107.168777,195.453720 104.160522,190.217484 101.462936,178.237686 
	C102.304932,176.950165 103.602737,177.825287 104.657372,177.562866 
	C108.484627,176.610535 109.984268,173.457352 107.808830,170.126953 
	C105.890907,167.190811 105.295502,163.278549 102.107307,161.379379 
	C99.680573,162.001022 101.775894,164.463135 99.829605,165.195068 
	C99.563507,165.049530 98.830971,164.852463 98.815460,164.609604 
	C98.607300,161.349762 96.529068,159.157242 94.300552,157.271118 
	C92.696915,155.913849 90.479767,154.415497 89.243324,158.710083 
	C86.669426,153.100311 90.853165,153.138977 93.788696,151.913895 
	C91.269112,147.098724 92.226418,144.071838 98.073242,143.537079 
	C99.865150,143.373184 100.242493,140.527145 103.133652,140.479675 
	C104.046402,144.883331 111.357353,147.354614 106.717064,154.123871 
	C109.488930,155.531494 111.405571,154.219406 113.765465,152.317719 
	C111.570190,149.318665 109.601883,146.323502 107.317932,143.592300 
	C104.846802,140.637253 104.084496,137.565399 105.432991,133.992508 
	C112.756569,133.998322 112.873642,133.942688 109.455681,126.749763 
	C108.441185,124.614799 109.620758,119.758301 103.861977,121.884827 
	C107.281204,124.132156 108.095413,127.549156 108.841911,131.182602 
	C106.411072,128.215820 102.222946,128.992645 99.712936,126.284302 
	C98.560982,128.998962 101.008156,130.645203 101.404007,132.860092 
	C102.352196,138.165451 99.196098,142.184235 93.828705,142.000214 
	C90.670052,141.891937 89.298759,140.777756 91.324432,137.682648 
	C92.066963,136.548096 92.931229,135.334045 91.798286,134.076355 
	C90.642845,132.793701 88.982048,132.956482 87.592896,133.500519 
	C83.380852,135.150116 78.691559,135.392746 74.672531,137.203201 
	C69.613579,139.482086 65.493912,138.095764 61.579281,135.431870 
	C55.692776,131.426132 51.426548,126.062271 49.548637,118.738716 
	C54.617695,118.965515 58.554306,120.055328 60.615189,125.179520 
	C61.839264,128.223083 64.977150,129.067673 68.918152,129.133057 
	C73.158112,130.521637 76.069000,129.104340 79.414345,127.300545 
	C75.235306,126.080894 72.340599,128.742828 68.987129,129.013321 
M115.120338,157.568069 
	C114.315010,159.378876 113.219124,161.120636 112.768730,163.015793 
	C111.986206,166.308487 113.211632,168.934753 116.494873,170.157074 
	C119.738091,171.364517 120.741364,168.818604 122.051758,166.651047 
	C123.562302,164.152390 123.462677,161.563232 122.738365,158.986847 
	C121.566246,154.817612 119.262215,154.221466 115.120338,157.568069 
M96.828804,80.178001 
	C89.494370,90.146400 89.494370,90.146400 90.814934,94.449913 
	C92.399506,91.006691 92.898369,87.295837 96.218498,85.450333 
	C100.543999,87.284447 101.254768,87.090996 103.369652,83.504036 
	C106.513664,78.171616 106.358994,74.325584 102.465050,71.100380 
	C103.374588,75.843391 97.996895,76.073898 96.828804,80.178001 
M71.392235,80.272560 
	C74.332443,81.396721 77.282043,82.497131 80.209038,83.654701 
	C81.763939,84.269638 83.332718,85.175957 84.810699,83.661499 
	C86.129738,82.309914 86.165344,80.780708 84.861084,78.929970 
	C81.309502,83.368896 78.026199,80.367966 74.906921,78.483421 
	C71.105591,76.186813 66.993118,76.415848 63.714977,79.696205 
	C66.047607,80.426849 68.320717,80.593704 71.392235,80.272560 
M69.511147,94.726021 
	C69.863159,96.501060 71.018196,95.693878 71.689072,95.219124 
	C77.745651,90.932983 81.702591,95.102646 85.788383,98.822365 
	C86.239426,96.093231 84.976265,94.684143 82.762497,93.657074 
	C80.678703,92.690308 78.769791,91.353943 76.730423,90.281990 
	C74.735512,89.233414 72.711784,87.255684 70.366325,88.624352 
	C68.220787,89.876335 70.474854,92.356224 69.511147,94.726021 
M89.312515,122.101044 
	C83.457291,124.048775 87.605385,117.477867 84.521683,116.809212 
	C83.609520,119.856918 80.968872,122.465759 81.892647,127.025459 
	C86.420334,124.517288 91.198944,125.159996 95.810226,124.078682 
	C93.691391,123.509781 92.376030,121.201591 89.312515,122.101044 
M118.219330,128.236496 
	C122.587624,124.124382 122.475327,120.904274 117.551964,117.611778 
	C115.750763,121.236908 112.675011,124.629807 118.219330,128.236496 
M80.944695,106.682503 
	C82.181541,108.385460 83.418396,110.088425 84.939766,112.183136 
	C85.388390,105.754776 89.139015,110.473480 91.504959,110.084038 
	C89.156433,106.703377 82.520744,102.994553 78.216705,102.566315 
	C78.314438,104.253304 79.682838,105.065155 80.944695,106.682503 
M114.928581,111.776268 
	C115.658401,110.665771 116.720428,109.631218 116.031235,107.912636 
	C114.490829,108.886070 114.158333,111.258705 112.083122,110.417664 
	C110.245064,109.455994 111.536049,107.059296 109.732521,106.106133 
	C107.671043,106.521332 107.200806,107.512665 108.161835,109.557388 
	C109.504288,112.413643 111.337265,113.615067 114.928581,111.776268 
M68.179375,107.954208 
	C73.234360,109.404404 70.483727,114.233078 71.753624,117.791939 
	C74.691795,115.867012 75.014229,113.926468 73.900299,111.500755 
	C72.564156,108.591156 70.536087,106.767792 67.129654,106.986992 
	C67.174263,107.145164 67.182457,107.330147 67.273659,107.454010 
	C67.365944,107.579323 67.540398,107.644135 68.179375,107.954208 
M102.812675,155.296371 
	C103.186546,154.481552 104.417336,153.990097 103.613220,152.496368 
	C101.868340,152.348633 99.948334,151.805542 98.731758,153.992920 
	C100.633629,157.711090 100.633629,157.711090 102.812675,155.296371 
M116.524094,148.582367 
	C119.014313,147.675461 120.438850,146.126129 120.068367,143.075638 
	C118.428940,143.943314 117.162270,144.648254 115.865417,145.292419 
	C113.645508,146.395081 114.337624,147.438522 116.524094,148.582367 
M59.903225,71.708336 
	C59.475327,70.966171 60.237759,69.607780 58.385994,69.324608 
	C57.942024,72.134552 57.545410,74.749374 60.023273,77.322273 
	C61.340996,75.103516 60.591290,73.746559 59.903225,71.708336 
M86.862709,60.778507 
	C84.652794,62.374523 81.840576,59.157177 79.783234,61.988087 
	C82.361481,61.824524 85.332947,64.915375 86.862709,60.778507 
M115.469299,99.295036 
	C115.469299,100.248894 115.469299,101.202759 115.469299,102.217690 
	C118.314163,98.677460 117.685387,96.651016 112.956230,94.026497 
	C112.820427,96.099518 115.182365,96.851341 115.469299,99.295036 
z"/>
<path fill="#000000" opacity="1.000000" stroke="none" 
	d="
M96.066757,54.822990 
	C98.529137,52.310322 100.251152,50.524784 97.778275,46.425106 
	C96.077827,43.605995 97.031532,38.776165 99.964119,35.835632 
	C102.723015,33.069248 110.407715,33.523071 114.490158,36.440582 
	C118.119148,39.034039 121.639244,41.793514 123.896812,46.420280 
	C121.116943,46.468258 118.786583,46.223034 116.482758,44.727879 
	C113.988358,43.109051 111.254295,41.853817 108.597961,40.492287 
	C106.949501,39.647354 105.054268,38.647690 103.742844,40.725269 
	C102.677620,42.412815 101.099648,44.407925 103.361610,46.318245 
	C105.712273,47.005642 105.062813,43.979946 106.823578,43.906834 
	C109.931648,44.918919 108.797485,47.506882 108.737061,49.700150 
	C110.263824,51.192291 112.384247,49.182129 114.044273,50.825317 
	C115.212784,52.412361 112.654274,55.045418 116.055206,56.332420 
	C112.432068,58.651810 110.580399,57.825222 108.838661,55.080769 
	C105.516708,49.846416 104.372574,49.942127 100.601509,54.866894 
	C99.477631,56.334614 98.187737,59.227486 95.842148,55.503403 
	C95.778244,55.216194 95.975266,54.957428 96.066757,54.822990 
z"/>
<path fill="#000000" opacity="1.000000" stroke="none" 
	d="
M86.611252,140.589264 
	C91.369423,145.094345 91.348068,145.074265 86.622032,150.098770 
	C86.124199,150.628036 85.992317,151.551895 85.814384,152.321289 
	C85.433685,153.967606 84.670700,155.384872 82.800056,154.550613 
	C80.864426,153.687378 81.529243,152.204620 82.538849,150.857269 
	C82.901222,150.373672 83.084839,149.756149 83.373062,149.151428 
	C79.535492,145.876419 73.631317,146.372055 70.391289,141.184265 
	C74.890274,140.667816 78.746712,140.082993 82.449554,138.795013 
	C84.057297,138.235809 85.323860,139.169968 86.611252,140.589264 
z"/>
<path fill="#000000" opacity="1.000000" stroke="none" 
	d="
M129.144226,124.348946 
	C127.508415,121.442764 126.744125,118.553970 124.970856,115.885979 
	C122.199242,111.715904 125.347496,108.610031 129.373932,105.729706 
	C129.268341,109.281494 128.734161,112.716721 133.105637,113.444397 
	C133.509796,113.511688 134.125473,115.401466 133.828552,116.097679 
	C131.464539,121.640564 133.936737,121.605568 138.050018,119.651863 
	C137.606995,123.559631 133.693237,125.668854 129.144226,124.348946 
z"/>
<path fill="#000000" opacity="1.000000" stroke="none" 
	d="
M144.694305,116.740852 
	C141.396042,118.875954 139.023972,117.265259 135.494736,115.608551 
	C142.399445,112.034225 148.959457,109.981613 153.443039,104.689713 
	C156.168228,108.763405 151.708969,114.971840 144.694305,116.740852 
z"/>
<path fill="#000000" opacity="1.000000" stroke="none" 
	d="
M58.166061,110.130463 
	C58.243420,115.048714 55.001041,115.768784 51.508389,115.697243 
	C45.625530,115.576736 44.961277,110.696396 42.841179,105.256691 
	C48.351715,107.914421 53.573513,107.204094 58.166061,110.130463 
z"/>
<path fill="#000000" opacity="1.000000" stroke="none" 
	d="
M143.991028,134.921844 
	C142.752792,136.307526 141.876846,137.641830 140.644699,138.387802 
	C138.453659,139.714279 136.131409,139.491806 134.273788,137.619125 
	C132.664200,135.996490 133.042831,134.461777 135.417206,131.877274 
	C140.251419,135.720795 140.251419,135.720795 145.374710,128.875916 
	C146.099442,131.179596 144.820724,132.833511 143.991028,134.921844 
z"/>
<path fill="#000000" opacity="1.000000" stroke="none" 
	d="
M111.450577,30.953869 
	C116.044746,30.438051 119.892418,31.532375 123.270493,34.316269 
	C120.473763,37.921047 114.309395,36.183384 111.450577,30.953869 
z"/>
<path fill="#000000" opacity="1.000000" stroke="none" 
	d="
M128.669952,172.588715 
	C127.526787,173.917877 126.996109,175.497467 125.176987,175.479980 
	C126.032890,170.344162 129.611038,166.984604 132.554153,168.566254 
	C132.116074,170.591537 129.689636,170.669601 128.669952,172.588715 
z"/>
<path fill="#000000" opacity="1.000000" stroke="none" 
	d="
M199.056305,108.272415 
	C200.180389,109.998840 201.069763,111.508575 202.206299,113.437881 
	C199.115692,113.553391 197.623688,111.637589 196.737488,109.570633 
	C195.928314,107.683357 197.192932,107.308548 199.056305,108.272415 
z"/>
</svg>