<?xml version="1.0" encoding="UTF-8"?><svg id="Layer_1" xmlns="http://www.w3.org/2000/svg" viewBox="0 0 1582 398.1"><defs><style>.cls-1{fill:red;stroke:#000;stroke-miterlimit:10;}</style></defs><path class="cls-1" d="M261.4,162.6s0,0,0,0h0s0,0,0,0Z"/><path class="cls-1" d="M279.9,168.6s0,0,0,0h0s0,0,0,0Z"/><path class="cls-1" d="M238.1,139.2s0,0,0,0h0s0,0,0,0Z"/><path class="cls-1" d="M282,168.5c-.3,0-.6,0-.9,0-.4,0-.8,0-1.1,0h1.1c0,0,.9,0,.9,0Z"/><polygon class="cls-1" points="356 12.6 355.8 12.8 356 12.5 356 12.6"/><polygon class="cls-1" points="356.1 12.6 356 12.6 356 12.5 356.1 12.6"/><polygon class="cls-1" points="356.1 12.6 356 12.6 356 12.5 356.1 12.6"/><polygon class="cls-1" points="390.8 287.7 387.9 289.2 389.4 287.7 390.8 287.7"/><polygon class="cls-1" points="356 12.6 355.8 12.8 356 12.5 356 12.6"/><path class="cls-1" d="M261.4,162.6s0,0,0,0h0s0,0,0,0Z"/><path class="cls-1" d="M279.9,168.6s0,0,0,0h0s0,0,0,0Z"/><path class="cls-1" d="M282,168.5c-.3,0-.6,0-.9,0-.4,0-.8,0-1.1,0h1.1c0,0,.9,0,.9,0Z"/><path class="cls-1" d="M238.1,139.2s0,0,0,0h0s0,0,0,0Z"/><path class="cls-1" d="M488,92.5l-4,8-11,.7v-2.7l-24,2-8,5-6-1.2v-13.8l-4-5-8-11-7-10-5-17-8-5-5,3v8l5,7v11.4l-3,9.6,3,17-8-2-16-9-14.6-8.7-34.3-27.1-3.2,4.8c9.1,64.2-19.6,109.6-45,112h-.9s-1.1,0-1.1,0c.4,0,.8,0,1.1,0,.3,0,.6,0,.9,0v53.6l7,17.4,48.3,49.3,18.5-.4h0l37.3-18.1v2l3.8-2v8.2s-1.7,2.8-3.8,5.2h0s0,.1,0,.1l-.9,.9-.2,.2-2.7,2.8-1.5,1.5-9.9,5.3-8.5,16.5-24.5,5.5-13,10-9-5.5v-26.5l-8.3-5.3-44.7-30.7-25.8-.4-22.3,12.1-13.3,12.4v8.8l-1.7,3.1-28.8,22.5-28.2,5.5-26,5,15,13,22,11-10,7-8,10h-20l-11,7-6.5-11.8v-41.2l-6.7-12.5h-23.8l-9,12.5-14,7-4-7-10.2-12.5,9-15.3,10.3-14.2,19-14v-22l-14,5-16,8-4.5,12.8-7.3,12.2h-9.2l-8.6,12.8-.2,.3-6.7,7.2-9,7.2v-14.3l.2-8,20.5-32.2,9-41,4.8-9.5v-12l13.2-22.5,15-34,11-34,21-31,28-20,24-25L191.2,7.5h38.5l17.5,11,18,14,6,10,9-10,14.8-25,12.2-7h35.8l13.2,12h0c0,0,0,0,0,0l-.2,.3,.2-.2h0s12.9,15.9,12.9,15.9l21.8-1.2,33.2-1.8,15,6,12,17,5,18,15,15,14,2,3,9Z"/><path class="cls-1" d="M281.1,168.5h0c-.4,0-.8,0-1.1,0h1.1Z"/><g><path class="cls-1" d="M526.2,175.9V93.6h-21.5v-11h51.7v11h-21.6v82.3h-8.6Z"/><path class="cls-1" d="M564.3,175.9V82.6h8v33.5c3.7-6.2,8.5-9.3,14.2-9.3s6.5,1,9.1,3c2.6,2,4.4,4.7,5.5,8.2,1.1,3.5,1.7,8.5,1.7,15.2v42.8h-8v-42.8c0-5.7-.9-9.9-2.6-12.5s-4.2-3.9-7.4-3.9-4.6,.9-6.7,2.6c-2.1,1.8-3.6,4.1-4.5,7.2-.9,3-1.3,7.2-1.3,12.5v37h-8Z"/><path class="cls-1" d="M647.3,154.1l8.3,1.5c-1.3,6.9-3.7,12.3-7.3,16.1-3.5,3.8-8,5.7-13.5,5.7s-12.4-3-16.4-9.1c-4.1-6.1-6.1-14.6-6.1-25.6s2-20.2,6.1-26.5c4.1-6.3,9.4-9.4,15.9-9.4s11.5,3.1,15.5,9.2c4,6.2,6,14.8,6,26s0,1.7,0,3.1h-35.2c.3,7.4,1.8,13.1,4.4,17.1,2.6,3.9,5.9,5.9,9.9,5.9s5.4-1.1,7.5-3.3c2.1-2.2,3.7-5.7,4.9-10.6Zm-26.3-18.5h26.4c-.4-5.7-1.4-10-3-12.8-2.6-4.4-5.9-6.6-9.9-6.6s-6.8,1.8-9.3,5.3c-2.5,3.5-3.9,8.2-4.2,14.1Z"/></g><g><path class="cls-1" d="M575.9,301.5v-16.4h43.6c0,0,0,51.9,0,51.9-6.7,7.3-13.6,12.7-20.7,16.4-7.1,3.7-14.4,5.5-21.9,5.5s-19.3-2.9-27.5-8.8c-8.3-5.9-14.5-14.4-18.7-25.6-4.2-11.1-6.3-23.6-6.3-37.4s2.1-26.4,6.3-38.2c4.2-11.8,10.2-20.6,18.1-26.3,7.9-5.7,16.9-8.6,27.2-8.6s14.2,1.6,20.2,4.9c6,3.3,10.7,7.9,14.1,13.7,3.4,5.9,6,13.5,7.8,22.9l-12.3,4.6c-1.5-7.1-3.5-12.7-5.8-16.8-2.3-4.1-5.6-7.3-9.8-9.8-4.3-2.5-9-3.7-14.2-3.7s-11.6,1.3-16.1,3.9c-4.5,2.6-8.2,6-11,10.2-2.8,4.2-4.9,8.8-6.5,13.9-2.6,8.7-3.9,18.1-3.9,28.2s1.6,22.9,4.7,31.3c3.2,8.4,7.8,14.7,13.8,18.7,6,4.1,12.4,6.1,19.2,6.1s11.7-1.5,17.3-4.6c5.6-3.1,9.9-6.4,12.8-9.9v-26.1h-30.3Z"/><path class="cls-1" d="M686.6,343.9c-4.7,5.4-9.2,9.2-13.5,11.5-4.3,2.2-9,3.3-13.9,3.3-8.2,0-14.5-2.7-18.9-8.2-4.4-5.4-6.6-12.4-6.6-20.9s.8-9.5,2.5-13.6c1.7-4.1,3.8-7.4,6.5-9.9,2.7-2.5,5.7-4.4,9.1-5.6,2.5-.9,6.2-1.8,11.2-2.6,10.2-1.7,17.7-3.6,22.5-5.9,0-2.4,0-3.9,0-4.5,0-7-1.2-11.9-3.6-14.8-3.2-3.9-8-5.8-14.4-5.8s-10.3,1.4-13.2,4.3c-2.8,2.8-4.9,7.9-6.3,15.1l-12.4-2.3c1.1-7.2,3-13,5.5-17.4,2.6-4.4,6.3-7.8,11.2-10.2,4.9-2.4,10.5-3.6,16.9-3.6s11.5,1,15.5,3.1c4,2,6.9,4.6,8.8,7.7,1.9,3.1,3.2,7,3.9,11.7,.4,2.9,.6,8.2,.6,15.9v22.9c0,16,.3,26.1,.8,30.3,.5,4.2,1.6,8.3,3.2,12.2h-13.2c-1.3-3.6-2.2-7.7-2.5-12.5Zm-1.1-38.4c-4.6,2.5-11.5,4.7-20.6,6.5-5.2,1-8.9,2.2-11,3.4-2.2,1.3-3.8,3.1-5,5.6-1.2,2.5-1.8,5.2-1.8,8.2,0,4.6,1.3,8.4,3.8,11.5,2.5,3.1,6.3,4.6,11.2,4.6s9.2-1.4,13-4.3c3.8-2.9,6.6-6.9,8.4-11.9,1.4-3.9,2-9.6,2-17.2v-6.3Z"/><path class="cls-1" d="M717.7,356.4V216.3h12.6v140.1h-12.6Z"/><path class="cls-1" d="M749.6,356.4V216.3h12.6v140.1h-12.6Z"/><path class="cls-1" d="M777.1,305.7c0-18.8,3.8-32.7,11.5-41.8,6.4-7.5,14.2-11.3,23.4-11.3s18.6,4.6,25.1,13.7c6.5,9.1,9.8,21.8,9.8,37.9s-1.4,23.3-4.3,30.8c-2.9,7.5-7.1,13.3-12.6,17.4-5.5,4.1-11.5,6.2-18,6.2-10.4,0-18.9-4.6-25.3-13.7-6.4-9.1-9.7-22.2-9.7-39.4Zm13,0c0,13,2.1,22.7,6.2,29.2,4.2,6.5,9.4,9.7,15.7,9.7s11.5-3.2,15.7-9.7c4.2-6.5,6.2-16.4,6.2-29.7s-2.1-22.1-6.3-28.5c-4.2-6.5-9.4-9.7-15.6-9.7s-11.6,3.2-15.7,9.7c-4.2,6.4-6.2,16.2-6.2,29.1Z"/><path class="cls-1" d="M861.8,395.3V255h11.5v13.2c2.7-5.2,5.8-9,9.2-11.6,3.4-2.6,7.6-3.9,12.4-3.9s12,2.2,16.8,6.7c4.9,4.5,8.5,10.8,11,18.9,2.5,8.1,3.7,17,3.7,26.7s-1.4,19.7-4.1,28c-2.7,8.3-6.7,14.7-11.9,19.1s-10.7,6.6-16.5,6.6-8-1.2-11.3-3.6c-3.3-2.4-6.1-5.5-8.2-9.2v49.4h-12.6Zm11.4-89.1c0,13.1,1.9,22.7,5.8,29,3.9,6.2,8.6,9.4,14.1,9.4s10.4-3.2,14.4-9.7c4-6.5,6-16.5,6-30.1s-2-22.6-5.9-29.1c-3.9-6.4-8.6-9.7-14-9.7s-10.1,3.4-14.3,10.3c-4.1,6.8-6.2,16.8-6.2,29.9Z"/><path class="cls-1" d="M941.8,236.1v-19.8h12.6v19.8h-12.6Zm0,120.3v-101.5h12.6v101.5h-12.6Z"/><path class="cls-1" d="M973.6,356.4v-101.5h11.4v14.4c5.5-11.1,13.4-16.7,23.7-16.7s8.6,1.1,12.4,3.3c3.8,2.2,6.6,5.1,8.5,8.6,1.9,3.6,3.2,7.8,3.9,12.7,.5,3.2,.7,8.8,.7,16.7v62.4h-12.6v-61.7c0-7-.5-12.2-1.5-15.7-1-3.5-2.7-6.2-5.2-8.3-2.5-2.1-5.4-3.1-8.8-3.1-5.4,0-10,2.3-13.9,7-3.9,4.7-5.9,13.5-5.9,26.5v55.4h-12.6Z"/><path class="cls-1" d="M1051.3,364.9l12.3,2.5c.5,5.2,1.9,8.9,4.3,11.3,3.1,3.2,7.4,4.8,12.8,4.8s10.4-1.6,13.5-4.8c3.2-3.2,5.3-7.6,6.5-13.4,.7-3.5,1-10.9,.9-22.1-5.5,8.9-12.4,13.3-20.6,13.3s-18.2-5-23.8-15.1c-5.6-10.1-8.4-22.1-8.4-36.2s1.3-18.6,3.9-26.8c2.6-8.2,6.3-14.5,11.2-19,4.9-4.5,10.6-6.7,17.2-6.7s16,4.8,21.8,14.5v-12.2h11.7v87.7c0,15.8-1.2,27-3.5,33.6-2.4,6.6-6.1,11.8-11.2,15.6-5.1,3.8-11.4,5.7-18.9,5.7s-16.1-2.7-21.5-8.2-8.1-13.7-7.9-24.6Zm10.5-61c0,13.3,1.9,23,5.8,29.1,3.9,6.1,8.8,9.2,14.6,9.2s10.7-3,14.6-9.1c3.9-6.1,5.9-15.6,5.9-28.6s-2-21.8-6.1-28.1c-4-6.3-8.9-9.5-14.6-9.5s-10.4,3.1-14.3,9.3-5.9,15.4-5.9,27.7Z"/><path class="cls-1" d="M1223.2,301.5v-16.4h43.6c0,0,0,51.9,0,51.9-6.7,7.3-13.6,12.7-20.7,16.4-7.1,3.7-14.4,5.5-21.9,5.5s-19.3-2.9-27.5-8.8c-8.3-5.9-14.5-14.4-18.7-25.6-4.2-11.1-6.3-23.6-6.3-37.4s2.1-26.4,6.3-38.2c4.2-11.8,10.2-20.6,18.1-26.3,7.9-5.7,16.9-8.6,27.2-8.6s14.2,1.6,20.2,4.9c6,3.3,10.7,7.9,14.1,13.7,3.4,5.9,6,13.5,7.8,22.9l-12.3,4.6c-1.5-7.1-3.5-12.7-5.8-16.8-2.3-4.1-5.6-7.3-9.8-9.8-4.3-2.5-9-3.7-14.2-3.7s-11.6,1.3-16.1,3.9c-4.5,2.6-8.2,6-11,10.2-2.8,4.2-4.9,8.8-6.5,13.9-2.6,8.7-3.9,18.1-3.9,28.2s1.6,22.9,4.7,31.3,7.8,14.7,13.8,18.7c6,4.1,12.4,6.1,19.2,6.1s11.7-1.5,17.3-4.6c5.6-3.1,9.9-6.4,12.8-9.9v-26.1h-30.3Z"/><path class="cls-1" d="M1280.6,305.7c0-18.8,3.8-32.7,11.5-41.8,6.4-7.5,14.2-11.3,23.4-11.3s18.6,4.6,25.1,13.7c6.5,9.1,9.8,21.8,9.8,37.9s-1.4,23.3-4.3,30.8c-2.9,7.5-7.1,13.3-12.6,17.4-5.5,4.1-11.5,6.2-18,6.2-10.4,0-18.9-4.6-25.3-13.7-6.4-9.1-9.7-22.2-9.7-39.4Zm13,0c0,13,2.1,22.7,6.2,29.2,4.2,6.5,9.4,9.7,15.7,9.7s11.5-3.2,15.7-9.7,6.2-16.4,6.2-29.7-2.1-22.1-6.3-28.5c-4.2-6.5-9.4-9.7-15.6-9.7s-11.6,3.2-15.7,9.7c-4.2,6.4-6.2,16.2-6.2,29.1Z"/><path class="cls-1" d="M1360.5,305.7c0-18.8,3.8-32.7,11.5-41.8,6.4-7.5,14.2-11.3,23.4-11.3s18.6,4.6,25.1,13.7c6.5,9.1,9.8,21.8,9.8,37.9s-1.4,23.3-4.3,30.8c-2.9,7.5-7.1,13.3-12.6,17.4-5.5,4.1-11.5,6.2-18,6.2-10.4,0-18.9-4.6-25.3-13.7-6.4-9.1-9.7-22.2-9.7-39.4Zm13,0c0,13,2.1,22.7,6.2,29.2,4.2,6.5,9.4,9.7,15.7,9.7s11.5-3.2,15.7-9.7,6.2-16.4,6.2-29.7-2.1-22.1-6.3-28.5c-4.2-6.5-9.4-9.7-15.6-9.7s-11.6,3.2-15.7,9.7c-4.2,6.4-6.2,16.2-6.2,29.1Z"/><path class="cls-1" d="M1440.1,326.2l12.5-2.7c.7,6.8,2.7,12,5.9,15.7,3.2,3.6,7.7,5.4,13.4,5.4s10.1-1.6,12.9-4.8c2.8-3.2,4.2-7,4.2-11.3s-1.2-6.9-3.7-9.2c-1.7-1.5-6-3.5-12.9-5.8-9.3-3.2-15.7-5.9-19.3-8.3-3.6-2.3-6.3-5.5-8.1-9.7-1.8-4.1-2.8-8.6-2.8-13.6s.8-8.7,2.3-12.6c1.5-3.9,3.6-7.1,6.2-9.6,2-2,4.6-3.6,8-5,3.4-1.4,7-2.1,10.9-2.1,5.8,0,11,1.1,15.4,3.4,4.4,2.3,7.7,5.4,9.8,9.3,2.1,3.9,3.6,9.2,4.4,15.7l-12.4,2.3c-.6-5.2-2.2-9.3-4.9-12.2-2.7-2.9-6.5-4.4-11.4-4.4s-9.9,1.3-12.4,3.9c-2.5,2.6-3.7,5.7-3.7,9.2s.5,4.2,1.5,6c1,1.8,2.6,3.4,4.8,4.6,1.3,.6,5,2.1,11.2,4.4,8.9,3.2,15.2,5.9,18.7,8,3.5,2.1,6.3,5.1,8.3,9,2,4,3,8.9,3,14.7s-1.2,11.1-3.7,16.2c-2.5,5.1-6,9-10.6,11.8-4.6,2.8-9.9,4.2-15.7,4.2-9.7,0-17.1-2.7-22.1-8.2-5.1-5.5-8.3-13.6-9.7-24.4Z"/><path class="cls-1" d="M1568.1,323.8l13.1,2.2c-2.1,10.4-5.9,18.4-11.4,24.2s-12.7,8.6-21.3,8.6-19.5-4.6-25.9-13.7c-6.4-9.1-9.6-22-9.6-38.5s3.2-30.3,9.7-39.8c6.5-9.4,14.8-14.1,25.1-14.1s18.1,4.6,24.4,13.9c6.3,9.2,9.5,22.2,9.5,39s0,2.5,0,4.6h-55.6c.5,11.2,2.8,19.7,6.9,25.6,4.2,5.9,9.4,8.9,15.6,8.9s8.6-1.7,11.9-5c3.3-3.3,5.9-8.6,7.8-15.9Zm-41.5-27.8h41.6c-.6-8.5-2.2-14.9-4.8-19.2-4-6.6-9.2-9.9-15.7-9.9s-10.7,2.6-14.6,7.9c-4,5.3-6.1,12.4-6.6,21.2Z"/></g></svg>