<?xml version="1.0" encoding="UTF-8" standalone="no"?>
<!DOCTYPE svg PUBLIC "-//W3C//DTD SVG 20010904//EN"
              "http://www.w3.org/TR/2001/REC-SVG-20010904/DTD/svg10.dtd">

<svg xmlns="http://www.w3.org/2000/svg"
     width="26.6667in" height="15in"
     viewBox="0 0 1920 1080">
  <path id="Selection"
        fill="transparent" stroke="darkred" stroke-width="1"
        d="M 0.00,0.00
           C 0.00,0.00 1920.00,0.00 1920.00,0.00
             1920.00,0.00 1920.00,1080.00 1920.00,1080.00
             1920.00,1080.00 0.00,1080.00 0.00,1080.00
             0.00,1080.00 0.00,0.00 0.00,0.00 Z
           M 610.00,449.00
           C 595.26,442.10 592.13,448.46 583.00,440.70
             574.50,433.46 572.97,424.20 566.47,416.02
             562.01,410.39 548.12,403.04 541.00,401.52
             538.25,400.93 535.78,401.00 533.00,401.00
             523.23,400.98 517.89,400.74 508.00,402.17
             501.21,403.15 500.76,404.89 492.00,405.00
             489.31,405.03 483.42,405.22 481.09,404.44
             474.86,402.38 464.99,391.84 459.00,387.49
             452.52,382.78 437.03,377.10 429.00,377.00
             416.40,376.85 400.13,381.97 391.04,391.04
             385.37,396.70 375.70,411.58 367.00,411.84
             361.93,411.99 354.63,405.25 350.00,402.45
             337.33,394.79 326.22,388.02 311.00,388.00
             311.00,388.00 282.00,388.00 282.00,388.00
             271.38,388.02 261.23,392.07 251.00,394.63
             241.67,396.96 236.19,397.21 227.00,401.63
             227.00,401.63 195.00,422.72 195.00,422.72
             195.00,422.72 176.00,432.46 176.00,432.46
             164.25,439.26 154.19,447.88 145.17,458.00
             137.25,466.89 133.58,479.37 128.51,490.00
             126.84,493.50 120.69,502.68 118.25,506.00
             118.25,506.00 98.41,530.00 98.41,530.00
             96.83,533.79 99.36,535.15 98.41,538.28
             97.85,540.11 90.99,549.53 88.78,557.00
             87.17,562.46 86.14,575.71 83.84,579.99
             81.06,585.16 74.73,587.43 71.31,591.30
             68.77,594.18 69.32,596.09 67.41,599.00
             65.18,602.38 61.34,604.60 60.10,607.17
             59.42,608.88 60.00,616.54 60.10,619.00
             60.10,619.00 78.00,608.64 78.00,608.64
             78.00,608.64 85.00,606.00 85.00,606.00
             85.00,606.00 81.00,606.00 81.00,606.00
             86.80,600.40 85.65,600.85 92.99,600.42
             101.37,599.92 100.90,591.34 110.04,583.82
             115.82,579.06 135.28,572.08 143.00,570.00
             143.88,574.94 144.32,579.97 144.02,585.00
             143.60,592.02 135.42,594.54 130.00,597.25
             118.79,602.85 110.39,609.67 103.00,620.00
             106.68,622.70 116.85,633.83 119.32,634.33
             121.44,634.77 125.80,633.07 128.00,632.42
             145.14,627.39 140.47,622.03 155.00,622.00
             158.80,621.99 171.06,621.39 173.78,623.02
             176.17,624.46 177.72,628.45 178.68,631.00
             180.96,637.07 179.99,652.79 180.00,660.00
             180.00,661.86 179.88,665.13 180.60,666.79
             182.06,670.15 188.51,673.07 192.00,672.05
             195.27,671.09 199.54,666.44 205.00,665.62
             209.45,664.95 212.95,667.63 215.90,667.36
             218.75,667.11 220.07,664.36 222.21,662.81
             227.86,658.70 234.32,659.91 238.00,653.00
             238.00,653.00 215.00,644.19 215.00,644.19
             215.00,644.19 203.21,638.59 203.21,638.59
             203.21,638.59 197.00,629.00 197.00,629.00
             197.00,629.00 233.00,629.00 233.00,629.00
             241.39,628.96 243.41,627.62 251.00,626.44
             251.00,626.44 261.00,625.35 261.00,625.35
             264.29,624.36 269.77,620.53 273.00,618.60
             273.00,618.60 288.00,609.61 288.00,609.61
             299.65,600.44 297.36,597.47 315.00,589.32
             322.60,585.81 340.92,585.70 350.00,584.68
             355.47,584.31 362.65,583.03 368.00,584.68
             373.46,586.06 385.01,591.36 390.00,594.23
             390.00,594.23 399.00,599.74 399.00,599.74
             403.57,601.98 408.05,601.54 413.00,604.00
             424.71,609.81 429.26,619.65 431.00,632.16
             433.06,632.26 436.03,632.89 438.00,632.16
             444.01,630.54 443.32,625.18 454.00,625.01
             454.00,625.01 467.00,625.01 467.00,625.01
             469.50,625.25 472.51,626.14 474.82,625.01
             477.25,623.67 478.97,620.18 480.61,618.00
             482.88,614.97 487.08,610.76 490.00,608.32
             498.54,601.21 505.69,601.62 506.00,592.00
             506.00,592.00 464.00,602.84 464.00,602.84
             464.00,602.84 448.00,602.84 448.00,602.84
             448.00,602.84 437.00,601.34 437.00,601.34
             437.00,601.34 406.00,582.19 406.00,582.19
             406.00,582.19 389.33,570.47 389.33,570.47
             389.33,570.47 379.17,554.00 379.17,554.00
             379.17,554.00 379.17,547.00 379.17,547.00
             379.17,547.00 379.17,511.00 379.17,511.00
             379.17,511.00 383.00,511.00 383.00,511.00
             390.32,510.90 399.21,506.14 405.00,501.76
             420.93,489.71 430.97,466.91 431.00,447.00
             431.00,447.00 431.00,428.00 431.00,428.00
             431.00,428.00 428.00,428.00 428.00,428.00
             428.45,422.45 431.75,417.33 438.00,420.19
             438.00,420.19 453.00,431.05 453.00,431.05
             460.51,435.89 484.12,447.05 493.00,450.60
             499.77,453.31 506.63,456.82 514.00,457.00
             513.04,453.58 510.88,450.69 511.15,447.00
             511.15,447.00 514.81,431.96 514.81,431.96
             514.31,426.69 508.69,423.94 509.42,419.09
             509.98,415.40 514.54,412.63 518.00,414.08
             523.92,416.56 526.79,424.41 530.39,429.00
             530.39,429.00 548.49,448.00 548.49,448.00
             552.13,453.20 550.00,456.93 552.60,458.98
             556.28,461.88 564.36,457.02 574.00,457.00
             574.00,457.00 589.91,456.43 589.91,456.43
             596.72,456.96 602.07,461.73 607.91,452.98
             608.86,451.57 609.32,450.52 610.00,449.00 Z
           M 691.00,454.00
           C 691.00,454.00 647.00,454.00 647.00,454.00
             647.29,462.25 648.44,461.00 665.00,461.00
             665.00,461.00 665.00,508.00 665.00,508.00
             665.00,508.00 673.00,508.00 673.00,508.00
             673.00,508.00 673.00,461.00 673.00,461.00
             673.00,461.00 691.00,461.00 691.00,461.00
             691.00,461.00 691.00,454.00 691.00,454.00 Z
           M 704.00,454.00
           C 704.00,454.00 697.00,454.00 697.00,454.00
             697.00,454.00 697.00,508.00 697.00,508.00
             697.00,508.00 704.00,508.00 704.00,508.00
             704.00,502.53 703.31,485.08 705.01,481.02
             707.03,476.17 712.91,472.42 717.78,475.86
             720.59,477.85 721.48,481.76 721.91,485.00
             721.91,485.00 721.91,508.00 721.91,508.00
             721.91,508.00 729.00,508.00 729.00,508.00
             729.00,508.00 729.00,484.00 729.00,484.00
             728.98,480.29 728.97,476.36 726.91,473.10
             724.61,469.45 721.11,468.26 717.00,468.04
             711.02,467.73 708.83,468.60 704.00,472.00
             704.00,472.00 704.00,454.00 704.00,454.00 Z
           M 773.00,490.00
           C 772.94,483.14 772.22,477.20 766.90,472.21
             763.11,468.67 759.99,468.01 755.00,468.01
             742.21,467.99 735.25,477.69 736.18,490.00
             736.65,496.16 738.77,502.63 744.04,506.30
             747.15,508.46 750.33,508.90 754.00,508.99
             764.19,509.23 770.01,506.22 773.00,496.00
             771.02,496.01 767.98,495.87 766.17,496.60
             763.50,497.67 761.87,500.40 758.99,501.82
             753.66,504.44 748.15,500.75 745.69,495.98
             744.60,493.88 744.37,492.27 744.00,490.00
             744.00,490.00 773.00,490.00 773.00,490.00 Z
           M 744.00,484.00
           C 745.17,480.75 746.10,477.81 749.11,475.74
             756.32,470.75 763.52,476.26 765.00,484.00
             765.00,484.00 744.00,484.00 744.00,484.00 Z
           M 740.00,573.00
           C 739.57,568.22 738.85,566.40 736.99,562.00
             729.93,545.32 713.77,536.21 696.00,536.00
             696.00,536.00 684.00,536.00 684.00,536.00
             670.03,536.17 652.55,543.02 643.67,554.01
             623.00,579.61 622.64,626.68 649.00,648.68
             663.12,660.46 677.52,662.03 695.00,662.00
             707.20,661.98 718.24,658.30 729.00,652.74
             732.20,651.09 740.02,646.89 741.43,643.68
             742.14,642.06 742.00,638.82 742.00,637.00
             742.00,637.00 742.00,606.00 742.00,606.00
             742.00,603.70 742.38,599.59 740.40,598.01
             737.64,595.84 725.13,597.98 721.00,598.01
             721.00,598.01 690.00,598.01 690.00,598.01
             690.00,598.01 690.00,612.00 690.00,612.00
             690.00,612.00 725.00,612.00 725.00,612.00
             725.00,612.00 725.00,628.00 725.00,628.00
             725.00,629.91 725.12,633.10 724.40,634.82
             722.63,639.03 712.28,643.20 708.00,644.64
             691.36,650.24 672.21,648.46 659.09,635.83
             638.42,615.95 639.71,558.34 681.00,551.08
             684.32,550.50 687.61,549.90 691.00,550.09
             700.97,550.66 711.10,554.22 717.67,562.01
             723.14,568.50 722.63,574.01 726.27,575.31
             728.27,576.02 736.96,573.43 740.00,573.00 Z
           M 1508.00,573.00
           C 1507.57,568.22 1506.85,566.40 1504.99,562.00
             1497.93,545.32 1481.77,536.21 1464.00,536.00
             1464.00,536.00 1452.00,536.00 1452.00,536.00
             1438.03,536.17 1420.55,543.02 1411.67,554.01
             1391.00,579.61 1390.64,626.68 1417.00,648.68
             1431.12,660.46 1445.52,662.03 1463.00,662.00
             1475.20,661.98 1486.24,658.30 1497.00,652.74
             1500.20,651.09 1508.02,646.89 1509.43,643.68
             1510.14,642.06 1510.00,638.82 1510.00,637.00
             1510.00,637.00 1510.00,606.00 1510.00,606.00
             1510.00,603.70 1510.38,599.59 1508.40,598.01
             1505.64,595.84 1493.13,597.98 1489.00,598.01
             1489.00,598.01 1458.00,598.01 1458.00,598.01
             1458.00,598.01 1458.00,612.00 1458.00,612.00
             1458.00,612.00 1493.00,612.00 1493.00,612.00
             1493.00,612.00 1493.00,628.00 1493.00,628.00
             1493.00,629.91 1493.12,633.10 1492.40,634.82
             1490.63,639.03 1480.28,643.20 1476.00,644.64
             1459.36,650.24 1440.21,648.46 1427.09,635.83
             1406.42,615.95 1407.71,558.34 1449.00,551.08
             1452.32,550.50 1455.61,549.90 1459.00,550.09
             1468.97,550.66 1479.10,554.22 1485.67,562.01
             1491.14,568.50 1490.63,574.01 1494.27,575.31
             1496.27,576.02 1504.96,573.43 1508.00,573.00 Z
           M 873.00,538.00
           C 873.00,538.00 857.00,538.00 857.00,538.00
             857.00,538.00 857.00,660.00 857.00,660.00
             857.00,660.00 873.00,660.00 873.00,660.00
             873.00,660.00 873.00,538.00 873.00,538.00 Z
           M 911.00,538.00
           C 911.00,538.00 895.00,538.00 895.00,538.00
             895.00,538.00 895.00,660.00 895.00,660.00
             895.00,660.00 911.00,660.00 911.00,660.00
             911.00,660.00 911.00,538.00 911.00,538.00 Z
           M 1140.00,538.00
           C 1140.00,538.00 1124.00,538.00 1124.00,538.00
             1124.00,538.00 1124.00,555.00 1124.00,555.00
             1124.00,555.00 1140.00,555.00 1140.00,555.00
             1140.00,555.00 1140.00,538.00 1140.00,538.00 Z
           M 840.00,660.00
           C 838.79,657.15 837.24,653.98 836.52,651.00
             833.94,640.26 835.06,609.80 835.00,597.00
             834.96,589.48 833.56,581.72 827.82,576.33
             816.35,565.56 784.33,566.90 772.00,575.79
             764.43,581.25 762.52,587.55 760.00,596.00
             763.04,596.89 771.78,598.76 774.59,597.43
             778.06,595.77 777.42,589.67 785.00,585.00
             793.86,579.55 810.19,581.06 816.30,590.02
             819.31,594.43 819.00,598.94 819.00,604.00
             819.00,604.00 800.00,607.73 800.00,607.73
             787.89,609.51 773.50,609.80 764.47,619.30
             755.46,628.76 755.58,645.73 765.09,654.82
             770.65,660.13 777.50,661.91 785.00,662.00
             791.62,662.07 796.58,662.35 803.00,660.25
             809.95,657.97 814.64,654.10 821.00,651.00
             822.00,661.94 824.61,660.00 840.00,660.00 Z
           M 962.00,569.30
           C 952.29,571.13 943.76,575.01 937.53,583.00
             920.31,605.09 924.60,661.51 966.00,662.00
             978.40,662.14 988.00,661.13 997.99,652.67
             1016.02,637.41 1016.27,596.64 999.83,580.17
             989.29,569.62 976.18,567.89 962.00,569.30 Z
           M 1045.00,653.00
           C 1053.68,660.34 1057.73,662.12 1069.00,662.00
             1107.58,661.56 1114.63,607.10 1097.37,583.00
             1089.11,571.48 1079.35,568.84 1066.00,569.00
             1062.40,569.05 1060.43,569.15 1057.00,570.47
             1050.71,572.88 1047.30,576.00 1043.00,581.00
             1043.00,581.00 1043.00,571.00 1043.00,571.00
             1043.00,571.00 1029.00,571.00 1029.00,571.00
             1029.00,571.00 1029.00,694.00 1029.00,694.00
             1029.00,694.00 1045.00,694.00 1045.00,694.00
             1045.00,694.00 1045.00,653.00 1045.00,653.00 Z
           M 1234.00,660.00
           C 1234.00,660.00 1234.00,598.00 1234.00,598.00
             1233.98,592.91 1233.53,588.76 1231.52,584.00
             1226.00,570.85 1213.53,568.86 1201.00,569.00
             1196.83,569.05 1193.93,569.35 1190.00,570.93
             1183.99,573.33 1180.53,576.57 1176.00,581.00
             1176.00,581.00 1176.00,571.00 1176.00,571.00
             1176.00,571.00 1162.00,571.00 1162.00,571.00
             1162.00,571.00 1162.00,660.00 1162.00,660.00
             1162.00,660.00 1178.00,660.00 1178.00,660.00
             1178.00,660.00 1178.00,617.00 1178.00,617.00
             1178.00,608.86 1177.10,600.35 1181.36,593.00
             1188.03,581.51 1205.67,577.83 1214.44,589.04
             1218.09,593.70 1217.99,597.44 1218.00,603.00
             1218.00,603.00 1218.00,660.00 1218.00,660.00
             1218.00,660.00 1234.00,660.00 1234.00,660.00 Z
           M 1315.00,580.00
           C 1305.08,570.56 1300.33,568.85 1287.00,569.00
             1238.98,569.57 1238.80,659.43 1287.00,660.00
             1299.95,660.15 1304.02,658.57 1314.00,650.00
             1313.68,657.00 1313.16,667.00 1309.64,673.00
             1303.90,682.76 1288.93,685.49 1279.00,681.03
             1271.20,677.53 1271.22,672.10 1268.49,669.74
             1265.74,667.35 1257.63,667.03 1254.00,667.00
             1254.07,674.32 1255.15,680.28 1260.21,685.96
             1273.94,701.37 1311.17,699.44 1322.90,682.00
             1328.69,673.38 1328.25,666.61 1329.17,657.00
             1329.17,657.00 1330.00,648.00 1330.00,648.00
             1330.00,648.00 1330.00,571.00 1330.00,571.00
             1330.00,571.00 1315.00,571.00 1315.00,571.00
             1315.00,571.00 1315.00,580.00 1315.00,580.00 Z
           M 1559.00,569.30
           C 1549.29,571.13 1540.76,575.01 1534.53,583.00
             1517.31,605.09 1521.60,661.51 1563.00,662.00
             1575.40,662.14 1585.00,661.13 1594.99,652.67
             1613.02,637.41 1613.27,596.64 1596.83,580.17
             1586.29,569.62 1573.18,567.89 1559.00,569.30 Z
           M 1654.00,569.30
           C 1644.29,571.13 1635.76,575.01 1629.53,583.00
             1612.31,605.09 1616.60,661.51 1658.00,662.00
             1670.40,662.14 1680.00,661.13 1689.99,652.67
             1708.02,637.41 1708.27,596.64 1691.83,580.17
             1681.29,569.62 1668.18,567.89 1654.00,569.30 Z
           M 1785.00,595.00
           C 1784.48,572.16 1765.40,568.79 1747.00,569.00
             1742.73,569.05 1740.09,569.41 1736.00,570.75
             1725.01,574.35 1716.18,583.79 1717.19,596.00
             1718.85,616.08 1739.37,618.87 1755.00,623.15
             1761.56,624.95 1773.74,627.80 1772.02,637.00
             1770.63,644.39 1761.87,648.64 1755.00,648.96
             1742.76,649.54 1732.39,644.15 1731.00,631.00
             1731.00,631.00 1715.00,633.00 1715.00,633.00
             1716.13,645.50 1723.73,656.44 1736.00,660.23
             1742.96,662.38 1749.81,662.08 1757.00,662.00
             1773.91,661.80 1790.04,650.29 1788.91,632.00
             1787.68,612.15 1766.22,609.37 1751.00,605.00
             1745.15,603.32 1735.82,601.57 1733.62,595.00
             1730.75,586.44 1742.60,582.30 1749.00,582.04
             1759.35,581.62 1766.95,585.66 1770.00,596.00
             1770.00,596.00 1785.00,595.00 1785.00,595.00 Z
           M 1883.00,619.00
           C 1883.00,608.22 1882.25,596.50 1876.52,587.00
             1871.19,578.16 1861.27,571.04 1851.00,569.16
             1851.00,569.16 1839.00,569.16 1839.00,569.16
             1829.14,569.12 1819.98,572.90 1813.09,580.04
             1802.20,591.33 1800.83,605.22 1801.00,620.00
             1801.21,637.42 1809.19,652.96 1826.00,659.54
             1833.47,662.46 1839.20,662.09 1847.00,662.00
             1863.57,661.80 1880.41,650.48 1882.00,633.00
             1882.00,633.00 1872.00,632.17 1872.00,632.17
             1862.52,631.44 1866.25,637.41 1856.99,644.44
             1843.86,654.40 1826.65,647.19 1820.35,633.00
             1818.53,628.90 1817.60,623.45 1817.00,619.00
             1817.00,619.00 1883.00,619.00 1883.00,619.00 Z
           M 1140.00,571.00
           C 1140.00,571.00 1124.00,571.00 1124.00,571.00
             1124.00,571.00 1124.00,660.00 1124.00,660.00
             1124.00,660.00 1140.00,660.00 1140.00,660.00
             1140.00,660.00 1140.00,571.00 1140.00,571.00 Z
           M 1064.00,581.47
           C 1074.10,580.28 1082.47,585.84 1086.65,595.00
             1093.91,610.93 1091.56,644.90 1070.00,648.67
             1056.43,651.05 1047.14,641.60 1044.45,629.00
             1040.74,611.57 1043.30,586.37 1064.00,581.47 Z
           M 965.00,582.47
           C 968.54,581.97 971.44,581.79 975.00,582.47
             985.84,584.51 993.15,594.47 994.85,605.00
             994.85,605.00 994.85,620.00 994.85,620.00
             994.85,632.69 988.60,645.96 975.00,648.53
             941.89,654.79 939.43,608.69 949.56,593.01
             953.45,586.99 958.16,584.10 965.00,582.47 Z
           M 1286.00,582.53
           C 1307.45,579.03 1315.40,597.88 1314.99,616.00
             1314.69,628.93 1310.15,643.21 1296.00,646.47
             1283.46,649.37 1272.94,641.89 1269.22,630.00
             1263.95,613.16 1266.53,588.35 1286.00,582.53 Z
           M 1562.00,582.47
           C 1565.54,581.97 1568.44,581.79 1572.00,582.47
             1582.84,584.51 1590.15,594.47 1591.85,605.00
             1591.85,605.00 1591.85,620.00 1591.85,620.00
             1591.85,632.69 1585.60,645.96 1572.00,648.53
             1538.89,654.79 1536.43,608.69 1546.56,593.01
             1550.45,586.99 1555.16,584.10 1562.00,582.47 Z
           M 1657.00,582.47
           C 1660.54,581.97 1663.44,581.79 1667.00,582.47
             1677.84,584.51 1685.15,594.47 1686.85,605.00
             1686.85,605.00 1686.85,620.00 1686.85,620.00
             1686.85,632.69 1680.60,645.96 1667.00,648.53
             1633.89,654.79 1631.43,608.69 1641.56,593.01
             1645.45,586.99 1650.16,584.10 1657.00,582.47 Z
           M 1818.00,606.00
           C 1818.68,597.93 1821.33,591.56 1828.00,586.56
             1838.75,578.50 1855.81,581.15 1862.64,593.00
             1865.08,597.25 1865.78,601.19 1866.00,606.00
             1866.00,606.00 1818.00,606.00 1818.00,606.00 Z
           M 819.00,617.00
           C 819.00,623.74 819.54,629.66 816.65,636.00
             811.18,647.99 790.06,655.10 779.21,646.20
             773.38,641.42 772.02,628.43 784.00,624.10
             787.51,622.84 794.11,621.90 798.00,621.25
             798.00,621.25 819.00,617.00 819.00,617.00 Z" />

</svg>
