<?xml version="1.0" encoding="UTF-8"?><svg id="Layer_1" xmlns="http://www.w3.org/2000/svg" viewBox="0 0 1184.8 499.5"><defs><style>.cls-1{fill:#fff;}</style></defs><g><path class="cls-1" d="m282.9,165.9c5.9-14.1,9.1-29.6,9.1-45.9C292,53.7,238.3,0,172,0S52,53.7,52,120s3.4,32.4,9.5,46.8C25.8,179.4,0,215.5,0,258s40.1,96,89.5,96,14.8-1,21.8-2.9l-55.4-60.4,8.8-8.1,58.9,64.2c17.1-7.6,31.5-20.6,41.3-37.1l-.4-143.1h20c0,0,.5,151.3.5,151.3,3.5,4.8,7.3,9.3,11.6,13.3l83.5-94.6,9,7.9-83.2,94.3c14.1,10.2,31,16.2,49.2,16.2,49.2,0,89-43.4,89-97s-25.6-79.4-61.1-92.1Z"/><path class="cls-1" d="m185,344.2v-26.3c-5.2-7.1-9.5-15.1-12.6-23.6-2.1,5.4-4.6,10.6-7.5,15.5l.2,82.4-41.6-45.3c-4,1.8-8.1,3.2-12.3,4.3l53.9,58.8.3,89.6h20c0,0-.4-142.8-.4-142.8l2.8,2.4,17.9-20.3c-3.2-2.3-6.3-4.9-9.2-7.7l-11.5,13Z"/></g><g><path class="cls-1" d="m425.9,350.4V49h-103.1V8.6h248.1v40.3h-103.6v301.5h-41.4Z"/><path class="cls-1" d="m591.8,350.4V102.8h34.6v37.5c8.8-17.6,17-29.1,24.4-34.7,7.5-5.6,15.7-8.4,24.7-8.4,13,0,26.1,4.5,39.5,13.5l-13.2,38.9c-9.4-6.1-18.8-9.1-28.2-9.1s-15.9,2.8-22.6,8.3c-6.7,5.5-11.5,13.2-14.3,23-4.3,14.9-6.4,31.2-6.4,49v129.6h-38.4Z"/><path class="cls-1" d="m893.1,270.7l39.7,5.4c-6.3,25.3-17.9,45-34.8,59-16.9,14-38.6,21-64.9,21s-59.5-11.2-78.9-33.5c-19.4-22.3-29.1-53.6-29.1-93.8s9.8-74,29.5-97c19.6-23,45.1-34.5,76.4-34.5s55.1,11.3,74.3,33.8c19.2,22.5,28.8,54.2,28.8,95.1s0,6.2-.2,11.2h-169.1c1.4,27.2,8.5,48,21.1,62.5,12.7,14.5,28.5,21.7,47.4,21.7s26.1-4,36.1-12.1c10-8.1,17.9-21,23.7-38.7Zm-126.2-67.8h126.6c-1.7-20.8-6.5-36.4-14.5-46.9-12.2-16.2-28.1-24.2-47.6-24.2s-32.5,6.5-44.5,19.4c-12,12.9-18.7,30.2-20,51.8Z"/><path class="cls-1" d="m1136.3,270.7l39.7,5.4c-6.3,25.3-17.9,45-34.8,59-16.9,14-38.6,21-64.9,21s-59.5-11.2-78.9-33.5c-19.4-22.3-29.1-53.6-29.1-93.8s9.8-74,29.5-97c19.6-23,45.1-34.5,76.4-34.5s55.1,11.3,74.3,33.8c19.2,22.5,28.8,54.2,28.8,95.1s0,6.2-.2,11.2h-169.1c1.4,27.2,8.5,48,21.1,62.5,12.7,14.5,28.5,21.7,47.4,21.7s26.1-4,36.1-12.1c10-8.1,17.9-21,23.7-38.7Zm-126.2-67.8h126.6c-1.7-20.8-6.5-36.4-14.5-46.9-12.2-16.2-28.1-24.2-47.6-24.2s-32.5,6.5-44.5,19.4c-12,12.9-18.7,30.2-20,51.8Z"/></g><g><path class="cls-1" d="m406.4,465.8v-88.8h37.6c6.6,0,11.7.3,15.2.8,4.9.7,9,2.1,12.3,4.1,3.3,2,6,4.9,8,8.6,2,3.7,3,7.7,3,12.1,0,7.5-2.7,13.9-8.1,19.2-5.4,5.2-15.2,7.8-29.3,7.8h-25.6v36.1h-13.2Zm13.2-46.6h25.8c8.5,0,14.6-1.4,18.2-4.2,3.6-2.8,5.4-6.8,5.4-11.9s-1.1-6.9-3.2-9.5c-2.1-2.6-4.9-4.4-8.3-5.2-2.2-.5-6.3-.8-12.3-.8h-25.5v31.7Z"/><path class="cls-1" d="m497.8,465.8v-88.8h12.2v31.9c5.7-5.9,12.9-8.8,21.6-8.8s10,.9,14,2.8,6.8,4.5,8.5,7.8c1.7,3.3,2.6,8.1,2.6,14.4v40.8h-12.2v-40.8c0-5.4-1.3-9.4-4-11.9-2.7-2.5-6.4-3.7-11.3-3.7s-7,.8-10.2,2.5c-3.2,1.7-5.5,3.9-6.8,6.8-1.4,2.9-2,6.8-2,11.9v35.2h-12.2Z"/><path class="cls-1" d="m570.7,433.7c0-11.9,3.7-20.7,11.2-26.5,6.2-4.8,13.8-7.1,22.7-7.1s18.1,2.9,24.4,8.7c6.3,5.8,9.5,13.8,9.5,24s-1.4,14.8-4.2,19.5c-2.8,4.7-6.9,8.4-12.2,11.1-5.3,2.6-11.2,3.9-17.5,3.9-10.1,0-18.3-2.9-24.5-8.7-6.2-5.8-9.4-14.1-9.4-24.9Zm12.6,0c0,8.2,2,14.4,6.1,18.5,4,4.1,9.1,6.1,15.2,6.1s11.1-2.1,15.2-6.2c4-4.1,6.1-10.4,6.1-18.8s-2-14-6.1-18.1c-4.1-4.1-9.1-6.1-15.1-6.1s-11.2,2-15.2,6.1c-4,4.1-6.1,10.2-6.1,18.5Z"/><path class="cls-1" d="m679.5,456.1l1.8,9.6c-3.4.6-6.5,1-9.3,1-4.4,0-7.9-.6-10.3-1.9s-4.2-2.9-5.2-4.9c-1-2-1.5-6.3-1.5-12.9v-37h-9v-8.5h9v-15.9l12.2-6.5v22.5h12.3v8.5h-12.3v37.6c0,3.1.2,5.1.6,6,.4.9,1.1,1.6,2.1,2.1s2.4.8,4.2.8,3.2-.1,5.4-.4Z"/><path class="cls-1" d="m687,433.7c0-11.9,3.7-20.7,11.2-26.5,6.2-4.8,13.8-7.1,22.7-7.1s18.1,2.9,24.4,8.7c6.3,5.8,9.5,13.8,9.5,24s-1.4,14.8-4.2,19.5c-2.8,4.7-6.9,8.4-12.2,11.1-5.3,2.6-11.2,3.9-17.5,3.9-10.1,0-18.3-2.9-24.5-8.7-6.2-5.8-9.4-14.1-9.4-24.9Zm12.6,0c0,8.2,2,14.4,6.1,18.5,4,4.1,9.1,6.1,15.2,6.1s11.1-2.1,15.2-6.2c4-4.1,6.1-10.4,6.1-18.8s-2-14-6.1-18.1c-4.1-4.1-9.1-6.1-15.1-6.1s-11.2,2-15.2,6.1c-4,4.1-6.1,10.2-6.1,18.5Z"/><path class="cls-1" d="m766.8,471.2l11.9,1.6c.5,3.3,1.9,5.7,4.2,7.1,3,2,7.2,3,12.5,3s10-1,13.1-3c3.1-2,5.2-4.8,6.3-8.5.6-2.2.9-6.9.9-14-5.4,5.6-12,8.4-20,8.4s-17.6-3.2-23.1-9.6-8.2-14-8.2-23,1.2-11.8,3.7-17c2.5-5.2,6.1-9.2,10.9-12,4.7-2.8,10.3-4.2,16.7-4.2s15.6,3.1,21.1,9.2v-7.8h11.3v55.6c0,10-1.1,17.1-3.4,21.3-2.3,4.2-5.9,7.5-10.9,9.9-5,2.4-11.1,3.6-18.3,3.6s-15.6-1.7-20.9-5.2c-5.3-3.5-7.9-8.7-7.7-15.6Zm10.1-38.6c0,8.4,1.9,14.6,5.6,18.5,3.8,3.9,8.5,5.8,14.2,5.8s10.3-1.9,14.2-5.8c3.8-3.9,5.7-9.9,5.7-18.1s-2-13.8-5.9-17.8c-3.9-4-8.7-6-14.2-6s-10.1,2-13.9,5.9c-3.8,3.9-5.7,9.8-5.7,17.5Z"/><path class="cls-1" d="m846.4,465.8v-64.3h11v9.7c2.8-4.6,5.4-7.6,7.8-9s5-2.2,7.9-2.2c4.1,0,8.3,1.2,12.6,3.5l-4.2,10.1c-3-1.6-6-2.4-9-2.4s-5.1.7-7.2,2.2c-2.1,1.4-3.7,3.4-4.6,6-1.4,3.9-2,8.1-2,12.7v33.7h-12.2Z"/><path class="cls-1" d="m940.1,457.9c-4.5,3.4-8.9,5.9-13.1,7.3-4.2,1.4-8.7,2.1-13.5,2.1-7.9,0-14-1.7-18.3-5.2-4.3-3.5-6.4-7.9-6.4-13.2s.8-6,2.4-8.6c1.6-2.6,3.7-4.7,6.3-6.3,2.6-1.6,5.5-2.8,8.8-3.6,2.4-.6,6-1.1,10.9-1.6,9.9-1,17.2-2.3,21.8-3.8,0-1.5,0-2.4,0-2.8,0-4.4-1.2-7.6-3.5-9.4-3.1-2.5-7.8-3.7-14-3.7s-10,.9-12.8,2.7c-2.7,1.8-4.8,5-6.1,9.5l-12-1.5c1.1-4.6,2.9-8.2,5.4-11.1,2.5-2.8,6.1-5,10.8-6.5s10.2-2.3,16.4-2.3,11.2.6,15,1.9c3.9,1.3,6.7,2.9,8.5,4.9,1.8,2,3.1,4.4,3.8,7.4.4,1.9.6,5.2.6,10.1v14.5c0,10.1.3,16.5.8,19.2.5,2.7,1.6,5.3,3.1,7.7h-12.8c-1.3-2.3-2.1-4.9-2.4-7.9Zm-1-24.3c-4.4,1.6-11.1,3-20,4.1-5,.6-8.6,1.4-10.7,2.2-2.1.8-3.7,2-4.8,3.5-1.1,1.6-1.7,3.3-1.7,5.2,0,2.9,1.2,5.3,3.7,7.3,2.5,1.9,6.1,2.9,10.9,2.9s8.9-.9,12.6-2.8,6.4-4.3,8.1-7.5c1.3-2.5,2-6.1,2-10.9v-4Z"/><path class="cls-1" d="m970.5,490.5v-89h11.2v8.4c2.6-3.3,5.6-5.7,8.9-7.4,3.3-1.6,7.3-2.5,12-2.5s11.6,1.4,16.3,4.2c4.7,2.8,8.3,6.8,10.7,12,2.4,5.1,3.6,10.8,3.6,16.9s-1.3,12.5-4,17.8c-2.7,5.3-6.5,9.3-11.6,12.1-5.1,2.8-10.4,4.2-16,4.2s-7.7-.8-11-2.3c-3.2-1.5-5.9-3.5-8-5.8v31.3h-12.2Zm11.1-56.4c0,8.3,1.9,14.4,5.6,18.3,3.8,4,8.3,5.9,13.7,5.9s10.1-2,14-6.1c3.9-4.1,5.8-10.4,5.8-19s-1.9-14.3-5.7-18.4c-3.8-4.1-8.3-6.1-13.6-6.1s-9.8,2.2-13.8,6.5c-4,4.3-6,10.6-6,18.9Z"/><path class="cls-1" d="m1048,465.8v-88.8h12.2v31.9c5.7-5.9,12.9-8.8,21.6-8.8s10,.9,14,2.8,6.8,4.5,8.5,7.8c1.7,3.3,2.6,8.1,2.6,14.4v40.8h-12.2v-40.8c0-5.4-1.3-9.4-4-11.9-2.7-2.5-6.4-3.7-11.3-3.7s-7,.8-10.2,2.5c-3.2,1.7-5.5,3.9-6.8,6.8-1.4,2.9-2,6.8-2,11.9v35.2h-12.2Z"/><path class="cls-1" d="m1125,490.6l-1.4-10.2c2.7.6,5,1,7,1s4.9-.4,6.5-1.2c1.6-.8,3-1.9,4-3.4.8-1.1,2-3.8,3.7-8.1.2-.6.6-1.5,1.1-2.7l-27.4-64.4h13.2l15,37.2c2,4.7,3.7,9.7,5.2,14.9,1.4-5,3.1-9.9,5-14.7l15.4-37.5h12.2l-27.5,65.4c-3,7.1-5.2,11.9-6.9,14.6-2.2,3.6-4.7,6.2-7.5,7.9-2.8,1.7-6.2,2.5-10.1,2.5s-5-.4-7.9-1.3Z"/></g></svg>